<svg width="20" height="24" viewBox="0 0 20 24" fill="none" xmlns="http://www.w3.org/2000/svg">
<path d="M19.8274 8.54335H15.8431C15.7294 7.88994 15.5199 7.3111 15.2145 6.80684C14.9091 6.29548 14.5291 5.86224 14.0746 5.50712C13.62 5.15201 13.1016 4.88568 12.5192 4.70812C11.9439 4.52346 11.3225 4.43113 10.6548 4.43113C9.46876 4.43113 8.41763 4.72943 7.50143 5.32602C6.58524 5.9155 5.86791 6.78198 5.34944 7.92545C4.83098 9.06181 4.57174 10.4503 4.57174 12.0909C4.57174 13.76 4.83098 15.1662 5.34944 16.3097C5.87501 17.446 6.59234 18.3054 7.50143 18.8878C8.41763 19.4631 9.46521 19.7507 10.6442 19.7507C11.2976 19.7507 11.9084 19.6655 12.4766 19.4951C13.0519 19.3175 13.5668 19.0583 14.0213 18.7174C14.483 18.3764 14.87 17.9574 15.1825 17.4603C15.5021 16.9631 15.7223 16.3949 15.8431 15.7557L19.8274 15.777C19.6783 16.8139 19.3551 17.787 18.858 18.696C18.3679 19.6051 17.7252 20.4077 16.9297 21.1037C16.1342 21.7926 15.2038 22.3324 14.1385 22.723C13.0732 23.1066 11.8906 23.2983 10.5909 23.2983C8.67331 23.2983 6.96166 22.8544 5.45598 21.9666C3.9503 21.0789 2.76422 19.7969 1.89774 18.1208C1.03126 16.4446 0.598022 14.4347 0.598022 12.0909C0.598022 9.74008 1.03481 7.73014 1.90839 6.0611C2.78197 4.38497 3.9716 3.10301 5.47728 2.21522C6.98297 1.32744 8.68751 0.883545 10.5909 0.883545C11.8054 0.883545 12.9347 1.054 13.9787 1.39491C15.0227 1.73582 15.9531 2.23653 16.7699 2.89704C17.5867 3.55045 18.2578 4.35301 18.7834 5.30471C19.3161 6.24931 19.6641 7.32886 19.8274 8.54335Z" fill="#3A4F67"/>
</svg>
