<svg width="192" height="69" viewBox="0 0 192 69" fill="none" xmlns="http://www.w3.org/2000/svg">
<g clip-path="url(#clip0_59_1075)">
<path d="M75.2274 49.3202L79.1054 57.6395H78.2043L76.9009 54.9039H73.3125L72.0091 57.6395H71.0919L75.0182 49.3202H75.2274ZM75.1147 51.0902L73.6987 54.0993H76.5308L75.1147 51.0902Z" fill="#231916"/>
<path d="M85.6224 51.4925H86.427V56.32C86.4587 56.9622 86.377 57.6049 86.1856 58.2188C85.9965 58.7698 85.6133 59.2331 85.1075 59.5222C84.5447 59.8434 83.9048 60.0048 83.257 59.9888C82.7758 59.9924 82.2973 59.9162 81.8409 59.7635C81.458 59.6355 81.1069 59.427 80.8111 59.1521C80.5042 58.8352 80.2587 58.4642 80.087 58.0578H80.9398C81.1558 58.4377 81.4734 58.7497 81.857 58.959C82.2878 59.1496 82.7537 59.2482 83.2248 59.2482C83.6959 59.2482 84.1618 59.1496 84.5926 58.959C84.9251 58.7855 85.2034 58.5238 85.3971 58.2027C85.5728 57.7298 85.6494 57.2259 85.6224 56.7223V56.4004C85.3391 56.7799 84.962 57.0793 84.5282 57.2694C84.1023 57.4764 83.6339 57.5811 83.1604 57.5751C82.5967 57.579 82.0418 57.4347 81.5513 57.1567C81.0621 56.8956 80.6536 56.5058 80.37 56.0293C80.0864 55.5528 79.9384 55.0079 79.9422 54.4534C79.9383 53.8896 80.0825 53.3347 80.3605 52.8442C80.6425 52.3566 81.0476 51.9516 81.5352 51.6696C82.0257 51.3916 82.5806 51.2473 83.1443 51.2512C83.5877 51.2527 84.026 51.3458 84.4317 51.5247C84.8745 51.758 85.2637 52.0814 85.5742 52.4741L85.6224 51.4925ZM83.2892 52.104C82.8504 52.104 82.4187 52.2146 82.034 52.4259C81.662 52.6449 81.3519 52.955 81.1329 53.327C80.9237 53.7066 80.813 54.1326 80.8111 54.566C80.8101 54.8658 80.8695 55.1628 80.9856 55.4392C81.1017 55.7157 81.2722 55.9659 81.4869 56.1751C81.7187 56.4001 81.9935 56.576 82.2949 56.6921C82.5963 56.8083 82.9181 56.8623 83.2409 56.851C83.565 56.8648 83.8887 56.8135 84.1927 56.7002C84.4967 56.5869 84.7749 56.4138 85.011 56.1912C85.2314 55.9636 85.4034 55.6937 85.5168 55.3978C85.6302 55.1019 85.6825 54.7861 85.6707 54.4695C85.6808 54.0315 85.5753 53.5986 85.365 53.2143C85.1559 52.8582 84.856 52.5639 84.496 52.3615C84.1243 52.167 83.7084 52.0727 83.2892 52.0879V52.104Z" fill="#231916"/>
<path d="M94.3118 51.4925V57.6555H93.5233V56.5935C93.221 56.9731 92.8428 57.2855 92.413 57.5107C91.9928 57.7176 91.5297 57.8223 91.0613 57.8165C90.6431 57.8214 90.2285 57.7396 89.8435 57.5762C89.4585 57.4128 89.1116 57.1713 88.8246 56.8671C88.5206 56.5676 88.2791 56.2107 88.1142 55.817C87.9494 55.4233 87.8645 55.0008 87.8645 54.574C87.8645 54.1473 87.9494 53.7247 88.1142 53.3311C88.2791 52.9374 88.5206 52.5805 88.8246 52.281C89.1166 51.98 89.4671 51.7419 89.8545 51.5814C90.2419 51.4209 90.6581 51.3414 91.0774 51.3477C91.5534 51.3355 92.0246 51.4464 92.4452 51.6695C92.8801 51.8955 93.2509 52.2276 93.5233 52.635V51.4925H94.3118ZM91.0935 52.104C90.6649 52.1037 90.2435 52.2146 89.8706 52.4258C89.5025 52.6515 89.1979 52.9671 88.9855 53.343C88.7638 53.7183 88.6471 54.1462 88.6476 54.5821C88.6496 55.0227 88.7661 55.4552 88.9855 55.8372C89.1994 56.2174 89.5104 56.5339 89.8867 56.7544C90.2509 56.9725 90.6691 57.084 91.0935 57.0763C91.5228 57.082 91.9456 56.9707 92.3165 56.7544C92.6946 56.5507 93.007 56.2438 93.2176 55.8694C93.428 55.4851 93.5334 55.0522 93.5233 54.6143C93.536 54.2851 93.4811 53.9568 93.3621 53.6496C93.2431 53.3424 93.0625 53.0629 92.8314 52.8281C92.6155 52.5956 92.3541 52.41 92.0634 52.2826C91.7728 52.1553 91.4591 52.089 91.1418 52.0879L91.0935 52.104Z" fill="#231916"/>
<path d="M96.4198 48.9501C96.5947 48.9501 96.7626 49.0196 96.8863 49.1433C97.01 49.2671 97.0795 49.4349 97.0795 49.6098C97.0802 49.6942 97.0633 49.7778 97.0301 49.8553C96.9969 49.9329 96.9479 50.0027 96.8864 50.0604C96.8257 50.1224 96.753 50.1714 96.6728 50.2046C96.5926 50.2378 96.5066 50.2544 96.4198 50.2535C96.2503 50.2494 96.089 50.1803 95.9692 50.0605C95.8493 49.9406 95.7802 49.7793 95.7761 49.6098C95.7752 49.5231 95.7918 49.437 95.825 49.3568C95.8582 49.2766 95.9072 49.2039 95.9692 49.1432C96.0269 49.0817 96.0968 49.0327 96.1743 48.9995C96.2518 48.9663 96.3354 48.9495 96.4198 48.9501ZM96.0336 51.4925H96.8221V57.6556H96.0336V51.4925Z" fill="#231916"/>
<path d="M98.5278 51.4925H99.3163V52.6028C99.5941 52.2162 99.9506 51.8926 100.362 51.6534C100.748 51.4471 101.18 51.342 101.617 51.3477C102.054 51.3413 102.483 51.4584 102.856 51.6856C103.202 51.9231 103.475 52.2517 103.645 52.635C103.835 53.2326 103.916 53.8592 103.886 54.4855V57.7038H103.098V54.7108C103.138 54.2342 103.138 53.7552 103.098 53.2786C103.029 52.9217 102.842 52.5984 102.567 52.3614C102.273 52.1481 101.916 52.0403 101.553 52.0557C101.079 52.0517 100.62 52.2237 100.266 52.5384C99.8874 52.8326 99.6206 53.247 99.5093 53.7131C99.4161 54.2441 99.3783 54.7834 99.3967 55.3222V57.575H98.6082L98.5278 51.4925Z" fill="#231916"/>
<path d="M108.746 52.1523L108.231 52.6834C108.075 52.5043 107.886 52.3579 107.673 52.253C107.46 52.148 107.229 52.0864 106.992 52.0719C106.87 52.068 106.749 52.0888 106.636 52.1331C106.522 52.1773 106.419 52.2441 106.332 52.3293C106.244 52.3976 106.174 52.4856 106.126 52.5863C106.079 52.6869 106.055 52.7974 106.059 52.9086C106.055 53.1238 106.136 53.3318 106.284 53.4879C106.558 53.7596 106.88 53.9778 107.233 54.1316C107.693 54.3393 108.104 54.6408 108.44 55.0166C108.643 55.2971 108.75 55.6357 108.746 55.9821C108.751 56.2217 108.706 56.4597 108.615 56.6813C108.523 56.9028 108.387 57.103 108.215 57.2694C108.04 57.444 107.831 57.5812 107.602 57.6725C107.372 57.7638 107.126 57.8073 106.879 57.8004C106.527 57.8009 106.18 57.7182 105.865 57.559C105.549 57.4207 105.272 57.2048 105.061 56.9315L105.56 56.32C105.713 56.5189 105.907 56.6824 106.129 56.799C106.351 56.9157 106.596 56.9828 106.847 56.9958C107.15 57.0052 107.445 56.8955 107.668 56.6901C107.769 56.5984 107.849 56.4866 107.905 56.362C107.96 56.2373 107.989 56.1024 107.989 55.966C107.994 55.7488 107.92 55.5374 107.78 55.3706C107.487 55.0962 107.15 54.8732 106.783 54.7109C106.343 54.5156 105.952 54.2241 105.64 53.858C105.44 53.5819 105.333 53.2495 105.334 52.9086C105.331 52.6903 105.372 52.4736 105.455 52.2716C105.538 52.0697 105.661 51.8868 105.817 51.734C105.976 51.5798 106.166 51.4602 106.374 51.3826C106.581 51.3051 106.803 51.2713 107.024 51.2834C107.69 51.334 108.309 51.6464 108.746 52.1523Z" fill="#231916"/>
<path d="M110.886 49.1915H111.691V51.4926H112.946V52.1845H111.691V57.6556H110.886V52.1845H109.808V51.4926H110.886V49.1915Z" fill="#231916"/>
<path d="M120.975 49.3202L124.869 57.6395H123.904L122.584 54.9039H119.076L117.773 57.6395H116.84L120.782 49.3202H120.975ZM120.879 51.0902L119.447 54.0993H122.295L120.879 51.0902Z" fill="#231916"/>
<path d="M131.386 51.4925H132.175V56.3199C132.218 56.9825 132.142 57.6474 131.95 58.2831C131.755 58.8313 131.374 59.293 130.872 59.5865C130.309 59.9077 129.669 60.0691 129.021 60.0531C128.54 60.0582 128.061 59.9821 127.605 59.8279C127.22 59.7036 126.868 59.4947 126.575 59.2164C126.257 58.905 126.006 58.5329 125.835 58.1222H126.704C126.913 58.5014 127.226 58.8138 127.605 59.0233C128.038 59.2144 128.507 59.313 128.981 59.313C129.455 59.313 129.923 59.2144 130.357 59.0233C130.685 58.8495 130.958 58.5875 131.145 58.267C131.335 57.7978 131.418 57.2919 131.386 56.7866V56.4648C131.103 56.8442 130.726 57.1437 130.292 57.3337C129.866 57.539 129.398 57.6436 128.924 57.6394C128.361 57.6433 127.806 57.4991 127.315 57.2211C126.826 56.96 126.418 56.5701 126.134 56.0936C125.85 55.6171 125.702 55.0722 125.706 54.5177C125.697 53.9533 125.841 53.3969 126.125 52.9086C126.407 52.4209 126.812 52.0159 127.299 51.7339C127.79 51.4559 128.345 51.3116 128.908 51.3155C129.352 51.3127 129.791 51.406 130.196 51.5891C130.644 51.8217 131.038 52.145 131.354 52.5385L131.386 51.4925ZM129.053 52.104C128.614 52.1039 128.183 52.2146 127.798 52.4258C127.419 52.6361 127.107 52.9482 126.897 53.3269C126.675 53.7022 126.558 54.1301 126.559 54.566C126.56 54.8669 126.622 55.1646 126.741 55.4411C126.86 55.7176 127.033 55.9673 127.251 56.1751C127.482 56.4016 127.756 56.5785 128.058 56.6947C128.36 56.811 128.682 56.8641 129.005 56.851C129.637 56.9132 130.268 56.7222 130.759 56.3199C130.985 56.0959 131.162 55.827 131.279 55.5305C131.395 55.234 131.448 54.9164 131.435 54.5982C131.439 54.1588 131.328 53.726 131.113 53.343C130.915 52.9839 130.619 52.6883 130.26 52.4902C129.901 52.2506 129.484 52.1117 129.053 52.0879V52.104Z" fill="#231916"/>
<path d="M139.995 51.4925V57.6555H139.223V56.5935C138.915 56.9738 138.531 57.2861 138.097 57.5107C137.678 57.7211 137.214 57.826 136.745 57.8164C136.329 57.8211 135.917 57.7391 135.535 57.5757C135.152 57.4122 134.808 57.1709 134.524 56.867C134.22 56.5676 133.979 56.2106 133.814 55.817C133.649 55.4233 133.564 55.0008 133.564 54.574C133.564 54.1472 133.649 53.7247 133.814 53.3311C133.979 52.9374 134.22 52.5804 134.524 52.281C134.814 51.9755 135.163 51.7334 135.551 51.57C135.939 51.4065 136.356 51.3254 136.777 51.3316C137.253 51.3194 137.724 51.4303 138.145 51.6534C138.577 51.8838 138.947 52.215 139.223 52.6189V51.4925H139.995ZM136.777 52.104C136.127 52.1166 135.507 52.3827 135.05 52.8456C134.593 53.3085 134.335 53.9316 134.331 54.5821C134.334 55.0181 134.448 55.4462 134.662 55.8261C134.876 56.2061 135.183 56.5255 135.554 56.7544C135.92 56.9686 136.337 57.0798 136.761 57.0762C137.195 57.0824 137.624 56.9712 138 56.7544C138.378 56.5506 138.691 56.2437 138.901 55.8694C139.112 55.4851 139.217 55.0522 139.207 54.6142C139.216 54.284 139.159 53.9553 139.037 53.6482C138.915 53.3411 138.732 53.0621 138.499 52.8281C138.086 52.3818 137.513 52.116 136.906 52.0879L136.777 52.104Z" fill="#231916"/>
<path d="M142.184 48.9501C142.268 48.9474 142.353 48.9633 142.431 48.9967C142.508 49.03 142.578 49.0801 142.634 49.1432C142.696 49.204 142.745 49.2766 142.779 49.3568C142.812 49.437 142.828 49.5231 142.827 49.6099C142.828 49.6942 142.811 49.7778 142.778 49.8553C142.745 49.9329 142.696 50.0027 142.634 50.0604C142.578 50.1236 142.508 50.1736 142.431 50.207C142.353 50.2403 142.268 50.2562 142.184 50.2535C142.097 50.2545 142.011 50.2378 141.931 50.2047C141.851 50.1715 141.778 50.1224 141.717 50.0604C141.603 49.9381 141.54 49.7771 141.54 49.6099C141.541 49.438 141.603 49.2721 141.717 49.1432C141.778 49.0812 141.851 49.0322 141.931 48.999C142.011 48.9658 142.097 48.9492 142.184 48.9501ZM141.782 51.4926H142.586V57.6556H141.782V51.4926Z" fill="#231916"/>
<path d="M144.276 51.4926H145.08V52.6029C145.354 52.2129 145.711 51.8886 146.126 51.6535C146.512 51.4472 146.944 51.342 147.381 51.3477C147.813 51.339 148.238 51.4565 148.604 51.6857C148.954 51.9185 149.228 52.2485 149.393 52.6351C149.596 53.2242 149.684 53.8471 149.65 54.4695V57.6878H148.862V54.7108C148.881 54.2314 148.849 53.7512 148.765 53.2787C148.701 52.9239 148.52 52.6009 148.25 52.3615C147.952 52.1446 147.589 52.0367 147.22 52.0558C146.747 52.0548 146.289 52.2264 145.933 52.5385C145.564 52.8386 145.304 53.2512 145.193 53.7132C145.1 54.2442 145.062 54.7835 145.08 55.3223V57.5751H144.276V51.4926Z" fill="#231916"/>
<path d="M153.979 50.1248V49.3202H158.533V50.1248H156.682V57.6395H155.829V50.1248H153.979Z" fill="#231916"/>
<path d="M159.015 51.4925H159.82V52.3936C160.022 52.0819 160.285 51.8138 160.592 51.6051C160.839 51.436 161.131 51.3462 161.429 51.3477C161.674 51.3541 161.913 51.4263 162.121 51.5569L161.719 52.2166C161.586 52.1571 161.445 52.1191 161.3 52.104C161.009 52.114 160.733 52.2349 160.528 52.4419C160.249 52.7139 160.054 53.0601 159.965 53.4396C159.839 54.1456 159.791 54.8632 159.82 55.5797V57.6555H159.015V51.4925Z" fill="#231916"/>
<path d="M165.742 51.3316C166.187 51.3205 166.63 51.4069 167.038 51.5848C167.447 51.7627 167.812 52.0278 168.107 52.3615C168.687 52.9616 169.011 53.7636 169.011 54.5982C169.011 55.4328 168.687 56.2348 168.107 56.8349C167.807 57.1464 167.447 57.3941 167.049 57.5633C166.651 57.7326 166.222 57.8198 165.79 57.8198C165.357 57.8198 164.929 57.7326 164.531 57.5633C164.133 57.3941 163.773 57.1464 163.473 56.8349C162.918 56.2222 162.61 55.425 162.61 54.5982C162.61 53.7714 162.918 52.9742 163.473 52.3615C163.757 52.0402 164.107 51.7824 164.498 51.6049C164.888 51.4275 165.312 51.3344 165.742 51.3316ZM165.742 52.104C165.439 52.1111 165.14 52.1789 164.864 52.3032C164.587 52.4276 164.339 52.6061 164.132 52.8281C163.898 53.0583 163.712 53.334 163.588 53.6384C163.463 53.9428 163.402 54.2694 163.408 54.5982C163.406 55.0343 163.523 55.4626 163.746 55.8372C163.944 56.2142 164.246 56.5268 164.615 56.7384C164.89 56.8985 165.195 57.0023 165.51 57.0437C165.826 57.085 166.146 57.0631 166.453 56.9793C166.761 56.8954 167.048 56.7512 167.299 56.5551C167.549 56.3591 167.759 56.115 167.914 55.8372C168.125 55.4584 168.236 55.0319 168.236 54.5982C168.242 54.2694 168.181 53.9428 168.057 53.6384C167.932 53.334 167.747 53.0583 167.512 52.8281C167.287 52.5859 167.012 52.3955 166.707 52.2705C166.401 52.1454 166.072 52.0886 165.742 52.104Z" fill="#231916"/>
<path d="M170.36 51.4926H171.148V54.3729C171.134 54.8583 171.171 55.3439 171.261 55.8211C171.366 56.1906 171.6 56.5103 171.921 56.7223C172.255 56.9407 172.648 57.0529 173.047 57.0441C173.447 57.056 173.84 56.9436 174.173 56.7223C174.476 56.5237 174.703 56.2289 174.817 55.8855C174.918 55.3881 174.956 54.8799 174.93 54.3729V51.4926H175.75V54.5177C175.779 55.1701 175.675 55.8216 175.445 56.4326C175.259 56.8523 174.95 57.2057 174.56 57.4464C174.096 57.6916 173.58 57.8197 173.055 57.8197C172.531 57.8197 172.014 57.6916 171.551 57.4464C171.155 57.2067 170.841 56.8534 170.649 56.4326C170.425 55.8036 170.326 55.1365 170.36 54.4695V51.4926Z" fill="#231916"/>
<path d="M177.569 51.4926H178.373V52.635C178.646 52.2276 179.017 51.8956 179.452 51.6696C179.866 51.4463 180.332 51.3354 180.803 51.3477C181.223 51.3394 181.64 51.4181 182.027 51.5787C182.415 51.7393 182.765 51.9785 183.056 52.281C183.36 52.5805 183.602 52.9374 183.766 53.3311C183.931 53.7248 184.016 54.1473 184.016 54.5741C184.016 55.0008 183.931 55.4234 183.766 55.817C183.602 56.2107 183.36 56.5676 183.056 56.8671C182.772 57.1709 182.428 57.4122 182.046 57.5757C181.663 57.7392 181.251 57.8212 180.835 57.8165C180.367 57.8261 179.903 57.7211 179.484 57.5107C179.051 57.2896 178.672 56.9766 178.373 56.5935V59.9084H177.569V51.4926ZM180.787 52.104C180.466 52.0986 180.146 52.1602 179.85 52.2849C179.554 52.4096 179.286 52.5946 179.065 52.8281C178.832 53.0621 178.649 53.3411 178.527 53.6483C178.406 53.9554 178.348 54.2841 178.357 54.6143C178.347 55.0522 178.453 55.4852 178.663 55.8694C178.874 56.2438 179.186 56.5507 179.564 56.7544C179.941 56.9713 180.369 57.0825 180.803 57.0763C181.222 57.0819 181.635 56.9704 181.994 56.7544C182.37 56.5339 182.681 56.2174 182.895 55.8372C183.115 55.4552 183.231 55.0227 183.233 54.5821C183.234 54.1463 183.117 53.7183 182.895 53.3431C182.683 52.9671 182.378 52.6515 182.01 52.4259C181.625 52.1985 181.186 52.0816 180.739 52.0879L180.787 52.104Z" fill="#231916"/>
<path d="M190.699 55.5959L191.375 55.9499C191.179 56.3357 190.924 56.6886 190.619 56.9958C190.33 57.2515 189.998 57.4532 189.637 57.5912C189.252 57.7376 188.842 57.8086 188.43 57.8004C187.987 57.8211 187.544 57.7423 187.135 57.5696C186.725 57.397 186.36 57.135 186.065 56.8027C185.513 56.1961 185.214 55.4019 185.228 54.5821C185.21 53.8231 185.461 53.0822 185.936 52.4902C186.223 52.1166 186.594 51.8166 187.019 51.6151C187.444 51.4136 187.912 51.3164 188.382 51.3316C188.866 51.3138 189.346 51.4127 189.783 51.62C190.22 51.8272 190.601 52.1368 190.892 52.5224C191.36 53.123 191.599 53.8699 191.568 54.6304H186.033C186.024 55.2521 186.248 55.8547 186.66 56.32C186.867 56.5378 187.117 56.7103 187.394 56.8266C187.671 56.9429 187.969 57.0006 188.27 56.9958C188.583 56.9999 188.894 56.9453 189.187 56.8349C189.468 56.7491 189.727 56.6006 189.943 56.4004C190.236 56.1735 190.491 55.902 190.699 55.5959ZM190.699 53.9867C190.623 53.6175 190.464 53.2707 190.233 52.973C190.021 52.7107 189.751 52.5014 189.444 52.3615C189.114 52.2162 188.759 52.1396 188.398 52.1362C187.807 52.1103 187.229 52.3184 186.789 52.7155C186.432 53.062 186.181 53.5029 186.065 53.9867H190.699Z" fill="#231916"/>
<path d="M96.5485 32.3277C96.5485 33.0679 95.8244 33.4219 94.6014 33.4219H91.5119V40.647C91.5119 42.4492 90.0154 43.2699 88.9211 42.2561C88.0057 41.4026 86.9037 40.7745 85.7029 40.4217C85.381 40.293 85.381 39.939 85.8316 39.939C86.8179 39.9903 87.8061 39.9903 88.7924 39.939C88.9212 39.939 88.9533 39.6493 88.9533 39.4884V33.4219H75.34V41.001C75.34 42.3527 74.117 42.8837 72.7493 42.6101V33.4219H68.7586C68.115 33.4219 68.0184 33.0357 67.3587 31.6519H72.7493V19.3097L74.7929 19.6959C75.2434 19.7925 75.34 20.0178 75.34 20.1626H80.8272V16.9443H69.9816C69.4666 16.9443 69.2735 16.5903 68.6299 15.2064H92.5739C93.121 15.2064 93.475 14.9168 94.183 14.2249C94.8911 14.949 95.5025 15.3995 95.5025 15.834C95.5025 16.2685 94.7945 16.896 93.6037 16.896H83.434V20.1143H87.3764C87.6951 20.1214 88.0103 20.0467 88.292 19.8975C88.5737 19.7482 88.8125 19.5292 88.9855 19.2615L90.9648 19.8729C92.6704 20.3718 91.5762 21.3051 91.5762 22.1418V31.5714H93.6681C94.2474 31.5714 94.6336 31.2335 95.2773 30.5576C95.9531 31.3461 96.5485 31.8771 96.5485 32.3277ZM80.8272 21.9326H75.34V25.8911H80.8272V21.9326ZM75.34 31.5875H80.8272V27.6129H75.34V31.5875ZM83.3857 21.9326V25.8911H88.8729V21.9326H83.3857ZM88.8729 31.5875V27.6129H83.434V31.6519L88.8729 31.5875Z" fill="#231916"/>
<path d="M107.233 28.7071V40.7113C107.233 42.3205 105.817 43.3021 104.626 42.3205C103.605 41.425 102.434 40.7168 101.167 40.2286C100.813 40.0999 100.845 39.7459 101.167 39.7459C102.24 39.7836 103.316 39.7514 104.385 39.6493C104.442 39.6277 104.489 39.5868 104.518 39.5338C104.548 39.4808 104.558 39.4192 104.546 39.3597V30.3485C103.597 30.9599 102.76 31.4427 102.148 31.7806C101.537 32.1185 101.312 32.0381 100.314 31.1852L99.2197 30.2519C100.99 29.6404 102.824 28.9324 104.546 28.1922V21.5786H100.941C100.394 21.5786 100.201 21.3534 99.6541 19.9695H104.691V13.6938L106.718 14.1122C107.072 14.1122 107.233 14.3697 107.233 14.595V19.9212H108.842C109.422 19.9212 109.76 19.5994 110.339 18.8914C111.111 19.5994 111.594 19.9856 111.594 20.5005C111.594 21.0154 111.015 21.6269 109.792 21.6269H107.233V27.1141C108.714 26.4061 110.049 25.7302 111.208 25.1027C111.562 24.9096 112.077 25.2314 111.626 25.6176C110.757 26.2934 109.035 27.5164 107.233 28.7071ZM128.57 40.0677C128.57 40.8723 127.895 41.2263 126.8 41.2263H112.141C111.562 41.2263 111.401 40.8723 110.757 39.424H113.364V17.9581H112.64C112.093 17.9581 111.932 17.6041 111.353 16.3489H124.805C125.417 16.3489 125.738 16.0271 126.414 15.3513C127.074 16.0271 127.589 16.4777 127.589 16.9604C127.589 17.7328 126.945 18.0868 125.867 18.0868H115.955V23.4452H121.571C121.855 23.4384 122.133 23.3614 122.38 23.221C122.627 23.0806 122.835 22.8812 122.987 22.6407L125.207 23.3809C126.334 23.7671 125.594 24.5073 125.594 25.1831V32.7461C125.594 34.0978 124.338 34.5161 122.987 34.3552V32.9392H115.955V39.424H125.754C126.398 39.424 126.672 39.1666 127.283 38.4264C128.023 39.1666 128.57 39.6171 128.57 40.0677ZM115.955 24.99V31.0565H122.987V24.99H115.955Z" fill="#231916"/>
<path d="M132.352 42.5779C132.062 42.8192 131.644 42.5779 131.837 42.1273C132.756 40.0386 133.337 37.8171 133.559 35.5459C134.003 29.6084 134.116 23.6506 133.897 17.7005L135.715 18.0867C136.133 18.1833 136.326 18.3442 136.359 18.5373H139.738V13.6294L141.604 14.0478C141.991 14.1443 142.152 14.3052 142.152 14.5305V15.8017H145.997C146.512 15.8017 146.802 15.4799 147.317 14.9328C147.961 15.5443 148.443 15.8983 148.443 16.381C148.443 16.8638 147.832 17.3143 146.834 17.3143H142.168V18.5695H147.848C148.135 18.6119 148.428 18.5907 148.706 18.5073C148.984 18.4239 149.241 18.2803 149.457 18.0867L150.455 19.02C151.098 19.5993 151.098 19.8568 150.744 20.1464C150.004 20.7418 149.135 21.482 148.009 22.2544C147.59 22.544 147.333 22.2544 147.494 21.9326C147.816 21.3584 148.096 20.7614 148.331 20.1464H142.007V22.2544L144.26 21.9969C144.774 21.9969 145.064 21.6429 145.45 21.0314C146.046 21.4498 146.625 21.7717 146.689 22.19C146.754 22.6084 146.464 23.2842 145.354 23.413L142.007 23.8314C142.007 24.6037 142.2 24.7647 143.069 24.8612C144.308 24.9706 145.557 24.9273 146.786 24.7325C147.333 24.6359 147.59 24.3463 147.816 23.3808C147.816 23.0912 148.202 23.0912 148.298 23.3808C148.435 23.8794 148.715 24.3271 149.103 24.6681C149.216 24.7391 149.309 24.8376 149.374 24.9544C149.438 25.0712 149.472 25.2024 149.472 25.3359C149.472 25.4694 149.438 25.6006 149.374 25.7174C149.309 25.8342 149.216 25.9327 149.103 26.0037C147.848 26.8405 143.777 26.8083 142.135 26.6152C140.494 26.4221 139.834 26.0681 139.706 24.1371L137.775 24.3946C137.26 24.3946 137.067 24.1371 136.359 22.9463L139.577 22.5601V20.1464H136.359V24.4428C136.359 32.8104 136.198 38.7803 132.352 42.5779ZM150.616 37.6217C151.919 39.2308 150.616 41.6446 149.006 39.5527C148.363 38.7481 146.947 36.801 145.676 35.2241L145.772 35.9321C146.078 38.9734 145.161 42.3687 143.133 42.5135C142.232 42.6101 141.846 41.7411 139.915 40.6791C139.593 40.486 139.722 40.1642 140.044 40.1963C142.57 40.4538 142.731 40.2929 143.02 39.617C143.399 38.6934 143.585 37.7024 143.568 36.7045C141.252 38.6094 138.542 39.9778 135.635 40.7113C135.12 40.84 134.927 40.3573 135.345 40.132C138.396 38.6957 141.131 36.6663 143.391 34.1621C143.353 33.8776 143.289 33.5973 143.197 33.3253C141.267 34.9906 139.016 36.2445 136.584 37.0102C136.037 37.1551 135.972 36.624 136.359 36.3988C138.595 34.9968 140.626 33.2909 142.393 31.33C142.264 31.1369 142.168 30.9116 142.039 30.6863C140.56 31.8849 138.89 32.826 137.099 33.4701C136.52 33.6632 136.423 33.1483 136.713 32.9552C138.377 31.8705 139.887 30.5661 141.202 29.0772H137.807C137.26 29.0772 137.099 28.7875 136.584 27.468H147.687C148.202 27.468 148.492 27.2749 149.103 26.5991C149.779 27.2749 150.229 27.5324 150.229 28.0151C150.229 28.7875 149.618 29.0128 148.524 29.0128H143.809C143.568 29.2861 143.31 29.5441 143.037 29.7852C143.859 30.799 144.542 31.9195 145.064 33.1161C146.17 32.1423 147.168 31.0526 148.041 29.8656L149.393 30.992C149.875 31.4104 149.843 31.6518 149.489 31.8771C148.295 32.6232 147.054 33.2898 145.772 33.8724C147.567 34.8701 149.2 36.1342 150.616 37.6217ZM152.225 35.031V17.9258L154.027 18.3442C154.445 18.4407 154.574 18.6016 154.574 18.8269V33.6793C154.478 34.7735 153.528 35.2241 152.177 35.031H152.225ZM159.176 14.8041V41.0009C159.167 41.297 159.076 41.5848 158.913 41.8324C158.751 42.0801 158.523 42.2781 158.255 42.4046C157.987 42.531 157.689 42.5811 157.395 42.5492C157.1 42.5173 156.82 42.4047 156.586 42.2239C155.6 41.5276 154.515 40.985 153.367 40.6147C153.013 40.486 153.045 40.132 153.367 40.132C154.14 40.132 156.457 40.132 156.586 40.132C156.642 40.1104 156.689 40.0695 156.719 40.0165C156.748 39.9635 156.758 39.9018 156.746 39.8423V13.8869L158.597 14.3052C159.08 14.4822 159.176 14.5949 159.176 14.8041Z" fill="#231916"/>
<path d="M190.522 16.8316V41.0653C190.522 42.4813 189.299 42.8192 188.044 42.6744V40.5504H168.541V41.0653C168.541 42.3204 167.447 42.9158 166.063 42.6744V14.2731L167.994 14.6432C168.445 14.7397 168.541 14.8685 168.541 15.0616H186.66C186.937 15.0587 187.208 14.9847 187.448 14.8466C187.687 14.7085 187.887 14.5109 188.028 14.2731L190.12 14.965C191.488 15.4156 190.522 16.2523 190.522 16.8316ZM188.044 38.8125V16.7029H168.541V38.8125H188.044ZM177.102 18.4086V16.7029L178.969 17.0891C179.323 17.0891 179.451 17.3143 179.451 17.5074V18.4086H184.279C184.729 18.4086 185.019 18.1833 185.502 17.604C186.113 18.1833 186.628 18.4729 186.628 18.9235C186.628 19.3741 186.146 19.8246 185.309 19.8246H179.371V21.128H181.495C181.738 21.1328 181.978 21.0727 182.19 20.9539C182.402 20.8351 182.579 20.6619 182.702 20.4522L184.569 20.9993C185.791 21.3533 185.019 22.0935 185.019 22.6084V26.8727C185.019 27.8703 183.796 28.2565 182.702 28.0634V27.2588H179.371V29.1254C180.208 29.1254 180.98 29.0289 181.785 28.9645L180.916 28.0956C180.626 27.806 180.916 27.4841 181.238 27.6129C182.608 27.9396 183.917 28.4828 185.116 29.222C186.403 30.3806 185.116 32.3598 183.635 30.8311C183.281 30.4449 182.863 30.0266 182.444 29.6082L180.562 29.93L182.171 30.284C182.557 30.3806 182.621 30.4771 182.621 30.6059V32.1828H185.293C185.808 32.1828 186.129 31.9575 186.644 31.33C187.32 31.9897 187.722 32.3437 187.722 32.7621C187.722 33.4701 187.127 33.6954 186.113 33.6954H182.573V36.9137C182.573 38.2171 181.366 39.2469 180.304 38.3458C179.482 37.7327 178.57 37.2497 177.601 36.9137C177.537 36.9137 177.476 36.8883 177.43 36.843C177.385 36.7977 177.36 36.7363 177.36 36.6723C177.36 36.6083 177.385 36.5469 177.43 36.5016C177.476 36.4564 177.537 36.431 177.601 36.431C178.277 36.431 179.95 36.431 180.111 36.431C180.272 36.431 180.272 36.3022 180.272 36.2057V33.631H169.813C169.459 33.631 169.233 33.3414 168.719 32.1185H180.272V29.9944C177.73 30.4128 174.978 30.7668 172.226 31.153C171.293 31.2817 171.197 31.153 170.279 29.5438C172.645 29.5438 174.833 29.4151 176.877 29.3185V27.2588H173.787C173.626 28.0956 172.564 28.4818 171.47 28.3209V20.3878L173.305 20.7418C173.626 20.7418 173.755 20.9671 173.787 21.128H177.118V19.8246H170.81C170.328 19.8246 170.199 19.5671 169.684 18.4086H177.102ZM174.93 36.8332C174.318 36.0287 173.707 35.3528 173.031 34.4195C172.741 34.0333 173.031 33.8081 173.417 33.9046C174.542 34.1275 175.607 34.5884 176.539 35.2563C177.875 36.5436 176.314 38.6194 174.93 36.8332ZM173.787 22.528V23.6222H177.118V22.528H173.787ZM177.118 26.0198V24.9417H173.787V26.0198H177.118ZM179.451 22.528V23.6222H182.782V22.528H179.451ZM182.782 26.0198V24.9417H179.451V26.0198H182.782Z" fill="#231916"/>
<path d="M28.9452 69C44.9242 69 57.8776 53.5538 57.8776 34.5C57.8776 15.4462 44.9242 0 28.9452 0C12.9663 0 0.0128784 15.4462 0.0128784 34.5C0.0128784 53.5538 12.9663 69 28.9452 69Z" fill="#231916"/>
<path d="M31.2174 30.3163L36.3023 13.4525L40.3734 25.1027L41.9825 24.1694L37.0264 10.0089L35.2402 10.6526L28.9163 31.6358L31.2174 30.3163Z" fill="white"/>
<path d="M43.8169 29.4312L42.2078 30.3484L51.3155 56.3199C51.75 55.6763 52.1684 55.0326 52.5707 54.3568L43.8169 29.4312Z" fill="white"/>
<path d="M26.6313 39.2469L21.6591 55.7567L6.5653 12.6317C6.13083 13.2593 5.71246 13.919 5.32626 14.5949L20.7901 58.8141L22.8659 58.0739L28.9646 37.9274L26.6313 39.2469Z" fill="white"/>
<path d="M49.5294 21.9808L17.9902 40.2285L18.6017 41.9825L50.1409 23.7348L49.5294 21.9808Z" fill="white"/>
</g>
<defs>
<clipPath id="clip0_59_1075">
<rect width="191.568" height="69" fill="white"/>
</clipPath>
</defs>
</svg>
