<svg width="125" height="40" viewBox="0 0 125 40" fill="none" xmlns="http://www.w3.org/2000/svg">
<g clip-path="url(#clip0_16_40)">
<path d="M9.01011 37.0634C9.01011 36.7028 8.87402 36.4124 8.61122 36.2015C8.37189 36.0283 8.09502 35.9439 7.76183 35.9439H5.4389V40.0002H7.68205C8.0387 40.0002 8.34843 39.9158 8.60184 39.7519C8.94441 39.5318 9.12274 39.1851 9.12274 38.7262C9.12274 38.3702 8.99603 38.0657 8.73793 37.8222C8.91625 37.6114 9.00542 37.3538 9.00542 37.0634H9.01011ZM6.2226 36.7309H7.76183C8.17949 36.7309 8.22641 36.9229 8.22641 37.0634C8.22641 37.2554 8.16072 37.5084 7.57412 37.5084H6.2226V36.7309ZM7.68205 39.2132H6.2226V38.2906H7.87446C7.99647 38.2906 8.09971 38.328 8.19357 38.403C8.29211 38.4872 8.34373 38.5951 8.34373 38.7309C8.34373 38.937 8.27334 39.2132 7.68675 39.2132H7.68205Z" fill="#231916"/>
<path d="M19.3201 37.199C19.3201 36.74 19.1418 36.3981 18.7851 36.1732C18.5317 36.0234 18.2361 35.9438 17.917 35.9438H15.7864V40H16.5701V38.4449H17.8653L18.5505 40H19.4092L18.6537 38.2904C19.0948 38.0889 19.3201 37.7189 19.3201 37.1944V37.199ZM17.917 37.6627H16.5701V36.726H17.917C18.4707 36.726 18.5364 36.9976 18.5364 37.199C18.5364 37.4145 18.466 37.6627 17.917 37.6627Z" fill="#231916"/>
<path d="M25.9277 37.5223V38.3045C25.9371 38.9133 26.0544 39.335 26.2938 39.5925C26.5331 39.8642 26.9508 40 27.5702 40H29.1376V39.2132H27.5749C27.2276 39.2132 26.9883 39.1475 26.8803 39.0211C26.7771 38.8993 26.7161 38.6605 26.7115 38.3092H28.9968V37.527H26.7115V36.7353H29.1376V35.9485H25.9277V37.5316V37.5223Z" fill="#231916"/>
<path d="M39.4709 38.4308L38.7998 35.9438H37.9036L37.2231 38.4308L36.552 35.9438H35.7261L36.8336 40H37.6126L38.3494 37.3021L39.0861 40H39.8651L40.968 35.9438H40.1514L39.4709 38.4308Z" fill="#231916"/>
<path d="M48.27 35.9438H47.4863V40H48.27V35.9438Z" fill="#231916"/>
<path d="M57.5006 38.5807L55.6751 35.9438H54.8538V40H55.6422V37.2178L57.5757 40H58.2843V35.9438H57.5006V38.5807Z" fill="#231916"/>
<path d="M67.3367 37.5504H66.5295V38.3326H67.3367C67.4915 38.3326 67.6042 38.3607 67.6605 38.4169C67.698 38.4543 67.745 38.548 67.745 38.7634V39.2084H66.8627C66.4827 39.2084 66.2199 39.1569 66.0744 39.0539C65.8351 38.8852 65.7177 38.5152 65.7177 37.9625C65.7177 37.4098 65.8397 37.0492 66.0744 36.8759C66.2151 36.7729 66.4779 36.7213 66.858 36.7213H68.4865V35.9344H66.858C66.309 35.9344 65.8867 36.0374 65.6051 36.2389C65.1498 36.5621 64.9293 37.1288 64.9293 37.9625C64.9293 38.7963 65.1546 39.3724 65.6051 39.6862C65.896 39.8923 66.3043 39.9953 66.858 39.9953H68.5287V38.7588C68.5287 37.9625 68.1157 37.541 67.3367 37.541V37.5504Z" fill="#231916"/>
<path d="M88.271 36.1124C88.1349 36 87.9566 35.9438 87.7219 35.9438H87.2338L85.5444 40H86.4032L86.7787 39.096H88.8013L89.1955 40H90.0543L88.5713 36.5854C88.4775 36.356 88.3789 36.2014 88.2756 36.1124H88.271ZM87.0978 38.3091L87.7501 36.7306C87.7501 36.7306 87.7829 36.7634 87.8017 36.8009L88.4587 38.3091H87.0978Z" fill="#231916"/>
<path d="M100.13 37.199C100.13 36.74 99.9513 36.3981 99.5954 36.1732C99.3416 36.0234 99.0458 35.9438 98.7271 35.9438H96.5964V40H97.3798V38.4449H98.6756L99.3607 40H100.219L99.4637 38.2904C99.9046 38.0889 100.13 37.7189 100.13 37.1944V37.199ZM98.7271 37.6627H97.3798V36.726H98.7271C99.2805 36.726 99.3464 36.9976 99.3464 37.199C99.3464 37.4145 99.2758 37.6627 98.7271 37.6627Z" fill="#231916"/>
<path d="M106.738 36.7306H108.206V40H108.999V36.7306H110.468V35.9438H106.738V36.7306Z" fill="#231916"/>
<path d="M120.173 37.7096C119.928 37.5504 119.633 37.4706 119.295 37.4706H118.465C118.24 37.4706 118.079 37.4285 117.967 37.3443C117.873 37.2833 117.831 37.199 117.831 37.0819C117.831 36.9836 117.831 36.7306 118.394 36.7306H120.511V35.9438H118.394C118.071 35.9438 117.789 36.014 117.559 36.1451C117.22 36.3465 117.048 36.6604 117.048 37.0819C117.048 37.4706 117.202 37.7798 117.511 37.9905C117.77 38.1639 118.089 38.2529 118.46 38.2529H119.29C119.811 38.2529 119.872 38.4918 119.872 38.6745C119.872 38.8244 119.844 39.0257 119.713 39.1101C119.615 39.1756 119.45 39.2084 119.229 39.2084H117.151V39.9953H119.229C120.168 39.9953 120.665 39.5363 120.665 38.6698C120.665 38.2435 120.501 37.9204 120.173 37.7002V37.7096Z" fill="#231916"/>
<path d="M42.8873 20.8431H34.1259V22.8009H42.8873V20.8431Z" fill="#405262"/>
<path d="M37.5235 20.8431H39.4897V4.19674H42.8873V2.23889H34.1259V4.19674H37.5235V20.8431Z" fill="#231916"/>
<path d="M55.9049 0H53.9433C53.9433 1.23653 52.939 2.23888 51.7002 2.23888H44.0698V4.19672H51.7002C54.0184 4.19672 55.9049 2.31382 55.9049 0Z" fill="#231916"/>
<path d="M55.9048 26.2201C54.6659 26.2201 53.6617 25.2178 53.6617 23.9812V23.3911H55.9048V21.4332H53.6617V20.1124H55.9048V18.1546H53.6617V16.9321H55.9048V14.9743H53.6617V13.7517H55.9048V11.7939H44.079V13.7517H46.3221V14.9743H44.079V16.9321H46.3221V18.1546H44.079V20.1124H46.3221V23.9812C46.3221 25.2178 45.3179 26.2201 44.079 26.2201V28.178C46.3972 28.178 48.2837 26.295 48.2837 23.9812V20.1124H49.0393V28.178H51.0008V20.1124H51.6954V23.9812C51.6954 26.295 53.5818 28.178 55.9002 28.178V26.2201H55.9048ZM48.2837 13.747H51.7001V14.9695H48.2837V13.747ZM51.0055 18.1546H48.2837V16.9321H51.7001V18.1546H51.0055Z" fill="#231916"/>
<path d="M50.9727 5.41919H44.079V10.562H55.9048V5.41919H50.9727ZM46.0406 8.60421V7.38172H49.0111V8.60421H46.0406ZM53.9432 8.60421H50.9727V7.38172H53.9432V8.60421Z" fill="#231916"/>
<path d="M40.9491 26.2201H38.3399C37.101 26.2201 36.0967 25.2178 36.0967 23.9812V8.02808H34.1352V23.9859C34.1352 26.2998 36.0216 28.178 38.3399 28.178H42.9107V8.02808H40.9491V26.2201Z" fill="#231916"/>
<path d="M110.538 16.5668H102.378V18.5246H110.538V16.5668Z" fill="#405262"/>
<path d="M111.379 26.2201C110.139 26.2201 109.136 25.2178 109.136 23.9812V21.4332V9.51754H110.538V7.55969H102.378V9.51754H107.174V23.9859C107.174 25.2225 106.17 26.2248 104.93 26.2248H102.378V28.1827H104.93C106.226 28.1827 107.385 27.5971 108.155 26.6745C108.928 27.5925 110.083 28.1827 111.379 28.1827H124.156V26.2248H111.379V26.2201Z" fill="#231916"/>
<path d="M109.835 3.21777H103.077V5.17562H109.835V3.21777Z" fill="#231916"/>
<path d="M118.653 12.0937H123.233V10.1358H118.653V6.75878H123.233V4.80093H118.653V0H116.691V4.80093H114.072V1.45668H112.111V4.80093V6.75878H114.072H116.691V10.1358H112.111V12.0937H116.691H118.653Z" fill="#231916"/>
<path d="M123.233 14.0936H121.271V15.4379H114.072V14.0936H112.111V24.2389H123.233V14.0936ZM114.072 22.2811V17.4005H121.271V22.2811H114.072Z" fill="#231916"/>
<path d="M18.668 17.6628H4.11566V19.6206H18.668V17.6628Z" fill="#405262"/>
<path d="M21.7792 10.1358H0V12.0937H21.7792V10.1358Z" fill="#231916"/>
<path d="M11.8727 8.30445H18.6678V6.3466H11.8727V4.51991H18.6678V2.56206H11.8727V0H9.90638V2.56206H3.11127V4.51991H9.90638V6.3466H3.11127V8.30445H9.90638H11.8727Z" fill="#231916"/>
<path d="M14.5804 26.1265V28.0843C16.8986 28.0843 18.7852 26.2015 18.7852 23.8876V13.9204H4.11552V21.822C4.11552 23.0586 3.11127 24.0609 1.87238 24.0609V26.0188C3.63686 26.0188 5.14794 24.9275 5.77208 23.3912H16.8235V23.8876C16.8235 25.1241 15.8193 26.1265 14.5804 26.1265ZM6.07711 21.4333V15.8782H16.8235V21.4333H6.07711Z" fill="#231916"/>
<path d="M90.0309 20.6229H68.2517V22.5808H90.0309V20.6229Z" fill="#231916"/>
<path d="M78.5524 4.52459H80.176H90.0309V2.56674H82.1377V0H80.176V2.56674H78.5524V0H76.5908V2.56674H68.2517V4.52459H78.5524Z" fill="#231916"/>
<path d="M88.3416 23.9859H86.3801C86.3801 25.2225 85.3758 26.2249 84.1369 26.2249H74.5918C73.3529 26.2249 72.3487 25.2225 72.3487 23.9859H70.387C70.387 26.2997 72.2736 28.1827 74.5918 28.1827H84.1369C86.4552 28.1827 88.3416 26.2997 88.3416 23.9859Z" fill="#231916"/>
<path d="M78.5525 8.74478V6.78693H74.5918V5.99536H72.6302V6.78693H70.387V8.74478H72.5082C72.2031 9.62536 71.3725 10.2576 70.387 10.2576V12.2156H76.5909V13.7284H74.5918V12.9368H72.6302V13.7284H70.387V15.6862H72.5082C72.2031 16.5668 71.3725 17.1991 70.387 17.1991V19.157H78.5525V17.1991H73.9395C74.2258 16.7448 74.4323 16.2342 74.5261 15.6862H78.5525V10.253H73.9395C74.2258 9.7986 74.4323 9.2881 74.5261 8.74009H78.5525V8.74478Z" fill="#231916"/>
<path d="M88.3416 19.1616V10.1921C88.3416 7.89232 86.474 6.01879 84.1745 5.99536H84.137H80.1763V7.95321H82.2129V19.1616H84.1745V7.95321C85.3946 7.97195 86.3801 8.96961 86.3801 10.1921V19.1616H88.3416Z" fill="#231916"/>
<path d="M86.3801 11.9531H80.1763V13.911H86.3801V11.9531Z" fill="#405262"/>
</g>
<defs>
<clipPath id="clip0_16_40">
<rect width="125" height="40" fill="white"/>
</clipPath>
</defs>
</svg>
