<svg width="167" height="20" viewBox="0 0 167 20" fill="none" xmlns="http://www.w3.org/2000/svg">
<path d="M8.46 16.216C6.588 16.216 4.98 15.58 3.636 14.308C2.292 13.024 1.62 11.446 1.62 9.574C1.62 7.69 2.208 6.112 3.384 4.84C4.56 3.556 6.066 2.914 7.902 2.914C9.342 2.914 10.8 3.154 12.276 3.634L12.042 4.354C10.602 3.922 9.222 3.706 7.902 3.706C6.33 3.706 5.046 4.27 4.05 5.398C3.054 6.526 2.556 7.906 2.556 9.538C2.556 11.17 3.132 12.562 4.284 13.714C5.448 14.854 6.84 15.424 8.46 15.424C9.876 15.424 11.1 15.208 12.132 14.776L12.402 15.388C11.946 15.652 11.346 15.856 10.602 16C9.87 16.144 9.156 16.216 8.46 16.216ZM24.5181 16V10.096H16.4001V16H15.5721V4.318H16.4001V9.358H24.5181V4.318H25.3461V16H24.5181ZM29.6698 16V4.318H30.4978V16H29.6698ZM34.8202 16V4.246H35.2162L42.8842 13.066C43.1602 13.378 43.4122 13.69 43.6402 14.002C43.8802 14.302 44.0062 14.458 44.0182 14.47C43.9942 14.182 43.9822 13.618 43.9822 12.778V4.318H44.8102V16.072H44.4142L36.6022 7.108L35.6122 5.902C35.6362 6.142 35.6482 6.706 35.6482 7.594V16H34.8202ZM54.0068 4.876C52.6748 4.876 51.5528 5.386 50.6408 6.406C49.7408 7.414 49.2908 8.656 49.2908 10.132C49.2908 11.608 49.8008 12.862 50.8208 13.894C51.8408 14.914 53.0408 15.424 54.4208 15.424C55.8128 15.424 56.8928 15.262 57.6608 14.938V10.132H58.4888V15.316C57.5528 15.892 56.2268 16.18 54.5108 16.18C52.7948 16.18 51.3488 15.598 50.1728 14.434C48.9968 13.27 48.4088 11.842 48.4088 10.15C48.4088 8.446 48.9368 7.018 49.9928 5.866C51.0608 4.714 52.4348 4.138 54.1148 4.138C55.4708 4.138 56.7968 4.348 58.0928 4.768L57.8768 5.452C56.6288 5.068 55.3388 4.876 54.0068 4.876ZM78.8221 16V9.556H69.9841V16H69.1201V3.13H69.9841V8.782H78.8221V3.13H79.6861V16H78.8221ZM86.5727 4.822C85.9247 4.822 85.3967 4.978 84.9887 5.29C84.5807 5.602 84.3767 6.04 84.3767 6.604C84.3767 7.252 84.6467 7.834 85.1867 8.35C85.5707 8.722 86.0627 9.118 86.6627 9.538C87.2747 9.946 87.6947 10.24 87.9227 10.42C88.1507 10.6 88.4267 10.846 88.7507 11.158C89.3387 11.746 89.6327 12.424 89.6327 13.192C89.6327 14.188 89.2967 14.944 88.6247 15.46C87.9647 15.964 87.0347 16.216 85.8347 16.216C84.6467 16.216 83.6507 15.904 82.8467 15.28L83.2787 14.65C84.0947 15.202 84.9587 15.478 85.8707 15.478C86.7827 15.478 87.4907 15.286 87.9947 14.902C88.5107 14.518 88.7687 13.978 88.7687 13.282C88.7687 12.682 88.5107 12.13 87.9947 11.626C87.6347 11.266 87.1487 10.876 86.5367 10.456C85.9367 10.036 85.5167 9.736 85.2767 9.556C85.0367 9.364 84.7547 9.112 84.4307 8.8C83.8187 8.188 83.5127 7.48 83.5127 6.676C83.5127 5.872 83.7947 5.242 84.3587 4.786C84.9347 4.33 85.7267 4.102 86.7347 4.102C87.7427 4.102 88.6487 4.3 89.4527 4.696L89.1467 5.362C88.4027 5.002 87.5447 4.822 86.5727 4.822ZM101.267 14.794C100.475 15.718 99.269 16.18 97.649 16.18C96.029 16.18 94.823 15.718 94.031 14.794C93.239 13.87 92.843 12.592 92.843 10.96V4.318H93.671V10.96C93.671 13.948 94.997 15.442 97.649 15.442C100.301 15.442 101.627 13.948 101.627 10.96V4.318H102.455V10.96C102.455 12.592 102.059 13.87 101.267 14.794ZM107.062 11.95L105.388 16H104.542L109.438 4.246H109.924L114.856 16H113.938L112.246 11.95H107.062ZM109.636 5.578C109.456 6.118 109.294 6.568 109.15 6.928L107.35 11.248H111.958L110.176 6.946C109.9 6.274 109.72 5.818 109.636 5.578ZM117.226 16V4.246H117.622L125.29 13.066C125.566 13.378 125.818 13.69 126.046 14.002C126.286 14.302 126.412 14.458 126.424 14.47C126.4 14.182 126.388 13.618 126.388 12.778V4.318H127.216V16.072H126.82L119.008 7.108L118.018 5.902C118.042 6.142 118.054 6.706 118.054 7.594V16H117.226ZM138.237 16V3.13H139.101V15.208H145.023V16H138.237ZM147.8 16V3.13H148.664V16H147.8ZM154.235 5.182L154.271 6.712V16H153.407V3.022H153.803L162.281 12.796C162.857 13.48 163.301 14.026 163.613 14.434C163.565 13.858 163.541 13.198 163.541 12.454V3.13H164.405V16.108H164.009L155.369 6.154C154.769 5.47 154.385 5.014 154.217 4.786L154.235 5.182Z" fill="#585858"/>
</svg>
