<svg width="120" height="32" viewBox="0 0 120 32" fill="none" xmlns="http://www.w3.org/2000/svg">
<path d="M41.2358 18.8684C41.7479 18.8346 42.2585 18.9507 42.6948 19.2C42.8615 19.3093 42.9969 19.4544 43.0894 19.6226C43.1818 19.7909 43.2284 19.9773 43.2253 20.1658C43.2253 20.5731 43.1116 20.8291 42.8906 20.928C42.6217 21.0346 42.3304 21.0843 42.0379 21.0735H39.5116C39.4578 21.0693 39.4037 21.0754 39.3526 21.0914C39.3015 21.1075 39.2546 21.133 39.2148 21.1665C39.1397 21.3009 39.1089 21.4526 39.1263 21.6029C39.1119 22.2393 39.3474 22.8592 39.7895 23.3484C39.9814 23.5784 40.2281 23.7647 40.5107 23.8929C40.7933 24.021 41.104 24.0875 41.419 24.0873C41.704 24.1006 41.9882 24.0505 42.2477 23.9411C42.5072 23.8317 42.7342 23.6663 42.9095 23.4589C42.979 23.3949 43.0358 23.36 43.0737 23.36C43.1116 23.36 43.2127 23.4822 43.1369 23.7324C42.9846 24.0655 42.7155 24.342 42.3727 24.5178C41.8752 24.8136 41.2905 24.96 40.699 24.9367C40.3529 24.9309 40.0131 24.8511 39.7062 24.7037C39.3994 24.5563 39.1338 24.3453 38.9305 24.0873C38.4093 23.475 38.1407 22.7121 38.1727 21.9345C38.1569 21.1401 38.4709 20.3702 39.0506 19.7818C39.321 19.4926 39.6566 19.261 40.0339 19.1033C40.4113 18.9456 40.8214 18.8654 41.2358 18.8684ZM42.2527 20.1833C42.2538 20.0558 42.2189 19.9303 42.1513 19.8191C42.0838 19.7079 41.9859 19.6148 41.8674 19.5491C41.5885 19.3857 41.2631 19.3026 40.9327 19.3105C40.5465 19.3186 40.1783 19.4622 39.9032 19.712C39.7723 19.7974 39.6618 19.9064 39.5781 20.0325C39.4945 20.1585 39.4397 20.2989 39.4169 20.4451C39.4169 20.5847 39.5116 20.6604 39.7074 20.6604H40.9706C41.3492 20.669 41.7278 20.6437 42.1011 20.5847C42.2021 20.577 42.2527 20.4432 42.2527 20.1833Z" fill="#2C2623"/>
<path d="M45.1958 19.0662L46.3579 18.9964C46.56 18.9964 46.661 19.0429 46.661 19.1302C46.661 19.2175 46.5473 19.3047 46.3073 19.3804C46.0673 19.456 45.9979 19.6305 45.9979 19.9622C45.9963 20.0925 46.0177 20.2221 46.061 20.3462L47.2042 23.1738C47.2421 23.2785 47.2737 23.3309 47.2926 23.3309C47.3116 23.3309 47.3684 23.2727 47.3684 23.1855L48.48 20.5615C48.5484 20.398 48.5848 20.2246 48.5873 20.0495C48.5873 19.6713 48.461 19.4676 48.2021 19.3804C47.9431 19.2931 47.8484 19.2233 47.8484 19.1302C47.8484 19.0371 47.9495 18.9964 48.1579 18.9964L49.2821 19.0662C49.468 19.0674 49.6538 19.0557 49.8379 19.0313C49.9883 19.009 50.1403 18.9974 50.2926 18.9964C50.4316 18.9964 50.501 19.0429 50.501 19.1302C50.501 19.2175 50.4 19.2989 50.1979 19.3571C49.9765 19.4339 49.7791 19.5598 49.6231 19.7236C49.4394 19.9093 49.2977 20.1269 49.2063 20.3636L48 23.0051L47.4316 24.4364C47.2105 24.8611 47.0716 25.0764 47.0147 25.0764C46.9579 25.0764 46.8442 24.8902 46.7116 24.4945L44.8168 20.0669C44.7624 19.9086 44.67 19.7637 44.5464 19.6428C44.4229 19.5219 44.2714 19.4283 44.1031 19.3687C43.8695 19.2931 43.7495 19.2116 43.7495 19.1185C43.7495 19.0255 43.8568 18.9847 44.0589 18.9847L45.1958 19.0662Z" fill="#2C2623"/>
<path d="M53.8169 18.8684C54.3318 18.8407 54.8428 18.9651 55.2758 19.2233C55.4426 19.3326 55.578 19.4777 55.6704 19.6459C55.7628 19.8141 55.8095 20.0006 55.8063 20.1891C55.8063 20.5964 55.699 20.8524 55.4779 20.9513C55.207 21.0583 54.9135 21.108 54.619 21.0967H52.0927C52.0379 21.0921 51.9827 21.098 51.9305 21.114C51.8783 21.13 51.8303 21.1558 51.7895 21.1898C51.7173 21.325 51.6888 21.4765 51.7074 21.6262C51.6841 22.2589 51.9082 22.8783 52.339 23.3716C52.5299 23.6013 52.7756 23.7873 53.057 23.9155C53.3385 24.0436 53.6482 24.1103 53.9621 24.1105C54.2472 24.1244 54.5316 24.0745 54.7912 23.9651C55.0508 23.8556 55.2777 23.69 55.4527 23.4822C55.5221 23.4182 55.579 23.3833 55.6232 23.3833C55.6674 23.3833 55.7558 23.5055 55.6863 23.7556C55.5359 24.0796 55.277 24.3507 54.9474 24.5295C54.4496 24.8245 53.8651 24.9709 53.2737 24.9484C52.9268 24.9425 52.5861 24.8628 52.2782 24.7154C51.9703 24.5681 51.7036 24.357 51.499 24.0989C50.9777 23.4866 50.7092 22.7238 50.7411 21.9462C50.7246 21.145 51.0461 20.3691 51.6379 19.7818C51.9071 19.4927 52.2416 19.2612 52.6179 19.1034C52.9942 18.9457 53.4034 18.8654 53.8169 18.8684ZM54.84 20.1833C54.8399 20.0554 54.8038 19.9297 54.7351 19.8186C54.6665 19.7074 54.5677 19.6145 54.4484 19.5491C54.1723 19.3848 53.8486 19.3016 53.52 19.3105C53.1319 19.3183 52.7616 19.4619 52.4842 19.712C52.3544 19.7983 52.2446 19.9076 52.1611 20.0335C52.0776 20.1594 52.0221 20.2993 51.9979 20.4451C51.9979 20.5847 52.099 20.6604 52.2948 20.6604H53.5579C53.9344 20.6691 54.311 20.6438 54.6821 20.5847C54.7832 20.5789 54.84 20.4451 54.84 20.1833Z" fill="#2C2623"/>
<path d="M58.2758 24.7215L57.0126 24.7913C56.8105 24.7913 56.7031 24.7505 56.7031 24.6575C56.7031 24.5644 56.7979 24.4945 56.981 24.4364C57.1074 24.4015 57.2318 24.3607 57.3537 24.3142C57.4298 24.2822 57.4952 24.232 57.5431 24.1687C57.6147 24.0844 57.6506 23.9789 57.6442 23.872V20.8175C57.6442 20.2356 57.4358 19.8749 57.0126 19.7935C56.9305 19.7935 56.8926 19.712 56.8926 19.6131C56.8926 19.5142 56.9242 19.456 57 19.4385C57.3041 19.3902 57.5968 19.2937 57.8652 19.1535L58.5537 18.7462C58.6146 18.7196 58.6718 18.6864 58.7242 18.6473H58.7621C58.7621 18.6473 58.8126 18.6822 58.8315 18.7462C58.8315 19.0022 58.8315 19.2465 58.8315 19.4851C58.8315 19.7236 58.8315 19.84 58.8315 19.84C58.8315 19.84 58.8758 19.84 58.9137 19.7702C58.999 19.6694 59.0919 19.5741 59.1915 19.4851C59.5714 19.1367 60.0774 18.9296 60.6126 18.9033C60.7994 18.8954 60.9845 18.94 61.1431 19.0313C61.2073 19.0668 61.2604 19.1171 61.2969 19.1774C61.3335 19.2376 61.3523 19.3056 61.3515 19.3745C61.3408 19.5447 61.2723 19.7075 61.1558 19.84C61.0294 20.0145 60.9094 20.096 60.7958 20.096C60.6241 20.0829 60.4569 20.0395 60.3031 19.968C60.152 19.9011 59.9897 19.8578 59.8231 19.84C59.5395 19.8363 59.2655 19.9344 59.0589 20.1135C58.941 20.2388 58.8522 20.3849 58.7979 20.543C58.7436 20.7011 58.7249 20.8678 58.7431 21.0327V23.7964C58.7431 24.0524 59.021 24.256 59.5768 24.4073C59.8168 24.4829 59.9305 24.5702 59.9305 24.6575C59.9305 24.7447 59.8294 24.7913 59.621 24.7913L58.2758 24.7215Z" fill="#2C2623"/>
<path d="M67.0358 19.0662L67.9453 18.9964C68.1537 18.9964 68.2547 19.0429 68.2547 19.1302C68.2547 19.2175 68.1537 19.2989 67.9642 19.3571C67.7478 19.4332 67.5564 19.5594 67.4084 19.7236C67.232 19.9034 67.0909 20.1101 66.9916 20.3345L64.8947 24.9367L64.6358 25.5185L64.0421 26.8451C63.8084 27.3745 63.5937 27.8342 63.4105 28.2298C63.3475 28.3576 63.256 28.4718 63.1419 28.5649C63.0278 28.658 62.8938 28.728 62.7484 28.7703C62.6031 28.8125 62.4497 28.8261 62.2983 28.8102C62.1468 28.7943 62.0008 28.7492 61.8695 28.6778C61.7962 28.6416 61.7347 28.5879 61.6914 28.5225C61.6481 28.457 61.6245 28.3821 61.6232 28.3055C61.6232 28.0204 61.7621 27.8807 62.04 27.8807L62.6716 27.9622C62.731 27.9624 62.7895 27.9487 62.8414 27.9222C62.8934 27.8957 62.9371 27.8574 62.9684 27.8109C63.5186 26.9091 63.9875 25.9673 64.3705 24.9949C64.405 24.8794 64.4199 24.7597 64.4147 24.64C64.4181 24.51 64.3989 24.3804 64.3579 24.256L62.5263 20.0785C62.4775 19.9213 62.39 19.7765 62.2706 19.6554C62.1512 19.5343 62.0032 19.4402 61.8379 19.3804C61.5979 19.3047 61.4779 19.2233 61.4779 19.1302C61.4779 19.0371 61.5853 18.9964 61.7874 18.9964L62.9116 19.0662L64.0863 18.9964C64.2948 18.9964 64.3958 19.0487 64.3958 19.1535C64.3958 19.2582 64.2442 19.392 63.9474 19.4676C63.6505 19.5433 63.6379 19.6713 63.6379 19.9215C63.6554 20.059 63.6981 20.1928 63.7642 20.3171L64.9832 23.104C65.0632 23.2863 65.139 23.2863 65.2105 23.104L66.2463 20.5789C66.328 20.3943 66.3688 20.1965 66.3663 19.9971C66.3683 19.8884 66.3335 19.7818 66.2667 19.6921C66.1999 19.6025 66.1045 19.5342 65.9937 19.4967C65.7411 19.3978 65.6147 19.2989 65.6147 19.1942C65.6147 19.0895 65.7158 19.0371 65.9242 19.0371L67.0358 19.0662Z" fill="#2C2623"/>
<path d="M73.1116 24.7215L71.8484 24.7913C71.6463 24.7913 71.5389 24.7505 71.5389 24.6575C71.5389 24.5644 71.6842 24.4829 71.9747 24.3956C72.2653 24.3084 72.4295 24.2211 72.48 24.1338C72.5295 24.0538 72.5576 23.964 72.5621 23.872V16.7098C72.5621 16.128 72.3221 15.7673 71.8484 15.6742C71.7663 15.6742 71.7284 15.5927 71.7284 15.4938C71.7284 15.3949 71.7284 15.3367 71.8358 15.3193C72.0947 15.2611 72.6884 15.0691 73.6232 14.7375C73.6863 14.7375 73.7179 14.7665 73.7179 14.8364C73.7179 14.9062 73.7179 14.9469 73.6863 15.0924C73.6262 15.6491 73.6009 16.2086 73.6105 16.768V23.8545C73.5988 23.9254 73.6099 23.998 73.6424 24.0631C73.675 24.1283 73.7276 24.1832 73.7937 24.2211C73.9617 24.2935 74.1347 24.3557 74.3116 24.4073C74.52 24.4713 74.6274 24.5527 74.6274 24.64C74.6274 24.7273 74.52 24.7738 74.3179 24.7738L73.1116 24.7215Z" fill="#2C2623"/>
<path d="M76.9073 24.7215L75.6442 24.7913C75.4358 24.7913 75.3347 24.7505 75.3347 24.6575C75.3347 24.5644 75.48 24.4829 75.7642 24.3956C76.0484 24.3084 76.2252 24.2211 76.2758 24.1338C76.323 24.0533 76.349 23.9636 76.3516 23.872V20.7884C76.3516 20.2065 76.1116 19.8458 75.6316 19.7527C75.5431 19.7527 75.5052 19.6713 75.5052 19.5724C75.5052 19.4735 75.5431 19.4153 75.6126 19.392C76.175 19.2577 76.7074 19.0332 77.1852 18.7287C77.271 18.6699 77.3644 18.6211 77.4631 18.5833C77.5326 18.5833 77.5705 18.5833 77.5705 18.6531C77.4821 19.5258 77.4316 20.1658 77.4316 20.5731V23.8545C77.4214 23.9253 77.4332 23.9973 77.4656 24.0622C77.498 24.1271 77.5497 24.1822 77.6147 24.2211C77.7837 24.2915 77.9566 24.3536 78.1326 24.4073C78.3473 24.4713 78.4484 24.5527 78.4484 24.64C78.4484 24.7273 78.3474 24.7738 78.1452 24.7738L76.9073 24.7215ZM76.2758 17.2509C76.1634 17.1516 76.0863 17.0233 76.0547 16.8829C76.023 16.7425 76.0383 16.5965 76.0984 16.4643C76.1586 16.332 76.2609 16.2196 76.3917 16.1419C76.5226 16.0643 76.6759 16.0249 76.8316 16.0291C76.9339 16.0258 77.0359 16.0416 77.1314 16.0756C77.227 16.1096 77.314 16.1611 77.3873 16.2269C77.533 16.3683 77.6144 16.5556 77.6147 16.7505C77.6105 16.9379 77.5293 17.1167 77.3873 17.2509C77.2389 17.3849 77.0394 17.4601 76.8316 17.4604C76.7233 17.4648 76.6151 17.4485 76.514 17.4124C76.4129 17.3764 76.321 17.3214 76.2442 17.2509H76.2758Z" fill="#2C2623"/>
<path d="M81.6695 24.9484C81.4516 24.9599 81.2336 24.9285 81.0299 24.8563C80.8262 24.784 80.6416 24.6726 80.4884 24.5295C80.1798 24.1705 80.0288 23.7178 80.0653 23.2611V19.9622C80.0681 19.9266 80.0586 19.8911 80.0382 19.8608C80.0178 19.8305 79.9875 19.8069 79.9516 19.7935C79.7991 19.7573 79.6414 19.7436 79.4842 19.7527C79.4842 19.7527 79.4147 19.712 79.3642 19.6422C79.3268 19.5918 79.303 19.534 79.2947 19.4735C79.2951 19.4511 79.3025 19.4294 79.3159 19.4108C79.3294 19.3923 79.3483 19.3777 79.3705 19.3687C79.6428 19.2823 79.8909 19.1412 80.0968 18.9556C80.3245 18.7782 80.5358 18.5836 80.7284 18.3738C80.8863 18.1935 80.981 18.1004 81.0063 18.1004C81.1516 18.1004 81.2274 18.1469 81.2274 18.2458L81.1958 18.8684C81.1958 19.0022 81.3158 19.0662 81.5621 19.0662H83.3242C83.4253 19.0662 83.4758 19.1825 83.4758 19.4095C83.4758 19.6364 83.4253 19.7527 83.3242 19.7527H81.7958C81.6211 19.7398 81.4454 19.7576 81.2779 19.8051C81.2147 19.8458 81.1768 19.9564 81.1768 20.1484V22.8305C81.1419 23.1934 81.247 23.556 81.4737 23.8545C81.5615 23.9518 81.6716 24.0299 81.7961 24.0832C81.9206 24.1365 82.0564 24.1638 82.1937 24.1629C82.6023 24.1918 83.01 24.0979 83.3558 23.8953C83.3623 23.888 83.3705 23.8821 83.3798 23.878C83.3891 23.874 83.3992 23.8719 83.4095 23.8719C83.4197 23.8719 83.4299 23.874 83.4392 23.878C83.4485 23.8821 83.4566 23.888 83.4632 23.8953C83.4938 23.9427 83.5091 23.9972 83.5074 24.0524C83.5074 24.1144 83.4253 24.2133 83.2611 24.3491C83.0545 24.5121 82.8224 24.6455 82.5726 24.7447C82.2921 24.8746 81.9834 24.9442 81.6695 24.9484Z" fill="#2C2623"/>
<path d="M86.5263 24.9484C86.3085 24.9599 86.0904 24.9285 85.8868 24.8563C85.6831 24.784 85.4985 24.6726 85.3453 24.5295C85.0338 24.1718 84.8825 23.7181 84.9221 23.2611V19.9622C84.925 19.9266 84.9155 19.8911 84.8951 19.8608C84.8747 19.8305 84.8443 19.8069 84.8084 19.7935C84.6538 19.7571 84.494 19.7433 84.3348 19.7527C84.3348 19.7527 84.2653 19.712 84.2211 19.6422C84.1837 19.5918 84.1599 19.534 84.1516 19.4735C84.1527 19.4513 84.1604 19.4299 84.1737 19.4114C84.1871 19.393 84.2056 19.3782 84.2274 19.3687C84.4997 19.2823 84.7478 19.1412 84.9537 18.9556C85.1705 18.777 85.3712 18.5824 85.5537 18.3738C85.7116 18.1935 85.8 18.1004 85.8316 18.1004C85.9769 18.1004 86.0463 18.1469 86.0463 18.2458L86.0148 18.8684C86.0148 19.0022 86.1411 19.0662 86.3874 19.0662H88.1432C88.2506 19.0662 88.3011 19.1825 88.3011 19.4095C88.3011 19.6364 88.2506 19.7527 88.1432 19.7527H86.6211C86.4464 19.7392 86.2705 19.757 86.1032 19.8051C86.0337 19.8458 86.0021 19.9564 86.0021 20.1484V22.8305C85.9644 23.1946 86.0672 23.5593 86.2927 23.8604C86.3808 23.9587 86.4919 24.0375 86.6176 24.0909C86.7434 24.1442 86.8805 24.1709 87.019 24.1687C87.4255 24.1964 87.8308 24.1025 88.1748 23.9011C88.1804 23.8927 88.1883 23.8857 88.1977 23.8809C88.2071 23.8761 88.2177 23.8736 88.2285 23.8736C88.2392 23.8736 88.2498 23.8761 88.2592 23.8809C88.2686 23.8857 88.2765 23.8927 88.2821 23.9011C88.315 23.9479 88.3325 24.0024 88.3327 24.0582C88.3327 24.1202 88.2506 24.2192 88.0863 24.3549C87.8788 24.5167 87.6469 24.65 87.3979 24.7505C87.1265 24.8742 86.829 24.9417 86.5263 24.9484Z" fill="#2C2623"/>
<path d="M90.3158 24.7215L89.0527 24.7913C88.8506 24.7913 88.7495 24.7505 88.7495 24.6575C88.7495 24.5644 88.8885 24.4829 89.179 24.3956C89.3749 24.3595 89.5538 24.268 89.6906 24.1338C89.7378 24.0533 89.7638 23.9635 89.7664 23.872V16.7098C89.7664 16.128 89.5264 15.7673 89.0527 15.6742C88.9706 15.6742 88.9327 15.5927 88.9327 15.4938C88.9327 15.3949 88.9706 15.3367 89.04 15.3193C89.299 15.2611 89.8927 15.0691 90.8274 14.7375C90.8906 14.7375 90.9221 14.7665 90.9221 14.8364C90.9221 14.9062 90.9221 14.9469 90.8906 15.0924C90.8304 15.6491 90.8051 16.2086 90.8148 16.768V23.8545C90.803 23.9254 90.8141 23.998 90.8467 24.0631C90.8792 24.1283 90.9318 24.1832 90.9979 24.2211C91.166 24.2935 91.339 24.3557 91.5158 24.4073C91.7242 24.4713 91.8316 24.5527 91.8316 24.64C91.8316 24.7273 91.7306 24.7738 91.5221 24.7738L90.3158 24.7215Z" fill="#2C2623"/>
<path d="M95.6905 18.8684C96.2051 18.8435 96.7153 18.9676 97.1495 19.2233C97.3162 19.3326 97.4516 19.4777 97.5441 19.6459C97.6365 19.8141 97.6831 20.0006 97.68 20.1891C97.68 20.5964 97.5663 20.8524 97.3453 20.9513C97.077 21.06 96.7856 21.1117 96.4926 21.1025H93.9663C93.913 21.0976 93.8591 21.1028 93.8081 21.1178C93.757 21.1328 93.7098 21.1573 93.6695 21.1898C93.5944 21.3242 93.5636 21.4759 93.581 21.6262C93.5666 22.2626 93.8021 22.8824 94.2442 23.3716C94.4361 23.6017 94.6828 23.788 94.9654 23.9161C95.248 24.0443 95.5587 24.1108 95.8737 24.1105C96.1587 24.1239 96.4429 24.0738 96.7024 23.9644C96.9619 23.855 97.1889 23.6896 97.3642 23.4822C97.4337 23.4182 97.4905 23.3833 97.5284 23.3833C97.5663 23.3833 97.6674 23.5055 97.5916 23.7556C97.4414 24.09 97.1718 24.3671 96.8274 24.5411C96.33 24.8369 95.7452 24.9833 95.1537 24.96C94.8077 24.9542 94.4678 24.8744 94.161 24.727C93.8541 24.5796 93.5885 24.3686 93.3853 24.1105C92.864 23.4982 92.5955 22.7354 92.6274 21.9578C92.6042 21.1508 92.9211 20.3668 93.5116 19.7702C93.7825 19.4838 94.1176 19.2549 94.4937 19.0992C94.8699 18.9435 95.2782 18.8648 95.6905 18.8684ZM96.7074 20.1833C96.7085 20.0558 96.6736 19.9303 96.606 19.8191C96.5385 19.7079 96.4406 19.6148 96.3221 19.5491C96.0432 19.3857 95.7178 19.3026 95.3874 19.3105C95.0014 19.3192 94.6333 19.4627 94.3579 19.712C94.2271 19.7974 94.1165 19.9064 94.0329 20.0325C93.9492 20.1585 93.8944 20.2989 93.8716 20.4451C93.8716 20.5905 93.9663 20.6604 94.1621 20.6604H95.4253C95.8036 20.6675 96.1819 20.6441 96.5558 20.5905C96.6316 20.5789 96.7074 20.4451 96.7074 20.1833Z" fill="#2C2623"/>
<path d="M106.56 24.9658L106.642 24.0291V23.9418C106.433 24.2269 106.159 24.4671 105.84 24.6458C105.474 24.8521 105.05 24.9571 104.621 24.9484C104.227 24.96 103.836 24.8866 103.478 24.734C103.121 24.5815 102.807 24.354 102.562 24.0698C102.032 23.4827 101.749 22.739 101.766 21.9753C101.764 21.1683 102.107 20.3929 102.72 19.8167C103.042 19.5002 103.434 19.2516 103.87 19.0879C104.307 18.9242 104.776 18.8493 105.246 18.8684C105.491 18.8729 105.733 18.9101 105.966 18.9789C106.15 19.0075 106.322 19.0797 106.465 19.1884C106.528 19.2582 106.579 19.2931 106.617 19.2931C106.648 19.2931 106.667 19.1825 106.667 18.9556V16.7098C106.696 16.4506 106.634 16.1896 106.491 15.9651C106.324 15.8022 106.1 15.699 105.859 15.6742C105.771 15.6742 105.733 15.5927 105.733 15.488C105.733 15.3833 105.771 15.3251 105.84 15.3193C106.251 15.2296 106.654 15.1129 107.046 14.9702C107.266 14.8783 107.494 14.8044 107.728 14.7491C107.785 14.7491 107.817 14.7491 107.823 14.8131C107.829 14.9061 107.829 14.9993 107.823 15.0924C107.759 15.649 107.727 16.2083 107.728 16.768V23.168C107.728 23.7498 107.836 24.0873 108.051 24.0873C108.289 24.0935 108.528 24.0798 108.764 24.0465C108.916 24.0465 108.992 24.0756 108.992 24.2153C108.992 24.3549 108.922 24.4305 108.777 24.4305C108.297 24.4813 107.827 24.5929 107.381 24.7622C107.156 24.866 106.918 24.946 106.674 25.0007C106.598 25.0182 106.56 25.0182 106.56 24.9658ZM104.76 19.3687C104.332 19.3899 103.927 19.5508 103.617 19.8225C103.382 20.0257 103.206 20.2797 103.105 20.5615C102.964 20.9492 102.898 21.3569 102.909 21.7658C102.899 22.1963 102.985 22.6241 103.162 23.0225C103.291 23.3376 103.509 23.6149 103.794 23.8255C104.185 24.1179 104.667 24.2871 105.171 24.3084C105.365 24.3149 105.559 24.2859 105.741 24.223C105.923 24.16 106.09 24.0645 106.232 23.9418C106.365 23.8277 106.472 23.689 106.543 23.5346C106.615 23.3803 106.651 23.2137 106.648 23.0458V21.1316C106.643 20.6823 106.456 20.2509 106.124 19.9215C105.956 19.7409 105.747 19.5974 105.511 19.5017C105.274 19.406 105.018 19.3606 104.76 19.3687Z" fill="#2C2623"/>
<path d="M33.4737 23.4065V23.3018C33.4737 23.2611 33.4737 23.2262 33.4737 23.1913C33.4737 23.1564 33.4421 23.1215 33.4358 23.0865C33.4295 23.0516 33.4737 22.9993 33.4358 22.9644C33.3979 22.9295 33.36 22.9062 33.3474 22.8771C33.3347 22.848 33.2842 22.8189 33.2653 22.7898C33.2463 22.7607 33.2653 22.6967 33.2653 22.6676C33.2522 22.6313 33.2353 22.5962 33.2147 22.5629C33.2147 22.5338 33.2147 22.4815 33.1769 22.4524C33.139 22.4233 33.0884 22.4233 33.0632 22.3942C33.0379 22.3651 33.0632 22.3127 33.0063 22.2895C32.9495 22.2662 32.8926 22.2895 32.8611 22.2895C32.8295 22.2895 32.7853 22.2895 32.7474 22.2487C32.7095 22.208 32.6969 22.1905 32.6653 22.1731C32.6337 22.1556 32.6147 22.1033 32.5769 22.0858C32.539 22.0684 32.4821 22.0858 32.4442 22.0858H32.3369C32.299 22.0858 32.28 21.9869 32.2421 21.9753C32.2042 21.9636 32.1537 21.9753 32.1158 21.9753H31.9958C31.9516 21.9753 31.9137 21.9287 31.8758 21.9287C31.8379 21.9287 31.7937 22.0218 31.7558 22.0218C31.7179 22.0218 31.6737 22.0218 31.6358 22.0218C31.5979 22.0218 31.56 22.0684 31.5221 22.0742H31.4084H31.2947C31.2548 22.0713 31.2147 22.0713 31.1747 22.0742C31.1369 22.0742 31.0926 22.0742 31.0547 22.0742C31.0169 22.0742 30.9979 22.1265 30.96 22.144C30.9221 22.1615 30.859 22.144 30.8274 22.144C30.7958 22.144 30.7642 22.1964 30.7326 22.2196C30.697 22.2378 30.665 22.2614 30.6379 22.2895C30.6063 22.2895 30.5874 22.3476 30.5558 22.3767C30.5276 22.4035 30.5022 22.4327 30.48 22.464C30.48 22.464 30.4042 22.5047 30.3853 22.5338C30.3663 22.5629 30.3853 22.6327 30.3853 22.6676C30.3853 22.7025 30.3284 22.72 30.3095 22.7549C30.3063 22.7936 30.3063 22.8325 30.3095 22.8713C30.3067 22.9061 30.3067 22.9411 30.3095 22.976C30.3095 23.0109 30.2463 23.04 30.24 23.0749C30.2337 23.1098 30.1958 23.1447 30.1958 23.1855C30.1958 23.2262 30.2716 23.2611 30.2653 23.3018V23.4065C30.2653 23.4473 30.2274 23.4822 30.2337 23.5171C30.2309 23.5558 30.2309 23.5947 30.2337 23.6335C30.2305 23.6722 30.2305 23.7111 30.2337 23.7498C30.2337 23.7847 30.3032 23.8138 30.3158 23.8487C30.3284 23.8836 30.3853 23.9069 30.3979 23.9418L30.4358 24.0465C30.4358 24.0756 30.4358 24.1164 30.4674 24.1513C30.499 24.1862 30.5179 24.2036 30.5432 24.2385C30.5684 24.2735 30.5432 24.3025 30.5937 24.3316L30.6632 24.4247C30.6632 24.4247 30.6632 24.5004 30.7137 24.5295C30.7642 24.5585 30.8021 24.5295 30.8274 24.576C30.8526 24.6225 30.8274 24.6807 30.8779 24.6982C30.9284 24.7156 30.96 24.6982 30.9916 24.7447L31.099 24.7971C31.1389 24.7998 31.179 24.7998 31.219 24.7971H31.339C31.3769 24.7971 31.4084 24.832 31.4463 24.8436C31.4842 24.8553 31.5158 24.9076 31.56 24.9076C31.5999 24.911 31.6401 24.911 31.68 24.9076C31.7221 24.9102 31.7643 24.9102 31.8063 24.9076H31.9263C31.9642 24.9076 31.9958 24.8262 32.0337 24.8204C32.0716 24.8145 32.1158 24.8204 32.1537 24.8204C32.1916 24.8204 32.2421 24.8553 32.28 24.8204H32.4L32.5074 24.768L32.6211 24.7215C32.6526 24.7215 32.6842 24.6691 32.7158 24.6516L32.8105 24.5818L32.9053 24.512C32.9053 24.512 33 24.512 33.0316 24.4771C33.0632 24.4422 33.0316 24.3898 33.0758 24.3607C33.12 24.3316 33.1642 24.3258 33.1832 24.2967C33.2021 24.2676 33.1832 24.2153 33.2211 24.1862C33.259 24.1571 33.2969 24.1396 33.3158 24.1105C33.3347 24.0815 33.3158 24.0175 33.3158 23.9825C33.3158 23.9476 33.4105 23.9418 33.4295 23.9069C33.4484 23.872 33.4295 23.8255 33.4295 23.7905C33.4295 23.7556 33.4295 23.7207 33.4611 23.6858C33.4926 23.6509 33.4611 23.6102 33.4611 23.5753C33.4611 23.5404 33.499 23.5055 33.5053 23.4705C33.5116 23.4356 33.4737 23.4473 33.4737 23.4065Z" fill="#2C2623"/>
<path d="M25.3453 24.8553C25.3453 24.8204 25.3958 24.768 25.3895 24.7331C25.3832 24.6982 25.3326 24.6691 25.3263 24.6284C25.32 24.5876 25.2505 24.5644 25.2442 24.5295C25.2379 24.4945 25.32 24.4422 25.3137 24.4015C25.3074 24.3607 25.2316 24.3375 25.2253 24.3025C25.2189 24.2676 25.2253 24.2211 25.2253 24.1862C25.2253 24.1513 25.2253 24.1047 25.2253 24.0698C25.2253 24.0349 25.2253 23.9942 25.2253 23.9593C25.2253 23.9244 25.1558 23.8836 25.1558 23.8487C25.1558 23.8138 25.1558 23.7731 25.1558 23.7324C25.1558 23.6916 25.1558 23.6567 25.1558 23.6218C25.1558 23.5869 25.2063 23.5462 25.2063 23.5055C25.2063 23.4647 25.1747 23.4531 25.1747 23.3949C25.1747 23.3367 25.2632 23.3425 25.2632 23.2727C25.2632 23.2029 25.1874 23.2204 25.1874 23.1622C25.1874 23.104 25.1874 23.1098 25.1874 23.0516C25.1874 22.9935 25.1874 22.9993 25.1874 22.9411C25.1874 22.8829 25.1874 22.8887 25.1874 22.8305C25.1874 22.7724 25.1874 22.7724 25.1874 22.72C25.1874 22.6676 25.1874 22.6618 25.1874 22.6095C25.1874 22.5571 25.1874 22.5513 25.1874 22.4989C25.1874 22.4465 25.2253 22.4407 25.2253 22.3884C25.2253 22.336 25.1747 22.3302 25.1747 22.2778C25.1747 22.2255 25.2884 22.2196 25.2884 22.1615C25.2884 22.1033 25.2884 22.1091 25.2884 22.0509C25.2884 21.9927 25.2884 21.9985 25.2884 21.9404C25.2884 21.8822 25.1874 21.888 25.1874 21.8298C25.1874 21.7716 25.2884 21.7775 25.2884 21.7193C25.2884 21.6611 25.2379 21.6669 25.2379 21.6087C25.2379 21.5505 25.2379 21.5564 25.2379 21.4982C25.2379 21.44 25.2379 21.4458 25.2379 21.3876C25.2379 21.3295 25.2379 21.3353 25.2379 21.2771C25.2379 21.2189 25.2379 21.2247 25.2379 21.1665C25.2379 21.1084 25.2 21.1142 25.2 21.056C25.2 20.9978 25.2 21.0036 25.2 20.9455C25.2 20.8873 25.2632 20.8931 25.2632 20.8349C25.2632 20.7767 25.1811 20.7825 25.1811 20.7244C25.1811 20.6662 25.2442 20.672 25.2442 20.6138C25.2442 20.5556 25.1621 20.5615 25.1621 20.5033C25.1621 20.4451 25.2126 20.4509 25.2126 20.3927C25.2126 20.3345 25.1621 20.3404 25.1621 20.2822C25.1621 20.224 25.1621 20.2298 25.1621 20.1716C25.1621 20.1135 25.2632 20.1193 25.2632 20.0611C25.2632 20.0029 25.2 20.0029 25.2 19.9505C25.2 19.8982 25.2 19.8924 25.2 19.84C25.2 19.7876 25.1368 19.7818 25.1368 19.7295C25.1368 19.6771 25.1368 19.6713 25.1368 19.6189C25.1368 19.5665 25.2063 19.5607 25.2063 19.5084C25.2063 19.456 25.1621 19.4502 25.1621 19.3978C25.1621 19.3455 25.2316 19.3396 25.2316 19.2873C25.2316 19.2349 25.1811 19.2291 25.1811 19.1767C25.1811 19.1244 25.1811 19.1185 25.1811 19.0662C25.1811 19.0138 25.0926 19.008 25.0926 18.9556C25.0926 18.9033 25.1432 18.8975 25.1432 18.8451C25.1432 18.7927 25.1053 18.7869 25.1053 18.7287C25.1053 18.6705 25.1053 18.6764 25.1053 18.6182C25.1053 18.56 25.1495 18.5658 25.1495 18.5076C25.1495 18.4495 25.1053 18.4553 25.1053 18.3971C25.1053 18.3389 25.1684 18.3447 25.1684 18.2865C25.1684 18.2284 25.1053 18.2284 25.1053 18.176C25.1053 18.1236 25.1053 18.1178 25.1053 18.0655C25.1053 18.0131 25.1495 18.0073 25.1495 17.9549C25.1495 17.9025 25.0737 17.8967 25.0737 17.8444C25.0737 17.792 25.1621 17.7862 25.1621 17.7338C25.1621 17.6815 25.1621 17.6756 25.1621 17.6175C25.1621 17.5593 25.0674 17.5651 25.0674 17.5069C25.0674 17.4487 25.1179 17.4545 25.1179 17.3964V17.2858C25.1179 17.2335 25.1558 17.2335 25.1558 17.1753C25.1558 17.1171 25.1558 17.1229 25.1558 17.0647C25.1558 17.0065 25.1558 17.0124 25.1558 16.9542C25.1558 16.896 25.1558 16.896 25.1558 16.8436C25.1558 16.7913 25.1242 16.7855 25.1242 16.7331C25.1242 16.6807 25.1242 16.6749 25.1242 16.6225C25.1242 16.5702 25.1937 16.5644 25.1937 16.512C25.1937 16.4596 25.1937 16.4538 25.1937 16.4015C25.1937 16.3491 25.1937 16.3433 25.1937 16.2909C25.1937 16.2385 25.1937 16.2327 25.1937 16.1804C25.1937 16.128 25.1937 16.1222 25.1937 16.0698V15.9535C25.1937 15.9011 25.2316 15.9011 25.2316 15.8429C25.2316 15.7847 25.2316 15.7905 25.2316 15.7324C25.2316 15.6742 25.1495 15.68 25.1495 15.6218C25.1495 15.5636 25.1874 15.5695 25.1874 15.5113C25.1874 15.4531 25.1874 15.4531 25.1874 15.4007C25.1874 15.3484 25.2568 15.3425 25.2568 15.2902C25.2568 15.2378 25.1621 15.232 25.1621 15.1796C25.1621 15.1273 25.1621 15.1215 25.1621 15.0633C25.1621 15.0051 25.1621 15.0109 25.1621 14.9527C25.1621 14.8945 25.2126 14.9004 25.2126 14.8422C25.2126 14.784 25.2126 14.7898 25.2126 14.7316C25.2126 14.6735 25.1747 14.6793 25.1747 14.6211C25.1747 14.5629 25.2316 14.5687 25.2316 14.5105C25.2316 14.4524 25.2316 14.4524 25.2316 14.4C25.2316 14.3476 25.1937 14.3418 25.1937 14.2895C25.1937 14.2371 25.1937 14.2313 25.1937 14.1789C25.1937 14.1265 25.1116 14.1207 25.1116 14.0684C25.1116 14.016 25.2632 14.0218 25.2632 13.9636C25.2632 13.9055 25.2632 13.9055 25.2632 13.8473C25.2632 13.7891 25.1621 13.7949 25.1621 13.7367C25.1621 13.6785 25.2442 13.6844 25.2442 13.6262C25.2442 13.568 25.2442 13.5738 25.2442 13.5156C25.2442 13.4575 25.2063 13.4633 25.2063 13.4051C25.2063 13.3469 25.2063 13.3469 25.2063 13.2945C25.2063 13.2422 25.2063 13.2364 25.2063 13.184C25.2063 13.1316 25.2063 13.1258 25.2063 13.0735C25.2063 13.0211 25.1116 13.0153 25.1116 12.9571C25.1116 12.8989 25.1116 12.9047 25.1116 12.8465C25.1116 12.7884 25.1747 12.7942 25.1747 12.736C25.1747 12.6778 25.1747 12.6836 25.1747 12.6255C25.1747 12.5673 25.2126 12.5731 25.2126 12.5149C25.2126 12.4567 25.1305 12.4567 25.1305 12.4044C25.1305 12.352 25.2316 12.3462 25.2316 12.2938C25.2316 12.2415 25.2316 12.2356 25.2316 12.1833C25.2316 12.1309 25.2316 12.1251 25.2316 12.0727C25.2316 12.0204 25.2316 12.0145 25.2316 11.9564C25.2316 11.8982 25.1684 11.904 25.1684 11.8458C25.1684 11.7876 25.1684 11.7935 25.1684 11.7353C25.1684 11.6771 25.2126 11.6829 25.2126 11.6247C25.2126 11.5665 25.2126 11.5665 25.2126 11.5142C25.2126 11.4618 25.1368 11.456 25.1368 11.4036C25.1368 11.3513 25.1368 11.3455 25.1368 11.2931C25.1368 11.2407 25.1368 11.2349 25.1368 11.1767C25.1368 11.1185 25.2632 11.1302 25.2632 11.0545C25.2632 10.9789 25.1621 11.0022 25.1621 10.944C25.1621 10.8858 25.1621 10.8916 25.1621 10.8335C25.1621 10.7753 25.2316 10.7811 25.2316 10.7229C25.2316 10.6647 25.2316 10.6647 25.2316 10.6124C25.2316 10.56 25.1495 10.5542 25.1495 10.5018C25.1495 10.4495 25.219 10.4436 25.219 10.3913C25.219 10.3389 25.1747 10.3331 25.1747 10.2807C25.1747 10.2284 25.1747 10.2225 25.1747 10.1702C25.1747 10.1178 25.2253 10.112 25.2253 10.0596C25.2253 10.0073 25.1937 10.0015 25.1937 9.94327C25.1937 9.88509 25.2632 9.89091 25.2632 9.85018C25.2632 9.80945 25.1937 9.79782 25.1937 9.73964C25.1937 9.68145 25.1937 9.68727 25.1937 9.62909C25.1937 9.57091 25.1432 9.57091 25.1432 9.51855C25.1432 9.46618 25.2063 9.46036 25.2063 9.408C25.2063 9.35564 25.2063 9.34982 25.2063 9.29745C25.2063 9.24509 25.2063 9.23927 25.2063 9.18691C25.2063 9.13454 25.1368 9.12873 25.1368 9.07636V8.96C25.1368 8.90764 25.2253 8.90764 25.2253 8.84945C25.2253 8.79127 25.1558 8.79709 25.1558 8.73891C25.1558 8.68073 25.2126 8.68073 25.2126 8.62836C25.2126 8.576 25.2126 8.57018 25.2126 8.51782C25.2126 8.46545 25.2126 8.45964 25.2126 8.40727C25.2126 8.35491 25.1558 8.34909 25.1558 8.29091C25.1558 8.23273 25.1558 8.23854 25.1558 8.18036C25.1558 8.12218 25.1558 8.128 25.1558 8.06982C25.1558 8.01164 25.1116 8.01164 25.1116 7.95927C25.1116 7.90691 25.1116 7.90109 25.1116 7.84873C25.1116 7.79636 25.1116 7.79054 25.1116 7.73818C25.1116 7.68582 25.1116 7.68 25.1116 7.62182C25.1116 7.56364 25.1747 7.56945 25.1747 7.51127C25.1747 7.45309 25.1053 7.45891 25.1053 7.40073C25.1053 7.34255 25.2063 7.34254 25.2063 7.29018C25.2063 7.23782 25.1305 7.232 25.1305 7.17964C25.1305 7.12727 25.2063 7.12145 25.2063 7.06327C25.2063 7.00509 25.1558 7.01091 25.1558 6.95273C25.1558 6.89454 25.1558 6.90036 25.1558 6.84218C25.1558 6.784 25.2253 6.78982 25.2253 6.73164C25.2253 6.67345 25.1432 6.67345 25.1432 6.62109C25.1432 6.56873 25.1432 6.56291 25.1432 6.51054C25.1432 6.45818 25.1432 6.45236 25.1432 6.39418C25.1432 6.336 25.1811 6.34182 25.1811 6.28364C25.1811 6.22545 25.1305 6.22545 25.1305 6.17309C25.1305 6.12073 25.1684 6.11491 25.1684 6.06254C25.1684 6.01018 25.1684 6.00436 25.1684 5.94618C25.1684 5.888 25.1368 5.89382 25.1368 5.83564C25.1368 5.77745 25.1874 5.78327 25.1874 5.72509C25.1874 5.66691 25.1495 5.66691 25.1495 5.61454C25.1495 5.56218 25.1495 5.55636 25.1495 5.49818C25.1495 5.44 25.1495 5.42836 25.1495 5.39345C25.1495 5.35855 25.1116 5.31782 25.1116 5.28291C25.1116 5.248 25.1116 5.21309 25.1116 5.17236C25.1116 5.13164 25.1684 5.10255 25.1684 5.06764C25.1684 5.03273 25.1053 4.99782 25.1053 4.95709C25.1053 4.91636 25.1558 4.88727 25.1621 4.85236C25.1684 4.81745 25.1621 4.77673 25.1621 4.74182C25.1621 4.70691 25.1558 4.65455 25.1558 4.65455C25.1558 4.65455 25.1558 4.58473 25.1558 4.54982C25.1558 4.51491 25.2 4.48 25.2 4.43927C25.2 4.39855 25.1558 4.36945 25.1558 4.32873C25.1558 4.288 25.1558 4.25891 25.1558 4.224V4.07273C25.1558 4.03782 25.1558 4.00291 25.1558 3.968C25.1558 3.93309 25.1116 3.89236 25.1116 3.85745C25.1116 3.82255 25.1684 3.78764 25.1747 3.74691C25.1716 3.71206 25.1716 3.67703 25.1747 3.64218C25.1747 3.60727 25.2253 3.57236 25.2253 3.53164C25.2253 3.49091 25.1432 3.456 25.1432 3.41527C25.1463 3.37848 25.1463 3.34152 25.1432 3.30473C25.1432 3.264 25.1432 3.22909 25.1432 3.18836C25.1432 3.14764 25.1432 3.11273 25.1432 3.07782C25.1432 3.04291 25.2 3.00218 25.2 2.96727C25.2 2.93236 25.2 2.89164 25.2 2.85673C25.1969 2.81799 25.1969 2.7791 25.2 2.74036V2.64727C25.2 2.60655 25.1558 2.57164 25.1558 2.53091C25.1526 2.49412 25.1526 2.45715 25.1558 2.42036C25.1558 2.37964 25.1558 2.34473 25.1558 2.304C25.1558 2.26327 25.2379 2.23418 25.2379 2.19345C25.2379 2.15273 25.1874 2.11782 25.1874 2.08291C25.1905 2.04417 25.1905 2.00528 25.1874 1.96655C25.1874 1.93164 25.2316 1.89091 25.2316 1.856C25.2316 1.82109 25.2632 1.78036 25.2632 1.74545C25.2632 1.71055 25.2632 1.66982 25.2632 1.62909C25.2666 1.59425 25.2666 1.5592 25.2632 1.52436C25.2632 1.48364 25.2063 1.46618 25.1937 1.43127C25.18 1.40312 25.1581 1.37897 25.1305 1.36145C25.1305 1.36145 25.0989 1.29164 25.0547 1.28C25.0105 1.26836 24.9853 1.28 24.9411 1.28C24.8968 1.28 24.8842 1.28 24.84 1.28H24.7326C24.6947 1.28 24.6758 1.33818 24.6379 1.35564C24.5989 1.36393 24.5608 1.37562 24.5242 1.39055C24.4863 1.39055 24.4295 1.39055 24.3916 1.39055L24.2842 1.44873C24.2463 1.44873 24.1958 1.44873 24.1642 1.44873C24.1326 1.44873 24.1137 1.53018 24.0758 1.54764L24 1.65818C23.9621 1.65818 23.8989 1.62909 23.8611 1.65818H23.7411C23.7032 1.65818 23.6842 1.72218 23.6463 1.73964C23.6084 1.75709 23.5579 1.73964 23.52 1.73964L23.4126 1.792C23.3747 1.792 23.3495 1.83855 23.3116 1.85018C23.2737 1.86182 23.2611 1.93164 23.2232 1.94909C23.1853 1.96654 23.1158 1.90836 23.0779 1.94909C23.0435 1.96879 23.0076 1.98629 22.9705 2.00145C22.9326 2.00145 22.9137 2.07709 22.8758 2.08873C22.8379 2.10036 22.7684 2.03055 22.7305 2.04218C22.6926 2.05382 22.6737 2.11782 22.6358 2.12945C22.5979 2.14109 22.5537 2.12945 22.5158 2.12945C22.4779 2.12945 22.4463 2.17018 22.4084 2.18182L22.2947 2.22255C22.2505 2.22255 22.2063 2.22255 22.1621 2.22255L22.0484 2.25745L21.9284 2.32727C21.8913 2.34449 21.8554 2.36393 21.8211 2.38545C21.7768 2.38545 21.7453 2.42618 21.7074 2.43782C21.6708 2.45758 21.6328 2.47508 21.5937 2.49018L21.4737 2.53673H21.3474C21.3032 2.53673 21.2463 2.50182 21.2084 2.53673C21.1705 2.57164 21.1453 2.61236 21.1074 2.624C21.0724 2.63571 21.0403 2.65349 21.0126 2.67636C20.9811 2.67636 20.9811 2.72873 20.9558 2.75782C20.9305 2.78691 20.8421 2.75782 20.8295 2.816C20.8168 2.87418 20.8863 2.89164 20.8863 2.93236C20.8863 2.97309 20.8863 2.97309 20.9305 3.008C20.9747 3.04291 20.9305 3.10109 20.9305 3.13018C20.9305 3.15927 21.0063 3.13018 21.0379 3.18254C21.0695 3.23491 21.0695 3.25818 21.1011 3.28145C21.1326 3.30473 21.1011 3.36291 21.1579 3.38618C21.2147 3.40945 21.2716 3.38618 21.3032 3.38618L21.4105 3.49091C21.4421 3.49091 21.4105 3.58982 21.4611 3.61309C21.5116 3.63636 21.5179 3.65964 21.5558 3.67709C21.5937 3.69455 21.6632 3.67709 21.7011 3.67709C21.7389 3.67709 21.7011 3.77018 21.7579 3.79345C21.8147 3.81673 21.8337 3.79345 21.8653 3.84C21.8939 3.86646 21.9193 3.89572 21.9411 3.92727C21.9677 3.95387 21.991 3.98315 22.0105 4.01455C22.0105 4.04364 22.0863 4.05527 22.1116 4.08436C22.1368 4.11345 22.2126 4.08436 22.2316 4.14836C22.2505 4.21236 22.2316 4.224 22.2695 4.25891C22.3074 4.29382 22.2695 4.34036 22.2695 4.37527C22.2695 4.41018 22.3453 4.42764 22.3579 4.46255C22.3705 4.49745 22.4084 4.52655 22.4211 4.56145C22.4337 4.59636 22.3832 4.64873 22.3895 4.68945C22.3958 4.73018 22.4653 4.74764 22.4716 4.78836V4.89891C22.4716 4.93382 22.4337 4.98036 22.4716 5.01527C22.5095 5.05018 22.5284 5.08509 22.5347 5.12V5.23636C22.5347 5.27127 22.4905 5.312 22.4905 5.35273C22.4941 5.3895 22.4941 5.4265 22.4905 5.46327C22.4905 5.51564 22.5411 5.51564 22.5411 5.57382C22.5411 5.632 22.4779 5.62618 22.4779 5.68436C22.4779 5.74255 22.4779 5.73673 22.4779 5.79491C22.4779 5.85309 22.5095 5.84727 22.5095 5.90545C22.5095 5.96364 22.4653 5.95782 22.4653 6.016C22.4653 6.07418 22.5032 6.06836 22.5032 6.12073C22.5032 6.17309 22.5032 6.17891 22.5032 6.23127C22.5032 6.28364 22.3958 6.28945 22.3958 6.34182C22.3958 6.39418 22.5032 6.4 22.5032 6.45236C22.5032 6.50473 22.4021 6.51054 22.4021 6.56291C22.4021 6.61527 22.4021 6.62109 22.4021 6.67345C22.4021 6.72582 22.4021 6.73164 22.4021 6.784C22.4021 6.83636 22.4905 6.84218 22.4905 6.90036C22.4905 6.95854 22.4021 6.95273 22.4021 7.01091C22.4021 7.06909 22.5095 7.06327 22.5095 7.12145C22.5095 7.17964 22.5095 7.17382 22.5095 7.232V7.34254C22.5095 7.39491 22.5095 7.39491 22.5095 7.45309C22.5095 7.51127 22.4463 7.50545 22.4463 7.56364C22.4463 7.62182 22.4463 7.616 22.4463 7.67418C22.4463 7.73236 22.4463 7.72654 22.4463 7.78473C22.4463 7.84291 22.4463 7.83709 22.4463 7.89527C22.4463 7.95345 22.5221 7.95345 22.5221 8.00582C22.5221 8.05818 22.4337 8.064 22.4337 8.11636C22.4337 8.16873 22.5221 8.17454 22.5221 8.22691C22.5221 8.27927 22.5221 8.28509 22.5221 8.33745C22.5221 8.38982 22.5221 8.39564 22.5221 8.448C22.5221 8.50036 22.5221 8.50618 22.5221 8.55854C22.5221 8.61091 22.4274 8.61673 22.4274 8.66909C22.4274 8.72145 22.5158 8.72727 22.5158 8.77964C22.5158 8.832 22.5158 8.83782 22.5158 8.89018C22.5158 8.94254 22.4842 8.94836 22.4842 9.00073C22.4842 9.05309 22.4274 9.05891 22.4274 9.11127C22.4274 9.16364 22.4716 9.16945 22.4716 9.22182C22.4716 9.27418 22.4084 9.28 22.4084 9.33236C22.4084 9.38473 22.5158 9.39054 22.5158 9.44291C22.5158 9.49527 22.459 9.50109 22.459 9.55345C22.459 9.60582 22.459 9.61164 22.459 9.664C22.459 9.71636 22.459 9.72218 22.459 9.77454C22.459 9.82691 22.3768 9.83273 22.3768 9.88509C22.3768 9.93745 22.3768 9.94327 22.3768 9.99564C22.3768 10.048 22.3768 10.0538 22.3768 10.1062C22.3768 10.1585 22.4147 10.1644 22.4147 10.2167C22.4147 10.2691 22.4147 10.2749 22.4147 10.3273C22.4147 10.3796 22.3768 10.3855 22.3768 10.4378C22.3768 10.4902 22.4147 10.496 22.4147 10.5484C22.4147 10.6007 22.4147 10.6007 22.4147 10.6589C22.4147 10.7171 22.4147 10.7171 22.4147 10.7695C22.4147 10.8218 22.3768 10.8276 22.3768 10.88C22.3768 10.9324 22.4779 10.9382 22.4779 10.9905C22.4779 11.0429 22.4779 11.0487 22.4779 11.1011C22.4779 11.1535 22.4211 11.1593 22.4211 11.2116C22.4211 11.264 22.4211 11.2698 22.4211 11.3222C22.4211 11.3745 22.4211 11.3804 22.4211 11.4327C22.4211 11.4851 22.4779 11.4909 22.4779 11.5433C22.4779 11.5956 22.4779 11.6015 22.4779 11.6538C22.4779 11.7062 22.4779 11.712 22.4779 11.7644C22.4779 11.8167 22.44 11.8225 22.44 11.8749C22.44 11.9273 22.44 11.9331 22.44 11.9913C22.44 12.0495 22.44 12.0436 22.44 12.1018C22.44 12.16 22.4779 12.1542 22.4779 12.2124C22.4779 12.2705 22.4779 12.2647 22.4779 12.3229C22.4779 12.3811 22.4084 12.3753 22.4084 12.4335C22.4084 12.4916 22.4084 12.4858 22.4084 12.544C22.4084 12.6022 22.4968 12.5964 22.4968 12.6545C22.4968 12.7127 22.4274 12.7127 22.4274 12.7651C22.4274 12.8175 22.3263 12.7651 22.3011 12.736C22.2758 12.7069 22.3011 12.6604 22.2442 12.6371C22.1874 12.6138 22.1684 12.6022 22.1432 12.5731L22.1053 12.4742C22.1053 12.4742 22.0421 12.4335 22.0105 12.4102L21.9221 12.3404L21.8274 12.2764C21.7958 12.2764 21.8274 12.16 21.7895 12.1367L21.6947 12.0727C21.6632 12.0727 21.5874 12.0727 21.5558 12.0727C21.5242 12.0727 21.5053 12.0087 21.4737 11.9913L21.3789 11.9215L21.2716 11.8691C21.24 11.8691 21.1895 11.8691 21.1516 11.84C21.1137 11.8109 21.0695 11.84 21.0316 11.84C20.9937 11.84 20.9747 11.7818 20.9368 11.7644C20.899 11.7469 20.88 11.7062 20.8484 11.6887C20.8168 11.6713 20.7853 11.6364 20.7474 11.6189L20.64 11.5782C20.6021 11.5782 20.5453 11.5782 20.5074 11.5782C20.4695 11.5782 20.4253 11.5782 20.3874 11.5782C20.3495 11.5782 20.3368 11.4793 20.2989 11.4676C20.2611 11.456 20.2168 11.4676 20.179 11.4676L20.0653 11.4269C20.0274 11.4269 20.0021 11.3687 19.9642 11.3571C19.9263 11.3455 19.8695 11.3978 19.8316 11.3862H19.7116H19.5979C19.56 11.3862 19.5095 11.3862 19.4716 11.3862C19.4337 11.3862 19.4021 11.3222 19.3642 11.3164C19.3263 11.3105 19.2821 11.3164 19.2442 11.3164C19.2063 11.3164 19.1621 11.3164 19.1179 11.3164C19.0737 11.3164 19.0547 11.2 19.0168 11.2C18.979 11.2 18.9284 11.264 18.8905 11.2582C18.8506 11.2614 18.8105 11.2614 18.7705 11.2582C18.7326 11.2582 18.6947 11.2 18.6505 11.2C18.6063 11.2 18.5684 11.2349 18.5305 11.2349C18.4926 11.2349 18.4547 11.1942 18.4105 11.1942C18.3663 11.1942 18.3347 11.2524 18.2905 11.2524C18.2463 11.2524 18.2084 11.1942 18.1705 11.1942H18.0442C18.0063 11.1942 17.9684 11.2233 17.9242 11.2233C17.88 11.2233 17.8484 11.2873 17.8105 11.2873C17.7726 11.2873 17.7284 11.2582 17.6842 11.2582C17.64 11.2582 17.6021 11.2582 17.5642 11.2582C17.5263 11.2582 17.4758 11.2291 17.4379 11.2582H17.3179C17.28 11.2582 17.2421 11.3047 17.2042 11.3105C17.1663 11.3164 17.1095 11.2582 17.0716 11.264L16.9516 11.2931C16.9137 11.2931 16.8821 11.3571 16.8442 11.3629C16.8022 11.3602 16.7599 11.3602 16.7179 11.3629C16.68 11.3629 16.6547 11.4211 16.6105 11.4327C16.5663 11.4444 16.5221 11.4036 16.4842 11.4327L16.3705 11.4735L16.2505 11.5025C16.2126 11.5025 16.1558 11.5025 16.1179 11.5025C16.08 11.5025 16.0674 11.5956 16.0295 11.6073C15.9916 11.6189 15.9347 11.6073 15.8968 11.6073L15.7832 11.6364C15.7453 11.6364 15.7326 11.7178 15.6947 11.7295C15.6568 11.7411 15.5874 11.6887 15.5495 11.7004C15.5116 11.712 15.5116 11.8167 15.4737 11.8284C15.4358 11.84 15.3979 11.8284 15.36 11.8633C15.3221 11.8982 15.2716 11.8633 15.2337 11.8633L15.1326 11.9215C15.0947 11.9215 15.0442 11.9215 15.0063 11.9215C14.9684 11.9215 14.9621 11.9971 14.9305 12.0204C14.8989 12.0436 14.8105 11.9796 14.7726 12.0204C14.7347 12.0611 14.7284 12.1018 14.6968 12.1193C14.6591 12.1354 14.6231 12.1548 14.5895 12.1775C14.5579 12.1775 14.5579 12.2705 14.5263 12.288C14.4947 12.3055 14.4379 12.288 14.4063 12.3229C14.3747 12.3578 14.3621 12.3927 14.3305 12.416C14.2989 12.4393 14.2232 12.416 14.1916 12.416C14.16 12.416 14.1537 12.4916 14.1221 12.5149C14.0905 12.5382 14.0716 12.5789 14.04 12.6022C14.0084 12.6255 13.9137 12.6022 13.8821 12.6022C13.8505 12.6022 13.8821 12.6953 13.8379 12.7244L13.7432 12.7942L13.6547 12.8698C13.6547 12.8698 13.6547 12.9455 13.5916 12.9687L13.5095 13.0502C13.4779 13.0793 13.3768 13.0502 13.3516 13.0502L13.2632 13.1316C13.2392 13.1615 13.2116 13.1888 13.1811 13.2131C13.1811 13.2422 13.1811 13.3004 13.1368 13.3295C13.0926 13.3585 13.0611 13.3644 13.0358 13.3935C13.0105 13.4225 12.9979 13.4633 12.9726 13.4924C12.9474 13.5215 12.9032 13.5331 12.8779 13.5622C12.8526 13.5913 12.8779 13.6553 12.8463 13.6844C12.8147 13.7135 12.7705 13.7251 12.7516 13.7542C12.7326 13.7833 12.7516 13.8473 12.7516 13.8764C12.7516 13.9055 12.6821 13.9171 12.6632 13.9462C12.6442 13.9753 12.6 13.9985 12.5747 14.0276C12.5495 14.0567 12.5747 14.1091 12.5368 14.1382C12.4989 14.1673 12.4105 14.1382 12.3916 14.1789C12.3726 14.2196 12.3916 14.2895 12.3916 14.3185C12.3916 14.3476 12.3916 14.3942 12.3537 14.4233C12.3158 14.4524 12.2337 14.4233 12.2147 14.4756C12.1914 14.5061 12.1661 14.5353 12.1389 14.5629C12.1389 14.5978 12.1389 14.6327 12.0947 14.6676C12.0505 14.7025 12.0947 14.7491 12.0947 14.7782C12.0793 14.8141 12.0666 14.8511 12.0568 14.8887L12 14.9876C11.9916 15.0231 11.9811 15.058 11.9684 15.0924C11.9684 15.1273 11.9684 15.1622 11.9242 15.1971C11.88 15.232 11.8168 15.232 11.8042 15.2669C11.7916 15.3018 11.8042 15.3484 11.8042 15.3833C11.8042 15.4182 11.7411 15.4356 11.7284 15.4705C11.7256 15.5073 11.7256 15.5443 11.7284 15.5811C11.712 15.6152 11.693 15.6483 11.6716 15.68C11.6716 15.7149 11.6716 15.7615 11.6716 15.7964C11.6716 15.8313 11.6716 15.8778 11.6716 15.9127C11.6716 15.9476 11.5579 15.9535 11.5453 15.9884C11.5326 16.0233 11.5958 16.0815 11.5895 16.1164C11.5832 16.1513 11.5137 16.1745 11.5011 16.2095C11.4884 16.2444 11.3684 16.2269 11.3684 16.2909L11.3305 16.4015C11.3305 16.4364 11.3937 16.4887 11.3874 16.5236C11.3699 16.5575 11.3551 16.5925 11.3432 16.6284C11.3432 16.6633 11.2674 16.6865 11.2611 16.7273C11.2581 16.7621 11.2581 16.7971 11.2611 16.832C11.2611 16.8727 11.2989 16.9193 11.2611 16.9542C11.2232 16.9891 11.2611 17.024 11.2611 17.0647C11.2611 17.1055 11.1537 17.1229 11.1474 17.1578C11.1411 17.1927 11.2042 17.2393 11.1979 17.2742C11.1916 17.3091 11.1032 17.3382 11.0968 17.3731C11.0905 17.408 11.1789 17.4604 11.1726 17.4953C11.1663 17.5302 11.1411 17.5651 11.1347 17.6058C11.1284 17.6465 11.0968 17.6756 11.0968 17.7105C11.0826 17.7464 11.072 17.7834 11.0653 17.8211C11.0653 17.856 11.1158 17.8967 11.1158 17.9375C11.1126 17.9742 11.1126 18.0112 11.1158 18.048C11.1158 18.0829 11.0337 18.1178 11.0337 18.1527C11.0337 18.1876 11.0716 18.2284 11.0716 18.2633C11.0716 18.2982 11.0716 18.3389 11.0716 18.3738C11.0716 18.4087 11.0084 18.4495 11.0084 18.4844C11.0084 18.5193 11.0084 18.56 11.0084 18.5949C11.0084 18.6298 11.0084 18.6705 11.0084 18.7113C11.0084 18.752 11.0463 18.7811 11.0463 18.8218C11.0463 18.8625 11.0463 18.8916 11.0463 18.9324C11.0463 18.9731 11.0463 19.008 11.0463 19.0429C11.0432 19.0797 11.0432 19.1167 11.0463 19.1535C11.0463 19.1884 11.0463 19.2291 11.0463 19.264C11.0463 19.2989 11.0463 19.3396 11.0463 19.3804C11.0463 19.4211 11.1032 19.4502 11.1095 19.4851C11.1158 19.52 11.1474 19.5549 11.1537 19.5898C11.16 19.6247 11.1537 19.6655 11.1537 19.7062C11.1537 19.7469 11.1032 19.7876 11.1095 19.8225C11.1158 19.8575 11.1663 19.8865 11.1726 19.9273C11.1789 19.968 11.1347 20.0087 11.1726 20.0436C11.2105 20.0785 11.2484 20.1076 11.2547 20.1425C11.2611 20.1775 11.2547 20.2124 11.2863 20.2473C11.3179 20.2822 11.2863 20.3229 11.2863 20.3578C11.2863 20.3927 11.2863 20.4393 11.2863 20.4742C11.2863 20.5091 11.3684 20.5324 11.3811 20.5673C11.3886 20.6048 11.3992 20.6417 11.4126 20.6778C11.4126 20.7127 11.3305 20.7709 11.3432 20.8058C11.3558 20.8407 11.4189 20.864 11.4316 20.8989C11.4442 20.9338 11.4316 20.9862 11.4316 21.0211C11.4316 21.056 11.5137 21.0735 11.5263 21.1084C11.5389 21.1433 11.5579 21.1724 11.5705 21.2073C11.5832 21.2422 11.6147 21.2713 11.6274 21.3062L11.6716 21.4109C11.6716 21.4458 11.6716 21.4924 11.6716 21.5273C11.6716 21.5622 11.7474 21.5796 11.76 21.6145C11.7726 21.6495 11.7158 21.7135 11.7284 21.7484C11.7411 21.7833 11.8168 21.7949 11.8358 21.824C11.8547 21.8531 11.8989 21.8764 11.9179 21.9113L11.9747 22.0102C11.9747 22.0102 11.9432 22.1091 11.9747 22.1382C12.0063 22.1673 12.0379 22.1964 12.0568 22.2255C12.0758 22.2545 12.1137 22.2778 12.1326 22.3127C12.1516 22.3476 12.2021 22.3593 12.2211 22.3942C12.24 22.4291 12.2211 22.4756 12.2211 22.5105C12.2437 22.5416 12.2628 22.5747 12.2779 22.6095C12.2779 22.6095 12.3663 22.6444 12.3916 22.6735C12.4081 22.7057 12.4271 22.7368 12.4484 22.7665C12.4484 22.7956 12.4484 22.8771 12.4484 22.9062C12.4484 22.9353 12.5305 22.9469 12.5495 22.976C12.5684 23.0051 12.6126 23.0225 12.6379 23.0516C12.6632 23.0807 12.7074 23.0982 12.7326 23.1273C12.7606 23.1539 12.7901 23.1792 12.8211 23.2029C12.8211 23.232 12.8905 23.2436 12.9158 23.2727C12.9411 23.3018 12.9158 23.36 12.9537 23.3891C12.9916 23.4182 12.9916 23.4589 13.0168 23.488C13.0421 23.5171 13.1179 23.488 13.1495 23.5287C13.1811 23.5695 13.1495 23.6276 13.1811 23.6509C13.2126 23.6742 13.3074 23.6509 13.3389 23.6509C13.3705 23.6509 13.3389 23.7498 13.3768 23.7731C13.4147 23.7964 13.4653 23.7731 13.4968 23.8196C13.5284 23.8662 13.4968 23.9069 13.5537 23.9302C13.5793 23.9588 13.6067 23.986 13.6358 24.0116C13.6358 24.0116 13.7621 24.0116 13.7937 24.0116C13.8253 24.0116 13.7937 24.0931 13.8568 24.1164C13.92 24.1396 13.9516 24.1164 13.9832 24.1164C14.0147 24.1164 13.9832 24.2327 14.0337 24.2502C14.0842 24.2676 14.1284 24.2502 14.16 24.2502C14.1916 24.2502 14.2105 24.3258 14.2421 24.3433C14.2737 24.3607 14.3242 24.3433 14.3621 24.3782C14.3907 24.4064 14.4224 24.4318 14.4568 24.4538C14.4884 24.4538 14.5579 24.4538 14.5958 24.4538L14.7095 24.4887C14.7474 24.4887 14.7411 24.6051 14.7726 24.6225C14.8042 24.64 14.8674 24.6225 14.9053 24.6225L15.0189 24.6575C15.0568 24.6575 15.0758 24.7389 15.1137 24.7505L15.2211 24.7971L15.3347 24.8378H15.4547L15.5684 24.8785C15.6063 24.8785 15.6695 24.832 15.7074 24.8436C15.7453 24.8553 15.7895 24.8436 15.8337 24.8436C15.8779 24.8436 15.8905 24.9251 15.9284 24.9309L16.0484 24.9658H16.1684H16.2821C16.3263 24.9658 16.3579 25.0124 16.3958 25.0182C16.4337 25.024 16.4842 24.9891 16.5221 25.0182C16.56 25.0473 16.5979 25.0764 16.6358 25.0822C16.6737 25.088 16.7305 25.0007 16.7747 25.0065C16.8189 25.0124 16.8442 25.0531 16.8884 25.0589C16.9254 25.0713 16.9635 25.081 17.0021 25.088C17.0463 25.088 17.0842 25.088 17.1221 25.1229H17.2484H17.3684C17.4063 25.1229 17.4505 25.1229 17.4884 25.1229C17.5263 25.1229 17.5705 25.1229 17.6084 25.1229C17.6463 25.1229 17.6905 25.0822 17.7347 25.0822C17.7789 25.0822 17.8168 25.1171 17.8547 25.1171C17.8926 25.1171 17.9368 25.152 17.9747 25.1171C18.0126 25.0822 18.0568 25.0473 18.0947 25.0473C18.1326 25.0473 18.1705 25.0473 18.2147 25.0124C18.2589 24.9775 18.2968 25.0589 18.3411 25.0589C18.3853 25.0589 18.4232 25.0589 18.4674 25.0589C18.5116 25.0589 18.5432 25.0182 18.5811 25.0124C18.6189 25.0065 18.6568 24.9716 18.6947 24.9658C18.7326 24.96 18.7832 24.9658 18.8211 24.9658C18.8631 24.9631 18.9053 24.9631 18.9474 24.9658C18.9853 24.9658 19.0168 24.9018 19.0547 24.8902C19.0947 24.893 19.1348 24.893 19.1747 24.8902C19.2147 24.893 19.2548 24.893 19.2947 24.8902C19.3389 24.8902 19.3642 24.8378 19.4021 24.8262C19.44 24.8145 19.4905 24.8262 19.5347 24.8262L19.6421 24.7855C19.6863 24.7855 19.7116 24.7331 19.7495 24.7215L19.8632 24.6807C19.9031 24.6834 19.9432 24.6834 19.9832 24.6807C20.0211 24.6807 20.0716 24.6807 20.1095 24.6807C20.1466 24.6635 20.1825 24.6441 20.2168 24.6225C20.2547 24.6225 20.2674 24.5411 20.3053 24.5295C20.3432 24.5178 20.3874 24.5295 20.4253 24.5295C20.4623 24.5143 20.4982 24.4968 20.5326 24.4771H20.6526C20.6905 24.4771 20.7347 24.4771 20.7726 24.4771C20.8105 24.4771 20.7789 24.4364 20.8421 24.4364C20.9053 24.4364 20.9368 24.4364 20.9747 24.4364C21.0137 24.4281 21.0518 24.4164 21.0884 24.4015C21.1263 24.4015 21.1705 24.4015 21.2021 24.3607C21.2337 24.32 21.2842 24.3607 21.3221 24.3258C21.36 24.2909 21.36 24.2327 21.3979 24.2153C21.4358 24.1978 21.5053 24.2502 21.5432 24.2153L21.6505 24.1629L21.7579 24.1105C21.7958 24.1105 21.8211 24.0582 21.8589 24.0407L21.9537 23.9767L22.0674 23.9244C22.0674 23.9244 22.0674 23.8313 22.1305 23.8138C22.1937 23.7964 22.2063 23.7847 22.2379 23.7615L22.3389 23.6975L22.4337 23.6335C22.4653 23.6335 22.5095 23.5985 22.5347 23.5753C22.5483 23.5796 22.5602 23.5873 22.5691 23.5976C22.5781 23.6079 22.5837 23.6203 22.5853 23.6335C22.5853 23.6858 22.5411 23.6858 22.5411 23.744V23.8545C22.5411 23.9127 22.5411 23.9127 22.5411 23.9651C22.5411 24.0175 22.5411 24.0233 22.5411 24.0756C22.5411 24.128 22.5853 24.1338 22.5853 24.192C22.5853 24.2502 22.4842 24.2444 22.4842 24.3025C22.4842 24.3607 22.4842 24.3549 22.4842 24.4131C22.4842 24.4713 22.5789 24.4713 22.5789 24.5236C22.5789 24.576 22.4779 24.5818 22.4779 24.64C22.4779 24.6982 22.4779 24.6924 22.4779 24.7505C22.475 24.7893 22.475 24.8282 22.4779 24.8669C22.4779 24.9076 22.5663 24.9251 22.5853 24.9484C22.6042 24.9716 22.6484 24.9484 22.68 24.9949C22.7116 25.0415 22.7179 25.0822 22.7558 25.0938C22.7937 25.1055 22.8379 25.0938 22.8758 25.0938C22.9137 25.0938 22.9389 25.1345 23.0021 25.1345C23.0653 25.1345 23.059 25.1345 23.1221 25.1345C23.1853 25.1345 23.1853 25.0764 23.2421 25.0764C23.2989 25.0764 23.3053 25.152 23.3684 25.152C23.4316 25.152 23.4253 25.152 23.4884 25.152C23.5516 25.152 23.5516 25.1055 23.6147 25.1055C23.6779 25.1055 23.6716 25.1055 23.7347 25.1055C23.7979 25.1055 23.7979 25.0589 23.8547 25.0589C23.9116 25.0589 23.9179 25.0589 23.9811 25.0589C24.0442 25.0589 24.0379 25.0589 24.1011 25.0589C24.1642 25.0589 24.1642 25.0589 24.2274 25.0589C24.2905 25.0589 24.2842 25.1229 24.3474 25.1229H24.4674C24.5305 25.1229 24.5305 25.1229 24.5937 25.1229C24.6568 25.1229 24.6568 25.0473 24.7137 25.0473C24.7705 25.0473 24.7768 25.0473 24.84 25.0473C24.9032 25.0473 24.8968 25.0764 24.96 25.0764C25.0232 25.0764 25.0168 25.0764 25.0737 25.0764C25.1305 25.0764 25.1368 25.0415 25.1937 25.0415C25.2505 25.0415 25.2568 25.1171 25.3137 25.1171C25.3532 25.125 25.3941 25.125 25.4337 25.1171C25.4337 25.0764 25.4337 25.0415 25.4337 25.0065C25.4337 24.9716 25.3516 24.896 25.3453 24.8553ZM13.8947 14.8189C13.8947 14.784 13.8947 14.7375 13.8947 14.6967C13.8947 14.656 13.8947 14.6211 13.9263 14.5862C13.9579 14.5513 13.9263 14.5047 13.9705 14.4698C13.9869 14.4338 14.0059 14.3988 14.0274 14.3651L14.0842 14.2604C14.0842 14.2255 14.2105 14.2604 14.2295 14.208L14.3053 14.1091C14.3053 14.08 14.3053 14.0102 14.3053 13.9811C14.3053 13.952 14.3747 13.9287 14.3937 13.8996C14.4208 13.872 14.4462 13.8428 14.4695 13.8124L14.5389 13.7193C14.5389 13.7193 14.5389 13.6436 14.5895 13.6145C14.64 13.5855 14.5895 13.5331 14.64 13.504C14.6905 13.4749 14.7158 13.4633 14.7411 13.4342C14.7663 13.4051 14.8168 13.3993 14.8421 13.3702C14.8674 13.3411 14.9179 13.3353 14.9432 13.3062L15.0316 13.2247C15.0316 13.2247 15.0316 13.1375 15.0758 13.1084C15.12 13.0793 15.12 13.0444 15.1516 13.0153C15.1832 12.9862 15.2653 13.0153 15.2968 13.0153C15.3284 13.0153 15.3411 12.9455 15.3726 12.9222L15.4737 12.8582C15.5053 12.8582 15.5684 12.8582 15.6 12.8582C15.6316 12.8582 15.6 12.7651 15.6632 12.7476C15.6968 12.725 15.7327 12.7055 15.7705 12.6895L15.8716 12.6313C15.9095 12.6313 15.9284 12.5615 15.96 12.544C15.9916 12.5265 16.0547 12.544 16.0926 12.544C16.1305 12.544 16.1558 12.4858 16.1937 12.4742C16.2316 12.4625 16.2632 12.4218 16.3011 12.4102C16.3389 12.3985 16.4147 12.48 16.4526 12.4684C16.4905 12.4567 16.5032 12.3753 16.5411 12.3636H16.6611C16.6989 12.3636 16.7558 12.3927 16.7937 12.3636C16.8316 12.3345 16.8632 12.3055 16.9011 12.2996C16.9389 12.2938 16.9895 12.2996 17.0274 12.2996C17.0653 12.2996 17.0968 12.2298 17.1411 12.224C17.1853 12.2182 17.2295 12.2705 17.2674 12.2647C17.3073 12.2615 17.3474 12.2615 17.3874 12.2647C17.4253 12.2647 17.4632 12.2298 17.5074 12.224C17.5516 12.2182 17.5832 12.1658 17.6211 12.16C17.6589 12.1542 17.7032 12.1949 17.7474 12.1949C17.7873 12.192 17.8274 12.192 17.8674 12.1949C17.9116 12.1949 17.9495 12.2298 17.9937 12.2298C18.0336 12.2269 18.0737 12.2269 18.1137 12.2298C18.1516 12.2298 18.1958 12.2007 18.24 12.2298C18.2842 12.2589 18.3095 12.2938 18.3537 12.2996H18.4737C18.5179 12.2996 18.5621 12.2589 18.6063 12.2647L18.72 12.3113C18.7579 12.3113 18.8147 12.2822 18.8526 12.3113C18.8905 12.3404 18.9158 12.3811 18.9537 12.3927H19.0737L19.1937 12.4335C19.2316 12.4335 19.2505 12.4975 19.2884 12.5149C19.3263 12.5324 19.3958 12.48 19.4274 12.5149C19.459 12.5498 19.4842 12.5847 19.5221 12.6022L19.6232 12.6604C19.6547 12.6604 19.7242 12.6604 19.7621 12.6604C19.8 12.6604 19.7621 12.7651 19.8126 12.7884C19.8632 12.8116 19.9389 12.7884 19.9705 12.7884L20.0589 12.8698C20.0589 12.8989 20.0968 12.9455 20.1221 12.9687L20.2105 13.0502C20.2105 13.0793 20.2105 13.1258 20.2611 13.1549C20.3116 13.184 20.3558 13.1898 20.3747 13.2247C20.3937 13.2596 20.3368 13.3295 20.3747 13.3644C20.4126 13.3993 20.4568 13.4109 20.4695 13.4458C20.4869 13.4797 20.5017 13.5147 20.5137 13.5505C20.5137 13.5855 20.6084 13.6029 20.6211 13.6378C20.6337 13.6727 20.6211 13.7193 20.6211 13.76C20.6211 13.8007 20.6779 13.824 20.6842 13.8589C20.6905 13.8938 20.6337 13.9462 20.64 13.9869C20.6463 14.0276 20.6968 14.0567 20.6968 14.0916C20.6968 14.1265 20.6968 14.1673 20.7284 14.208C20.76 14.2487 20.6274 14.2836 20.6274 14.3185C20.6274 14.3535 20.6905 14.4 20.6905 14.4349C20.694 14.4736 20.694 14.5125 20.6905 14.5513V14.6618C20.6905 14.7025 20.6905 14.7549 20.6905 14.784C20.6767 14.8229 20.6576 14.86 20.6337 14.8945C20.6337 14.9295 20.5074 14.8945 20.4758 14.9236L20.3874 14.9702L20.28 15.0109C20.28 15.0109 20.2232 15.0691 20.179 15.0807C20.1347 15.0924 20.1032 15.0807 20.0589 15.0807L19.9453 15.1215C19.9137 15.1215 19.8695 15.1215 19.8253 15.1215C19.7811 15.1215 19.7621 15.1855 19.7179 15.1913C19.6737 15.1971 19.6358 15.1913 19.5979 15.1913C19.56 15.1913 19.5284 15.2495 19.4842 15.2553C19.44 15.2611 19.4021 15.2553 19.3642 15.2553C19.3243 15.2524 19.2842 15.2524 19.2442 15.2553C19.2063 15.2553 19.1684 15.296 19.1305 15.3018C19.0926 15.3076 19.0421 15.2145 19.0042 15.2204C18.9663 15.2262 18.9284 15.3018 18.8905 15.3076C18.85 15.3153 18.8099 15.325 18.7705 15.3367C18.7326 15.3367 18.6884 15.2553 18.6505 15.2611C18.6106 15.2582 18.5705 15.2582 18.5305 15.2611H18.4105C18.3726 15.2611 18.3347 15.3018 18.2968 15.3018C18.2569 15.2985 18.2168 15.2985 18.1768 15.3018H18.0568C18.0189 15.3018 17.9811 15.3018 17.9368 15.3018H17.8232C17.7789 15.3018 17.7411 15.2262 17.6968 15.2262C17.6526 15.2262 17.6211 15.2611 17.5832 15.2611C17.5453 15.2611 17.5011 15.2262 17.4632 15.2262C17.4232 15.2235 17.3831 15.2235 17.3432 15.2262H17.2232C17.1853 15.2262 17.1474 15.2727 17.1032 15.2727C17.0589 15.2727 17.0274 15.3018 16.9832 15.3018C16.9389 15.3018 16.9074 15.2145 16.8632 15.2145C16.8189 15.2145 16.7874 15.2902 16.7432 15.2902C16.6989 15.2902 16.6863 15.2436 16.6232 15.2436C16.56 15.2436 16.56 15.2436 16.4968 15.2436H16.3768C16.3137 15.2436 16.3137 15.3193 16.2568 15.3193C16.2 15.3193 16.1937 15.3193 16.1305 15.3193C16.0674 15.3193 16.0737 15.2669 16.0105 15.2669H15.8905C15.8274 15.2669 15.8274 15.3193 15.7642 15.3193H15.6442C15.5811 15.3193 15.5811 15.232 15.5179 15.232C15.4547 15.232 15.4611 15.296 15.3979 15.296C15.3347 15.296 15.3347 15.2204 15.2779 15.2204C15.2211 15.2204 15.2147 15.3076 15.1579 15.3076C15.1011 15.3076 15.0947 15.3076 15.0316 15.3076C14.9684 15.3076 14.9747 15.3076 14.9116 15.3076C14.8484 15.3076 14.8484 15.3076 14.7916 15.3076C14.7347 15.3076 14.7284 15.36 14.6653 15.36C14.6021 15.36 14.6084 15.36 14.5453 15.36C14.4821 15.36 14.4821 15.2844 14.4253 15.2844C14.3684 15.2844 14.3621 15.3309 14.2989 15.3309C14.2358 15.3309 14.2421 15.3309 14.1789 15.3309C14.1158 15.3309 14.1032 15.2727 14.0716 15.2669C14.04 15.2611 14.0211 15.2378 13.9958 15.2145C13.9705 15.1913 13.9516 15.1796 13.9516 15.1389C13.9516 15.0982 13.8884 15.0575 13.8947 15.0167C13.9011 14.976 13.8947 14.8596 13.8947 14.8189ZM22.3074 22.2022C22.3074 22.2022 22.2442 22.2429 22.2126 22.2662C22.1811 22.2895 22.2126 22.3418 22.1558 22.3651L22.0611 22.4349C22.0611 22.4349 21.9726 22.4349 21.9411 22.4698C21.9095 22.5047 21.9411 22.5745 21.8968 22.5978L21.8021 22.6618C21.7642 22.6618 21.7389 22.72 21.7074 22.7375C21.6758 22.7549 21.6505 22.8015 21.6189 22.8247C21.5874 22.848 21.5305 22.8247 21.499 22.8538C21.4674 22.8829 21.3979 22.8538 21.36 22.8538C21.3221 22.8538 21.3032 22.9178 21.2716 22.9353C21.24 22.9527 21.2274 23.0225 21.1895 23.04C21.1516 23.0575 21.1011 23.04 21.0632 23.04C21.0253 23.04 20.9747 23.04 20.9368 23.04C20.899 23.04 20.8674 23.0924 20.8295 23.104C20.7916 23.1156 20.7411 23.104 20.7032 23.104C20.6653 23.104 20.6337 23.1447 20.5958 23.1505C20.5579 23.1564 20.5074 23.1505 20.4632 23.1505H20.3495C20.3053 23.1505 20.2737 23.1855 20.2295 23.1913L20.1158 23.2204C20.0716 23.2204 20.04 23.2669 19.9958 23.2669H19.8695C19.8316 23.2669 19.7874 23.2669 19.7495 23.2669C19.7116 23.2669 19.6674 23.3484 19.6295 23.3484C19.5916 23.3484 19.5474 23.2611 19.5032 23.2611H19.3832H19.1432C19.1053 23.2611 19.0547 23.3542 19.0168 23.3484C18.979 23.3425 18.9474 23.2727 18.9032 23.2727H18.7832C18.7453 23.2727 18.7074 23.2727 18.6695 23.2378H18.5495C18.5053 23.2378 18.4547 23.3018 18.4168 23.296C18.3789 23.2902 18.3158 23.2727 18.3158 23.2727C18.3158 23.2727 18.2274 23.2727 18.1895 23.2727C18.1516 23.2727 18.12 23.2204 18.0821 23.2087C18.0442 23.1971 18.0126 23.1564 17.9747 23.1447C17.9368 23.1331 17.8737 23.2204 17.8295 23.2087H17.7158C17.6779 23.2087 17.6653 23.0982 17.6274 23.0865C17.5895 23.0749 17.5263 23.1389 17.4884 23.1273C17.4505 23.1156 17.4189 23.0807 17.3811 23.0633L17.2674 23.0284L17.1537 22.9935C17.1176 22.9755 17.0837 22.954 17.0526 22.9295C17.0147 22.9295 16.9832 22.8887 16.9453 22.8771L16.8379 22.8305C16.8 22.8305 16.7874 22.7607 16.7495 22.7433C16.7116 22.7258 16.6421 22.7433 16.6105 22.7433C16.5789 22.7433 16.56 22.6735 16.5284 22.6502C16.4968 22.6269 16.4779 22.5804 16.4463 22.5629C16.4086 22.549 16.3726 22.5314 16.3389 22.5105C16.3074 22.5105 16.2253 22.5105 16.1874 22.5105L16.0926 22.4407C16.0611 22.4407 16.0926 22.336 16.0484 22.3127C16.0042 22.2895 15.9284 22.3127 15.8968 22.3127L15.7895 22.2196C15.7579 22.2196 15.7895 22.1207 15.7453 22.0975C15.7011 22.0742 15.6316 22.0975 15.6 22.0975C15.5684 22.0975 15.6 22.0044 15.5495 21.9811C15.5215 21.9544 15.492 21.9292 15.4611 21.9055C15.4286 21.8833 15.399 21.858 15.3726 21.8298C15.3726 21.8298 15.2968 21.7949 15.2716 21.7658C15.2391 21.7437 15.2095 21.7183 15.1832 21.6902L15.1137 21.5971C15.1137 21.568 15.1137 21.4865 15.1137 21.4575C15.1137 21.4284 14.9874 21.4575 14.9621 21.4575C14.9368 21.4575 14.9621 21.376 14.9179 21.3469C14.8984 21.3131 14.8816 21.2781 14.8674 21.2422L14.7853 21.1549C14.7853 21.1549 14.7221 21.1084 14.7032 21.0735C14.6842 21.0385 14.6147 21.0385 14.5895 21.0095C14.5642 20.9804 14.64 20.8873 14.6211 20.8582C14.6021 20.8291 14.4821 20.8582 14.4632 20.8175C14.4442 20.7767 14.4632 20.7185 14.4632 20.6836C14.4632 20.6487 14.4126 20.6313 14.3937 20.5964C14.3747 20.5615 14.3937 20.5149 14.3621 20.4858C14.3447 20.4519 14.3299 20.4169 14.3179 20.3811C14.3179 20.352 14.2484 20.3287 14.2295 20.2938C14.2105 20.2589 14.1537 20.2473 14.1411 20.2124C14.1284 20.1775 14.1411 20.1251 14.1411 20.096C14.1411 20.0669 14.0526 20.0436 14.04 20.0087C14.0274 19.9738 14.0905 19.9098 14.0779 19.8749C14.0653 19.84 13.9579 19.84 13.9453 19.8051C13.9326 19.7702 14.0084 19.7004 13.9958 19.6655C13.9832 19.6305 13.9389 19.6073 13.9263 19.5724C13.9137 19.5375 13.8505 19.5142 13.8379 19.4793C13.8253 19.4444 13.8379 19.3978 13.8379 19.3629C13.8379 19.328 13.8379 19.2873 13.8379 19.2465C13.8379 19.2058 13.8379 19.1709 13.8379 19.136C13.8379 19.1011 13.7558 19.0778 13.7432 19.0429C13.7305 19.008 13.7432 18.9615 13.7432 18.9265C13.7432 18.8916 13.6611 18.8625 13.6547 18.8276C13.6484 18.7927 13.7053 18.7404 13.6926 18.7055C13.68 18.6705 13.6547 18.6356 13.6484 18.6007C13.6421 18.5658 13.6168 18.5309 13.6105 18.4902C13.6042 18.4495 13.6105 18.4145 13.6105 18.3796C13.6105 18.3447 13.56 18.3098 13.56 18.2749C13.56 18.24 13.5158 18.1993 13.5095 18.1644C13.5032 18.1295 13.5663 18.0829 13.5663 18.048C13.5663 18.0131 13.5663 17.9724 13.5663 17.9316C13.5663 17.8909 13.5221 17.8618 13.5158 17.8269V17.7105C13.5158 17.6756 13.4716 17.6407 13.4653 17.6058C13.4589 17.5709 13.5032 17.5244 13.5032 17.4895C13.5032 17.4545 13.5032 17.4138 13.5032 17.3789C13.4998 17.3421 13.4998 17.3051 13.5032 17.2684C13.5032 17.2276 13.5032 17.1927 13.5032 17.1578C13.5032 17.1229 13.4147 17.0764 13.4147 17.0415C13.4147 17.0065 13.5032 16.9658 13.5032 16.9309C13.5032 16.896 13.4337 16.8495 13.44 16.8145C13.4463 16.7796 13.44 16.7331 13.44 16.6982C13.44 16.6633 13.5411 16.6342 13.5474 16.5993C13.544 16.5644 13.544 16.5294 13.5474 16.4945C13.5474 16.4538 13.5474 16.4073 13.5474 16.384C13.5474 16.3607 13.5916 16.32 13.6421 16.3025C13.6926 16.2851 13.7179 16.3025 13.7684 16.3025H13.8821C13.92 16.3025 13.9642 16.3375 14.0084 16.3375C14.0526 16.3375 14.0779 16.2909 14.1221 16.2909C14.1621 16.2884 14.2022 16.2884 14.2421 16.2909C14.28 16.2909 14.3179 16.2095 14.3558 16.2095C14.3937 16.2095 14.4379 16.2735 14.4821 16.2735H14.6021C14.64 16.2735 14.6779 16.2036 14.7221 16.2036C14.7663 16.2036 14.7979 16.2502 14.8421 16.2502C14.8863 16.2502 14.9179 16.2502 14.9621 16.2502H15.0758H15.1958C15.24 16.2502 15.2779 16.2502 15.3158 16.2502C15.3537 16.2502 15.3979 16.2851 15.4358 16.2851C15.4737 16.2851 15.5179 16.2851 15.5558 16.2851C15.5937 16.2851 15.6379 16.2851 15.6758 16.2851H15.7958C15.84 16.2851 15.8779 16.3316 15.9158 16.3316C15.9537 16.3316 15.9979 16.2327 16.0358 16.2327C16.0737 16.2327 16.1179 16.3258 16.1558 16.3258C16.1937 16.3258 16.2379 16.2909 16.2758 16.2909H16.3958C16.4337 16.2909 16.4779 16.2618 16.5158 16.2618H16.6358C16.6737 16.2618 16.7179 16.2327 16.7558 16.2327H16.8758C16.9137 16.2327 16.9579 16.2967 16.9958 16.2967C17.0337 16.2967 17.0779 16.2444 17.1158 16.2444C17.1537 16.2444 17.1979 16.3084 17.2358 16.3084C17.2737 16.3084 17.3179 16.2327 17.3558 16.2327H17.4758C17.5137 16.2327 17.5579 16.2327 17.5958 16.2327C17.6337 16.2327 17.6779 16.2793 17.7158 16.2793C17.7537 16.2793 17.7979 16.3084 17.8358 16.3084C17.8737 16.3084 17.9179 16.2793 17.9558 16.2793H18.0758H18.1958C18.24 16.2793 18.2779 16.2327 18.3221 16.2327C18.3663 16.2327 18.3979 16.2735 18.4421 16.2735C18.4863 16.2735 18.5179 16.2095 18.5621 16.2095C18.6063 16.2095 18.6379 16.2444 18.6821 16.2444C18.7263 16.2444 18.7642 16.2851 18.8021 16.2851C18.84 16.2851 18.8842 16.2211 18.9221 16.2211C18.96 16.2211 19.0042 16.2909 19.0421 16.2909H19.1621C19.2 16.2909 19.2442 16.2269 19.2821 16.2269H19.4021H19.5221H19.6421C19.6863 16.2269 19.7242 16.2676 19.7621 16.2676C19.8 16.2676 19.8442 16.2676 19.8821 16.2676C19.92 16.2676 19.9642 16.2967 20.0021 16.2967C20.04 16.2967 20.0842 16.2211 20.1221 16.2211C20.16 16.2211 20.2042 16.2211 20.2421 16.2211H20.3621C20.4063 16.2211 20.4442 16.2211 20.4821 16.2211H20.8421C20.8863 16.2211 20.9242 16.192 20.9621 16.192C21 16.192 21.0442 16.2327 21.0821 16.2327C21.12 16.2327 21.1642 16.1629 21.2084 16.1629C21.2526 16.1629 21.2842 16.1629 21.3284 16.1629C21.3726 16.1629 21.4042 16.2095 21.4484 16.2095H21.5684C21.6063 16.2095 21.6442 16.2095 21.6884 16.2095C21.7326 16.2095 21.7642 16.1455 21.8084 16.1455C21.8526 16.1455 21.8842 16.1455 21.9284 16.1455H22.0484H22.1684H22.2884H22.4084H22.4526V16.2909C22.4526 16.3433 22.4526 16.3433 22.4526 16.4015C22.4526 16.4596 22.4526 16.4538 22.4526 16.512C22.4526 16.5702 22.4526 16.5702 22.4526 16.6225C22.4526 16.6749 22.4526 16.6807 22.4526 16.7331C22.4526 16.7855 22.3768 16.7913 22.3768 16.8436C22.3768 16.896 22.4274 16.9018 22.4274 16.9542C22.4274 17.0065 22.4274 17.0124 22.4274 17.0705C22.4274 17.1287 22.4274 17.1229 22.4274 17.1811C22.4274 17.2393 22.4274 17.2335 22.4274 17.2916C22.4274 17.3498 22.4274 17.344 22.4274 17.4022C22.4274 17.4604 22.4274 17.4545 22.4274 17.5127C22.4274 17.5709 22.4274 17.5651 22.4274 17.6233C22.4274 17.6815 22.4274 17.6815 22.4274 17.7338C22.4274 17.7862 22.5032 17.792 22.5032 17.8444C22.5032 17.8967 22.4211 17.9025 22.4211 17.9549V18.0364C22.4211 18.0945 22.4211 18.0945 22.4211 18.1469V18.2575C22.4211 18.3156 22.4211 18.3156 22.4211 18.3738C22.4211 18.432 22.4779 18.4262 22.4779 18.4844C22.4779 18.5425 22.4021 18.5367 22.4021 18.5949C22.4021 18.6531 22.4968 18.6473 22.4968 18.7055C22.4968 18.7636 22.4337 18.7636 22.4337 18.816C22.4337 18.8684 22.4968 18.8742 22.4968 18.9265C22.4968 18.9789 22.4147 18.9847 22.4147 19.0371C22.4147 19.0895 22.4147 19.0953 22.4147 19.1476V19.2582C22.4147 19.3164 22.5032 19.3164 22.5032 19.3687C22.5032 19.4211 22.4211 19.4269 22.4211 19.4793C22.4211 19.5316 22.459 19.5375 22.459 19.5898C22.459 19.6422 22.459 19.648 22.459 19.7004C22.459 19.7527 22.4905 19.7585 22.4905 19.8109C22.4905 19.8633 22.4905 19.8691 22.4905 19.9273C22.4905 19.9855 22.4084 19.9796 22.4084 20.0378C22.4084 20.096 22.4084 20.0902 22.4084 20.1484C22.4084 20.2065 22.5032 20.2007 22.5032 20.2589C22.5032 20.3171 22.4463 20.3113 22.4463 20.3695C22.4463 20.4276 22.4463 20.4276 22.4463 20.48C22.4463 20.5324 22.5158 20.5382 22.5158 20.5905C22.5158 20.6429 22.5158 20.6487 22.5158 20.7011C22.5158 20.7535 22.4779 20.7593 22.4779 20.8116C22.4779 20.864 22.4779 20.8698 22.4779 20.9222C22.4779 20.9745 22.4779 20.9804 22.4779 21.0327C22.4779 21.0851 22.5347 21.0909 22.5347 21.1491C22.5347 21.2073 22.5347 21.2015 22.5347 21.2596C22.5347 21.3178 22.5347 21.312 22.5347 21.3702C22.5347 21.4284 22.4905 21.4225 22.4905 21.4807C22.4905 21.5389 22.5853 21.5389 22.5853 21.5913C22.5853 21.6436 22.5284 21.6495 22.5284 21.7018C22.5284 21.7542 22.5284 21.76 22.5284 21.8124C22.5284 21.8647 22.5284 21.8705 22.5284 21.9229C22.5284 21.9753 22.5284 21.9811 22.5284 22.0393C22.5284 22.0975 22.5284 22.08 22.5789 22.0975C22.5456 22.0915 22.5113 22.0915 22.4779 22.0975C22.4779 22.0975 22.3389 22.1789 22.3074 22.2022Z" fill="#2C2623"/>
</svg>
