<svg width="130" height="27" viewBox="0 0 130 27" fill="none" xmlns="http://www.w3.org/2000/svg">
<path d="M7.60117 3.96898V0.422379H1V1.34387V3.96898V5.05543V6.96951V8.60203H4.42715V9.68563H1V13.2322H7.60117V12.2851V9.68563V8.60203V6.0594V5.05543H4.17402V3.96898H7.60117Z" fill="#231815"/>
<path d="M11.8702 3.69026V6.2727H15.8747V6.95813H11.1449V3.00767H18.7102V0.422379H11.1449H8.27521V3.00767V6.95813V7.78577V9.54058H15.8747H18.7444V6.95813V6.2727V5.47351V3.69026H11.8702Z" fill="#231815"/>
<path d="M8.3833 10.2232V13.2322H10.7069V18.1895H13.716V13.2322H18.7785V10.2232H8.3833Z" fill="#ED6C00"/>
<path d="M15.3201 13.9802H14.2678V18.1895H15.3201V13.9802Z" fill="#231815"/>
<path d="M16.8644 18.1241L16.2074 18.2151L15.6528 14.0428L16.3098 13.9546L16.8644 18.1241Z" fill="#231815"/>
<path d="M18.7785 15.0155H17.1431V18.1895H18.7785V15.0155Z" fill="#231815"/>
<path d="M10.2661 14.7936H8.3833V18.1895H10.2661V14.7936Z" fill="#231815"/>
<path d="M4.36743 13.9802H2.40784V18.1895H4.36743V13.9802Z" fill="#231815"/>
<path d="M1.98975 14.5803H1V18.1895H1.98975V14.5803Z" fill="#231815"/>
<g filter="url(#filter0_d_858_77)">
<path d="M6.25589 14.4893C5.43679 14.4893 4.77127 15.1548 4.77127 15.9739C4.77127 16.6309 5.19789 17.1855 5.78662 17.3818C5.70698 17.5866 5.50221 17.8283 4.9988 17.9278V18.1468C4.9988 18.1468 5.82075 18.3516 6.69389 17.8255C7.69786 17.2197 7.74052 16.4318 7.74052 15.9711C7.74052 15.152 7.075 14.4865 6.25589 14.4865V14.4893Z" fill="#231815"/>
</g>
<path d="M56.0824 14.8324H56.9426V17.1626H56.0824V17.9393H58.8486V17.1626H57.9885V14.8324H58.8486V14.0557H56.0824V14.8324ZM24.566 14.7767C24.8574 14.7767 25.0889 14.9488 25.0889 15.1664H26.1348C26.1348 14.5212 25.4347 14 24.5688 14C23.703 14 23.0029 14.5212 23.0029 15.1664C23.0029 15.8748 23.6258 16.2922 24.4917 16.3884C24.8603 16.4288 25.0918 16.5781 25.0918 16.8337C25.0918 17.0512 24.8603 17.2233 24.5688 17.2233C24.2773 17.2233 24.0459 17.0512 24.0459 16.8337H23C23 17.4788 23.7001 18 24.566 18C25.4318 18 26.1319 17.4788 26.1319 16.8337C26.1319 16.1252 25.509 15.7078 24.6431 15.6116C24.2745 15.5712 24.043 15.4219 24.043 15.1664C24.043 14.9488 24.2745 14.7767 24.566 14.7767ZM55.6509 15.222C55.6509 14.5768 54.9508 14.0557 54.085 14.0557H52.1561V17.9418H53.202V16.3884H53.8535L54.4908 17.9418H55.5366L54.8365 16.2492C55.3195 16.0493 55.6509 15.6673 55.6509 15.2195V15.222ZM54.085 15.6116H53.202V14.8349H54.085C54.3765 14.8349 54.6079 15.007 54.6079 15.2245C54.6079 15.4421 54.3765 15.6142 54.085 15.6142V15.6116ZM59.4516 14.8324H60.6432V17.9418H61.6891V14.8324H62.8807V14.0557H59.4544V14.8324H59.4516ZM63.4322 17.9418H66.4441V17.1651H64.4781V16.3884H66.4441V15.6116H64.4781V14.8349H66.4441V14.0582H63.4322V17.9443V17.9418ZM33.8103 15.222C33.8103 14.5768 33.1102 14.0557 32.2443 14.0557H30.3155V17.9418H31.3613V16.3884H32.0129L32.6501 17.9418H33.696L32.9959 16.2492C33.4788 16.0493 33.8103 15.6673 33.8103 15.2195V15.222ZM32.2443 15.6116H31.3613V14.8349H32.2443C32.5358 14.8349 32.7673 15.007 32.7673 15.2245C32.7673 15.4421 32.5358 15.6142 32.2443 15.6142V15.6116ZM70.7362 15.222C70.7362 14.5768 70.0361 14.0557 69.1703 14.0557H67.2414V17.9418H68.2873V16.3884H68.9388L69.576 17.9418H70.6219L69.9218 16.2492C70.4047 16.0493 70.7362 15.6673 70.7362 15.2195V15.222ZM69.1674 15.6116H68.2844V14.8349H69.1674C69.4589 14.8349 69.6903 15.007 69.6903 15.2245C69.6903 15.4421 69.4589 15.6142 69.1674 15.6142V15.6116ZM34.4247 17.9418H37.4366V17.1651H35.4706V16.3884H37.4366V15.6116H35.4706V14.8349H37.4366V14.0582H34.4247V17.9443V17.9418ZM44.3177 16.5832H44.2948L43.6576 15.4168L42.9203 14.0557H41.6916V17.9418H42.7374V15.4168H42.7603L44.1348 17.9418H45.3636V14.0557H44.3177V16.5806V16.5832ZM49.9215 16.6515L49.1213 14.0582H48.2755L47.4753 16.6515L46.8381 14.0582H45.7922L46.4295 16.6515L46.7524 17.9418H47.9268L48.3269 16.6515L48.6955 15.4396L49.4642 17.9418H50.6387L50.9616 16.6515L51.5989 14.0582H50.553L49.9157 16.6515H49.9215ZM28.2523 14.7767C28.5437 14.7767 28.7752 14.9488 28.7752 15.1664H29.8211C29.8211 14.5212 29.121 14 28.2551 14C27.3893 14 26.6892 14.5212 26.6892 15.1664V16.8337C26.6892 17.4788 27.3893 18 28.2551 18C29.121 18 29.8211 17.4788 29.8211 16.8337H28.7752C28.7752 17.0512 28.5437 17.2233 28.2523 17.2233C27.9608 17.2233 27.7293 17.0512 27.7293 16.8337V15.1664C27.7293 14.9488 27.9608 14.7767 28.2523 14.7767ZM37.9995 17.9418H41.0115V17.1651H39.0454V16.3884H41.0115V15.6116H39.0454V14.8349H41.0115V14.0582H37.9995V17.9443V17.9418ZM110.32 14.0557L110.005 14.8324L109.368 16.3858V17.9393H110.414V16.7729H111.92V17.9393H112.966V16.3858L112.014 14.0557H110.325H110.32ZM110.565 15.9987L111.048 14.8324H111.28L111.757 15.9987H110.565ZM113.397 14.8324H114.257V17.1626H113.397V17.9393H116.164V17.1626H115.303V14.8324H116.164V14.0557H113.397V14.8324ZM105.759 14.8324H106.951V17.9418H107.996V14.8324H109.188V14.0557H105.762V14.8324H105.759ZM123.182 14.0557L122.867 14.8324L122.23 16.3858V17.9393H123.276V16.7729H124.782V17.9393H125.828V16.3858L124.876 14.0557H123.187H123.182ZM123.428 15.9987L123.91 14.8324H124.142L124.619 15.9987H123.428ZM72.7337 14.7767C73.0252 14.7767 73.2566 14.9488 73.2566 15.1664H74.3025C74.3025 14.5212 73.6024 14 72.7365 14C71.8707 14 71.1706 14.5212 71.1706 15.1664C71.1706 15.8748 71.7935 16.2922 72.6594 16.3884C73.028 16.4288 73.2595 16.5781 73.2595 16.8337C73.2595 17.0512 73.028 17.2233 72.7365 17.2233C72.4451 17.2233 72.2136 17.0512 72.2136 16.8337H71.1677C71.1677 17.4788 71.8678 18 72.7337 18C73.5995 18 74.2996 17.4788 74.2996 16.8337C74.2996 16.1252 73.6767 15.7078 72.8108 15.6116C72.4422 15.5712 72.2107 15.4219 72.2107 15.1664C72.2107 14.9488 72.4422 14.7767 72.7337 14.7767ZM100.452 17.9418H101.498V16.3884H103.464V15.6116H101.498V14.8349H103.464V14.0582H100.452V17.9443V17.9418ZM121.293 14.0557L120.656 16.649L119.856 14.0557H119.01L118.21 16.649L117.572 14.0557H116.526L117.164 16.649L117.487 17.9393H118.661L119.061 16.649L119.43 15.4371L120.198 17.9393H121.373L121.696 16.649L122.333 14.0557H121.287H121.293ZM128.954 14.0557V16.5806H128.931L128.294 15.4143L127.557 14.0531H126.328V17.9393H127.374V15.4143H127.397L128.771 17.9393H130V14.0531H128.954V14.0557ZM98.3835 14C97.5148 14 96.8175 14.5212 96.8175 15.1664V16.8337C96.8175 17.4788 97.5177 18 98.3835 18C99.2494 18 99.9495 17.4788 99.9495 16.8337V15.1664C99.9495 14.5212 99.2494 14 98.3835 14ZM98.9064 16.8337C98.9064 17.0512 98.675 17.2233 98.3835 17.2233C98.092 17.2233 97.8606 17.0512 97.8606 16.8337V15.1664C97.8606 14.9488 98.092 14.7767 98.3835 14.7767C98.675 14.7767 98.9064 14.9488 98.9064 15.1664V16.8337ZM82.9753 16.8337C82.9753 17.0512 82.7439 17.2233 82.4524 17.2233C82.1609 17.2233 81.9294 17.0512 81.9294 16.8337V14.0557H80.8836V16.8337C80.8836 17.4788 81.5837 18 82.4495 18C83.3154 18 84.0155 17.4788 84.0155 16.8337V14.0557H82.9696V16.8337H82.9753ZM78.8775 14.7767C79.169 14.7767 79.4005 14.9488 79.4005 15.1664H80.4464C80.4464 14.5212 79.7462 14 78.8804 14C78.0145 14 77.3144 14.5212 77.3144 15.1664V16.8337C77.3144 17.4788 78.0145 18 78.8804 18C79.7462 18 80.4464 17.4788 80.4464 16.8337V15.7027H78.8804V16.4238H79.4033V16.8362C79.4033 17.0538 79.1719 17.2258 78.8804 17.2258C78.5889 17.2258 78.3574 17.0538 78.3574 16.8362V15.1689C78.3574 14.9513 78.5889 14.7793 78.8804 14.7793L78.8775 14.7767ZM84.5156 14.8324H85.3757V17.1626H84.5156V17.9393H87.2817V17.1626H86.4216V14.8324H87.2817V14.0557H84.5156V14.8324ZM92.8826 14.0557H91.3167V17.9418H92.8826C93.7513 17.9418 94.4486 17.4206 94.4486 16.7755V15.222C94.4486 14.5768 93.7485 14.0557 92.8826 14.0557ZM93.4056 16.7755C93.4056 16.993 93.1741 17.1651 92.8826 17.1651H92.3597V14.8349H92.8826C93.1741 14.8349 93.4056 15.007 93.4056 15.2245V16.778V16.7755ZM88.8848 14.0557H87.839V17.9418H90.8194V17.1651H88.8848V14.0557Z" fill="#231815"/>
<path d="M78.9361 8.96327C78.8912 9.2341 78.745 9.6954 78.2954 10.1478C77.753 10.6924 77.9778 11.6596 78.804 11.3888C79.5685 11.1388 79.4111 9.68944 79.0795 8.94541C79.0485 8.87696 78.9502 8.88886 78.9389 8.96624L78.9361 8.96327ZM80.0013 8.48411C79.9479 8.43054 79.8607 8.48411 79.8776 8.55851C79.945 8.88886 80.0181 9.49004 79.8158 10.0406C79.442 11.0614 80.8078 11.2966 80.8528 10.2579C80.8865 9.49302 80.3076 8.79958 80.0013 8.48411ZM88.9663 6.24011L87.9602 5.63595C87.9349 5.62107 87.9012 5.62703 87.8815 5.65084L87.5274 6.09428H83.7671C83.7727 5.77583 83.7699 5.47822 83.7671 5.18953H87.2014V5.44548C87.2014 5.50798 87.2548 5.55858 87.3138 5.54667L88.6262 5.2937C88.6712 5.28477 88.7049 5.2431 88.7049 5.19251V2.90089C88.7049 2.86815 88.6881 2.83542 88.6628 2.81756L87.7719 2.1896C87.7325 2.15983 87.6763 2.16876 87.6454 2.20745L87.3194 2.60625H83.7559C83.7559 2.33245 83.7531 2.10329 83.7531 1.95151C84.8969 1.89793 87.5667 1.73722 88.4323 1.38306C88.4941 1.35628 88.5166 1.27592 88.4717 1.22235L87.5021 0.0348774C87.474 -0.000836169 87.4262 -0.00976456 87.3869 0.0110684C87.0524 0.189636 85.473 1.0051 83.2809 1.60925C83.2753 1.60925 83.2725 1.61223 83.2697 1.6152L82.6064 1.42771C82.5446 1.40985 82.4856 1.46044 82.4856 1.52592V3.29672L81.3811 2.42769C81.353 2.40388 81.3109 2.41281 81.294 2.44852C81.2097 2.60625 80.9736 3.0497 80.6448 3.60326H79.2678C79.2453 3.60326 79.2368 3.5735 79.2537 3.56159C79.546 3.30862 81.0355 1.99912 81.5807 1.07652C81.5975 1.04676 81.5891 1.0051 81.5582 0.987239L80.2092 0.162851C80.1783 0.144994 80.139 0.156899 80.1249 0.192612C79.9591 0.591414 79.0626 2.72828 78.3825 3.54374C78.3684 3.56159 78.3628 3.5854 78.3713 3.60623L78.8237 4.97525C78.835 5.00799 78.8659 5.02585 78.8968 5.01692C79.0542 4.96632 79.5319 4.81454 80.0013 4.63002C79.4392 5.47227 78.7759 6.32642 78.1633 6.75796C78.138 6.77581 78.1296 6.80557 78.1408 6.83533L78.7029 8.27281C78.7141 8.30554 78.7478 8.32042 78.7787 8.30852C79.0626 8.19543 80.4031 7.65377 81.2097 7.18057C81.2097 7.26092 81.2097 7.34128 81.1985 7.4127C81.1001 8.10317 82.1512 8.28173 82.272 7.42163C82.3844 6.61212 81.5863 5.95738 81.0158 5.8294C80.9708 5.82047 80.9315 5.86512 80.9455 5.91273C80.9905 6.04368 81.0551 6.26094 81.1113 6.49903L79.5094 6.71331C79.4701 6.71927 79.4504 6.66272 79.4842 6.64189C79.9928 6.32642 81.561 5.26394 82.4884 3.61219V6.10618C82.4884 7.4633 82.3198 10.1031 81.5273 11.5436C81.4907 11.612 81.5666 11.6835 81.6256 11.6358C81.9882 11.3442 82.6064 10.7609 83.028 9.93646V11.8977C83.028 11.9602 83.0814 12.0078 83.1404 11.9989L84.3095 11.7906C84.3545 11.7817 84.391 11.74 84.391 11.6894V9.33826H84.9025V11.609C84.9025 11.6745 84.9615 11.7251 85.0234 11.7073L85.6585 11.5287C85.7007 11.5168 85.7288 11.4751 85.7288 11.4305V9.33826H86.1644V11.609C86.1644 11.6745 86.2234 11.7251 86.2852 11.7073L86.9203 11.5287C86.9625 11.5168 86.9906 11.4751 86.9906 11.4305V9.33826H87.474V11.2222H87.0805C87.0468 11.2222 87.0271 11.2608 87.0468 11.2906L87.4852 11.9692C87.4852 11.9692 87.488 11.9692 87.4908 11.9721C87.5049 11.99 87.5302 12.0019 87.5555 11.9959L88.9522 11.609C88.9803 11.6001 89 11.5733 89 11.5436V6.30856C89 6.28475 88.9888 6.26094 88.9691 6.24904L88.9663 6.24011ZM87.2042 3.35029V4.4455H83.7699C83.7699 4.0973 83.7699 3.71635 83.7643 3.35029H87.2042ZM84.8997 8.62994H84.3882V6.79367H84.8997V8.62994ZM86.1644 8.62994H85.7288V6.79367H86.1644V8.62994ZM87.4768 8.62994H86.9934V6.79367H87.4768V8.62994ZM81.9629 9.74301C82.2495 9.29362 81.8926 8.20733 80.6954 7.99603C80.6308 7.98412 80.583 8.0615 80.6223 8.11805C80.7966 8.37697 81.1254 8.92755 81.1366 9.3829C81.1507 9.99896 81.665 10.2103 81.9657 9.74004L81.9629 9.74301Z" fill="#231815"/>
<path d="M33.0386 3.09851C32.2731 2.48565 31.3896 2.19564 30.8284 2.06432C30.673 2.02875 30.5636 2.20659 30.6759 2.31602C30.9464 2.57594 31.3032 2.97539 31.6054 3.50344L25.7202 3.61288C25.7202 3.61288 28.3045 2.74284 29.824 1.17512C29.9132 1.0821 29.8845 0.934359 29.7636 0.879639L27.8498 0.0178079C27.7635 -0.0204957 27.6599 0.00412802 27.6052 0.0807352C27.2225 0.619722 25.6425 2.45009 23.1158 3.40768C23.018 3.44324 22.9719 3.54995 23.018 3.64023L23.8554 5.30918C23.8986 5.39399 23.9935 5.44324 24.0914 5.42956C24.9634 5.30918 29.1132 4.90152 31.9018 4.11629C31.9766 4.30508 32.0457 4.49933 32.1004 4.71C32.3594 5.73873 33.1307 5.69495 33.6343 5.45145C34.1379 5.20795 34.2732 4.08346 33.0386 3.09304V3.09851ZM32.9753 6.18469L31.7148 5.65938C31.6716 5.64023 31.6198 5.6457 31.5795 5.67033L30.9234 6.08893C30.8859 6.11355 30.8601 6.15459 30.8601 6.19837V6.30234H25.8152V6.22299C25.8152 6.15733 25.7634 6.09987 25.6943 6.09167L23.8727 5.86458C23.7892 5.85364 23.7144 5.91656 23.7144 5.99591V10.8659C23.7144 10.9398 23.7777 11 23.8554 11H25.6771C25.7548 11 25.8181 10.9398 25.8181 10.8659V10.6416H30.8629V10.8304C30.8629 10.9097 30.9378 10.9726 31.0212 10.9617L32.9378 10.7237C33.0069 10.7155 33.0587 10.658 33.0587 10.5923V6.30507C33.0587 6.25309 33.0271 6.20384 32.9753 6.18195V6.18469ZM30.8601 9.62107H25.8152V7.31191H30.8601V9.62107Z" fill="#231815"/>
<path d="M65.3363 1.09531C65.4035 1.58624 65.4595 2.03899 66.0083 2.12082C66.6159 2.21355 67.0079 1.49624 66.5627 0.920756C66.2407 0.508916 65.4539 0.274359 65.0339 0.176172C64.9555 0.15708 64.8995 0.247085 64.9527 0.307088C65.1011 0.476188 65.2915 0.754384 65.3391 1.09531H65.3363ZM68.0551 6.11375C67.7835 5.82737 67.3467 5.69918 66.9575 5.64191V5.11279C67.4363 4.23729 67.7667 3.33179 67.8255 3.15996C67.8311 3.14087 67.8451 3.1245 67.8619 3.1136L68.1643 2.89813C68.2175 2.85995 68.2203 2.78358 68.1699 2.74267L67.2375 1.9899C67.1955 1.95717 67.1367 1.9599 67.1003 1.99808L66.6271 2.47538H64.1267C64.0595 2.47538 64.0063 2.5272 64.0063 2.59266V3.2936C64.0063 3.35906 64.0595 3.41088 64.1267 3.41088H66.1063C65.9663 4.25365 65.5043 6.06193 64.0259 7.28926C63.9699 7.33563 64.0119 7.42018 64.0847 7.40927C64.3675 7.36018 64.8603 7.24017 65.3671 6.94288V10.8922C65.3671 10.9576 65.4287 11.0095 65.4959 10.9985L66.8623 10.8022C66.9183 10.794 66.9575 10.7476 66.9575 10.6958V6.34285C67.0303 6.49013 67.0891 6.66196 67.1199 6.86106C67.2123 7.44473 67.6855 7.56473 67.9683 7.45291C68.3603 7.29472 68.6375 6.73833 68.0523 6.12739L68.0551 6.11375ZM74.8452 8.67206C74.8368 8.62024 74.7696 8.6066 74.7388 8.65024L74.19 9.43028C74.1144 9.53938 73.9884 9.60484 73.854 9.60484H73.3584C73.2128 9.60484 73.0952 9.49028 73.0952 9.34846V7.32472L74.302 7.12289C74.3524 7.11471 74.3916 7.07107 74.3916 7.01925V0.648014C74.3916 0.607103 74.3692 0.568919 74.3328 0.5471L73.4032 0.0152549C73.3584 -0.00929182 73.3024 -0.00383699 73.266 0.028892L72.7592 0.454368C72.734 0.476187 72.7172 0.508916 72.7172 0.541645V0.612558H70.1607V0.451641C70.1607 0.391638 70.1159 0.342544 70.0543 0.33709L68.7411 0.192537C68.6711 0.184354 68.6095 0.238903 68.6095 0.307088V7.26199C68.6095 7.32745 68.6627 7.37927 68.7299 7.37927H69.7547C69.6903 8.17294 69.3655 9.6212 67.9431 10.7367C67.8591 10.8022 67.9235 10.9331 68.0271 10.9113C68.5059 10.8104 69.3291 10.5458 70.0627 9.85576C70.9252 9.04299 71.208 7.67928 71.292 7.09562H71.614V10.2649C71.614 10.6222 71.9108 10.9113 72.2804 10.9113H73.5628C74.2656 10.9113 74.9852 10.9413 74.9992 10.243C75.0104 9.70302 74.8984 8.9748 74.848 8.67479L74.8452 8.67206ZM72.7172 6.21466H70.1607V5.22188H72.7172V6.21466ZM72.7172 4.34639H70.1607V3.35361H72.7172V4.34639ZM72.7172 2.48084H70.1607V1.48806H72.7172V2.48084Z" fill="#231815"/>
<path d="M109.366 4.69706C109.792 4.64772 110.56 4.50517 111.303 4.09946C112.224 3.60054 112.737 2.7754 113.024 2.02428H114.458C114.356 3.0742 114.023 3.32366 113.531 3.32366H112.689C112.62 3.32366 112.587 3.4059 112.641 3.44428C113.162 3.80614 113.135 4.46953 113.108 4.69432C113.102 4.73544 113.138 4.77108 113.183 4.77108C114.086 4.76011 115.21 4.57919 115.615 4.09946C116.002 3.63891 116.203 2.18053 116.227 1.98316C116.227 1.96945 116.236 1.95575 116.248 1.94478L116.506 1.69806C116.536 1.66791 116.533 1.6213 116.497 1.59389L115.21 0.686515C115.181 0.664584 115.139 0.667325 115.112 0.689256L114.614 1.10868H113.285C113.354 0.76053 113.375 0.494622 113.381 0.379487C113.381 0.34385 113.357 0.313695 113.318 0.308213L111.57 0.00118514C111.519 -0.00703882 111.477 0.0285983 111.48 0.0752007C111.495 0.245162 111.519 0.63443 111.486 1.10868H109.39C109.348 1.10868 109.315 1.13883 109.315 1.17721V1.953C109.315 1.99138 109.348 2.02154 109.39 2.02154H111.354C111.24 2.51223 111.045 3.01115 110.715 3.41139C110.251 3.97336 109.657 4.36536 109.309 4.56822C109.24 4.6066 109.279 4.70529 109.36 4.69706H109.366ZM108.646 4.31602V3.46073C108.646 3.42783 108.616 3.40042 108.58 3.40042H107.741V0.299989C107.741 0.267093 107.714 0.23968 107.681 0.236939L106.002 0.0395636C105.96 0.034081 105.924 0.0642355 105.924 0.102614V3.40042H105.066C105.03 3.40042 105 3.42783 105 3.46073V4.31602C105 4.34892 105.03 4.37633 105.066 4.37633H105.924V10.9363C105.924 10.9747 105.96 11.0048 106.005 10.9994L107.684 10.7883C107.72 10.7828 107.744 10.7581 107.744 10.7252V4.37633H108.583C108.619 4.37633 108.649 4.34892 108.649 4.31602H108.646ZM116.968 6.21849L115.96 5.57977C115.93 5.56058 115.891 5.56332 115.864 5.58799L115.582 5.83745H114.857C114.869 5.51946 114.866 5.28371 114.863 5.17679C114.863 5.14116 114.833 5.11374 114.794 5.10826L113.564 4.99861C113.519 4.99587 113.48 5.02602 113.48 5.06714V5.83471H112.931C112.89 5.83471 112.857 5.86486 112.857 5.90324V6.64614C112.857 6.68452 112.89 6.71467 112.931 6.71467H113.48V6.96139C113.48 7.62753 113.087 9.62321 112.44 10.5854C112.398 10.6485 112.479 10.7225 112.548 10.6786C113.045 10.3716 113.975 9.6753 114.38 8.56506C114.602 7.95649 114.722 7.29309 114.791 6.71467H115.288C115.306 7.53433 115.267 8.98449 114.836 9.71642C114.824 9.73835 114.797 9.75205 114.767 9.75205H113.906C113.87 9.75205 113.855 9.79043 113.879 9.81236C114.041 9.94121 114.383 10.2811 114.44 10.8486C114.443 10.8842 114.473 10.9116 114.512 10.9116C114.797 10.9199 115.897 10.8842 116.299 9.92202C116.74 8.87483 116.722 6.94494 116.719 6.73386C116.719 6.72016 116.722 6.70919 116.731 6.69823L116.989 6.30896C117.01 6.2788 117.001 6.23768 116.968 6.21575V6.21849ZM112.491 6.7366C112.491 6.7366 112.494 6.71193 112.503 6.70097L112.761 6.3117C112.782 6.28155 112.773 6.24043 112.74 6.21849L111.732 5.57977C111.702 5.56058 111.663 5.56332 111.636 5.58799L111.354 5.83745H110.706C110.718 5.51946 110.715 5.28371 110.712 5.17679C110.712 5.14116 110.682 5.11374 110.644 5.10826L109.414 4.99861C109.369 4.99587 109.33 5.02602 109.33 5.06714V5.83471H108.502C108.46 5.83471 108.427 5.86486 108.427 5.90324V6.64614C108.427 6.68452 108.46 6.71467 108.502 6.71467H109.33V6.96139C109.33 7.62753 108.937 9.62321 108.29 10.5854C108.248 10.6485 108.329 10.7225 108.397 10.6786C108.895 10.3716 109.825 9.6753 110.23 8.56506C110.452 7.95649 110.572 7.29309 110.641 6.71467H111.06C111.078 7.53433 111.039 8.98449 110.608 9.71642C110.596 9.73835 110.569 9.75205 110.539 9.75205H109.678C109.642 9.75205 109.627 9.79043 109.651 9.81236C109.813 9.94121 110.155 10.2811 110.212 10.8486C110.215 10.8842 110.245 10.9116 110.284 10.9116C110.569 10.9199 111.669 10.8842 112.071 9.92202C112.512 8.87483 112.494 6.94494 112.491 6.73386V6.7366Z" fill="#231815"/>
<path d="M127.748 7.24439L126.79 6.80978C126.745 6.79065 126.696 6.79885 126.663 6.83438L126.268 7.25259C126.249 7.27172 126.238 7.29905 126.238 7.32639V7.40565H122.814V7.24439C122.814 7.18972 122.773 7.14052 122.715 7.13505L121.445 6.99019C121.379 6.98199 121.321 7.03392 121.321 7.09952V10.8907C121.321 10.9508 121.371 11 121.431 11H122.701C122.762 11 122.812 10.9508 122.812 10.8907V10.7595H126.235V10.877C126.235 10.9453 126.298 10.9973 126.364 10.9863L127.717 10.7485C127.77 10.7403 127.808 10.6939 127.808 10.6392V7.34279C127.808 7.29905 127.783 7.26079 127.745 7.24439H127.748ZM126.238 9.89846H122.814V9.51033H126.238V9.89846ZM126.238 8.65206H122.814V8.26392H126.238V8.65206ZM129.912 2.69064C127.22 2.25877 125.605 1.29937 125.059 0.924898C125.097 0.878431 125.133 0.829231 125.172 0.78003C125.211 0.73083 125.189 0.65703 125.131 0.63243L123.576 0.00649435C123.527 -0.012639 123.469 0.011961 123.449 0.0611612C123.287 0.490296 122.425 2.29977 119.005 3.98351C118.997 3.98898 118.999 3.99991 119.008 3.99991C119.149 3.99171 119.634 3.95891 120.302 3.80857V6.82618C120.302 6.86172 120.333 6.89178 120.369 6.89178H121.691C121.727 6.89178 121.757 6.86172 121.757 6.82618V6.66765H127.193V6.82072C127.193 6.86172 127.231 6.89452 127.273 6.88632L128.678 6.63485C128.711 6.62938 128.733 6.60205 128.733 6.56925V3.97531C128.896 4.04364 129.023 4.09284 129.103 4.12291C129.155 4.14204 129.211 4.11471 129.227 4.06278C129.418 3.46417 129.774 3.04597 129.972 2.84644C130.028 2.79177 129.995 2.69884 129.92 2.6879L129.912 2.69064ZM121.754 5.81211V4.67504H122.152C122.227 4.79804 122.304 4.97298 122.32 5.18891C122.34 5.43218 122.387 5.66178 122.508 5.81211H121.754ZM123.886 5.81211H123.32C123.491 5.58798 123.419 5.19711 123.27 4.99758C123.16 4.85271 123.027 4.75158 122.889 4.67504H123.888V5.81211H123.886ZM125.509 5.81211H125.117V4.67504H125.912C125.865 4.94838 125.754 5.39391 125.509 5.81211ZM127.19 5.81211H126.213C126.494 5.63445 126.806 5.40485 127.002 5.16431C127.033 5.12605 127.024 5.07138 126.983 5.04405L126.373 4.67231H127.19V5.80938V5.81211ZM127.215 3.67191C127.198 3.68557 127.19 3.70197 127.19 3.72384V3.81404H121.754V3.61451C121.754 3.58171 121.73 3.55164 121.696 3.54891L121.362 3.51064C121.754 3.37397 122.169 3.19904 122.591 2.97491V3.46144C122.591 3.51611 122.635 3.55984 122.69 3.55984H126.03C126.086 3.55984 126.13 3.51611 126.13 3.46144V2.79724C126.13 2.74257 126.086 2.69884 126.03 2.69884H123.071C123.656 2.33804 124.236 1.8761 124.761 1.28843C125.498 2.2041 126.605 2.92297 127.529 3.41224L127.215 3.67191Z" fill="#231815"/>
<path d="M96.9923 7.53307C97.5026 7.44255 98.1831 7.24233 98.6636 6.80073C98.6875 6.77879 98.6845 6.74039 98.6576 6.72119L97.637 5.96691C97.6071 5.94497 97.5623 5.9532 97.5474 5.98611C97.4638 6.15891 97.1952 6.64713 96.6998 7.03113C96.4223 6.61148 96.1149 6.27137 95.9 6.05743C96.0612 5.93126 96.1865 5.81332 96.282 5.70909H98.6546C98.6934 5.70909 98.7233 5.68166 98.7233 5.646V5.07001C98.7233 5.03435 98.6934 5.00692 98.6546 5.00692H93.2618C93.2618 4.93287 93.2618 4.85881 93.2618 4.79024C93.2618 4.45287 93.2618 4.01402 93.2588 3.57791H94.0377V4.03596C94.0377 4.41996 94.3779 4.73264 94.7958 4.73264H97.6489C97.6757 4.73264 97.7026 4.71619 97.7116 4.69424L98.0309 3.92899C98.0488 3.88785 98.016 3.84671 97.9682 3.84671H95.8493C95.6941 3.84671 95.5687 3.73151 95.5687 3.58888V3.58065H97.2699C97.3087 3.58065 97.3415 3.55048 97.3415 3.51483V2.93335C97.3415 2.89769 97.3087 2.86752 97.2699 2.86752H95.5687V2.48352H97.4131C97.428 2.48352 97.443 2.47804 97.4579 2.4753C97.6489 2.85106 97.6907 3.21312 97.6966 3.3914C97.6966 3.44077 97.7593 3.46546 97.8011 3.43528C98.2219 3.11437 98.771 2.44238 98.9412 2.22844C98.971 2.19004 98.965 2.13793 98.9262 2.10776L98.013 1.40559C97.9772 1.37817 97.9235 1.37817 97.8876 1.40559L97.44 1.77313C97.44 1.77313 97.4221 1.76765 97.4131 1.76765H95.8761V1.30137H97.6071C97.6459 1.30137 97.6757 1.27394 97.6757 1.23828V0.637602C97.6757 0.601945 97.6459 0.574517 97.6071 0.574517H95.8761V0.237149C95.8761 0.19875 95.8463 0.168579 95.8045 0.163093L94.4406 0.00949472C94.3929 0.00400906 94.3481 0.0396658 94.3481 0.083551V1.7649H92.9872L91.865 1.51256C91.7934 1.49611 91.7248 1.54548 91.7248 1.61405V5.70086C91.7248 7.05307 91.9814 9.53259 91.0085 10.8382C90.9816 10.8738 91.0234 10.9205 91.0652 10.904C91.4263 10.7641 92.3425 10.2896 92.7693 8.98677C92.9782 8.35043 93.0976 7.73055 93.1662 7.15181C93.605 7.05307 94.4048 6.84462 95.1061 6.52919C95.13 6.51822 95.1509 6.50451 95.1748 6.49354C95.2016 6.52371 95.2285 6.55936 95.2554 6.59228C95.0793 6.88302 94.5749 7.50838 93.22 8.323C93.1722 8.35317 93.1931 8.42174 93.2528 8.42174C93.6915 8.40803 94.7898 8.29283 95.8612 7.55501C95.8672 7.57147 95.8731 7.58792 95.8821 7.60438C95.518 8.0542 94.6376 8.97031 93.026 9.66699C92.9693 9.69167 92.9902 9.76847 93.0499 9.76847C93.593 9.76573 94.9002 9.67247 95.9388 8.96482C95.8761 9.20619 95.7896 9.41465 95.7179 9.56824C95.6404 9.72733 95.4673 9.83156 95.2763 9.83156H94.6048C94.56 9.83156 94.5421 9.88641 94.5809 9.90836C95.2792 10.3061 95.3061 10.7778 95.2942 10.9369C95.2942 10.9671 95.318 10.9945 95.3509 10.9945H96.291C96.7804 10.9945 97.5534 9.82881 97.2848 8.40529C97.2281 8.10358 97.1177 7.81284 96.9834 7.5413L96.9923 7.53307ZM94.0377 2.48078V2.86478H93.2558C93.2558 2.72764 93.2558 2.59872 93.2558 2.48078H94.0407H94.0377ZM93.211 6.78428C93.2438 6.40302 93.2588 6.04097 93.2618 5.70909H94.7599C94.4884 6.00257 93.9691 6.47159 93.211 6.78428ZM102.937 0.316691L101.356 0.00126624C101.308 -0.00696224 101.263 0.0259517 101.263 0.0698369V9.84801C101.263 9.88641 101.23 9.91933 101.185 9.91933H100.571C100.529 9.91933 100.511 9.96595 100.541 9.99064C100.726 10.1525 101.159 10.5611 101.269 10.9451C101.278 10.9781 101.308 11 101.344 11H101.824C101.994 11 103 10.8793 103 9.7959V0.385262C103 0.352348 102.976 0.32492 102.94 0.316691H102.937ZM97.3385 7.71135C97.2818 7.69489 97.237 7.75798 97.2788 7.79912C97.4997 8.01032 97.8518 8.43272 97.8459 8.97854C97.8399 9.57099 98.0727 10.0949 98.6129 10.0592C99.2515 10.0181 99.4575 9.43933 98.8785 8.66311C98.4577 8.09809 97.7116 7.82106 97.3355 7.71135H97.3385ZM100.854 8.41626V2.34364C100.854 2.31073 100.827 2.2833 100.792 2.27781L99.4754 2.1489C99.4336 2.14616 99.3978 2.17633 99.3978 2.21473V8.61374C99.3978 8.65488 99.4366 8.68505 99.4813 8.67683L100.797 8.4766C100.83 8.47111 100.857 8.44369 100.857 8.41352L100.854 8.41626Z" fill="#231815"/>
<path d="M42.53 3.99958H44.9391C44.9692 3.99958 44.9937 3.97301 44.9937 3.94053V3.44161C44.9937 3.40914 44.9692 3.38257 44.9391 3.38257H42.53C42.5 3.38257 42.4754 3.40914 42.4754 3.44161V3.94053C42.4754 3.97301 42.5 3.99958 42.53 3.99958ZM42.53 3.11097H44.9391C44.9692 3.11097 44.9937 3.0844 44.9937 3.05192V2.553C44.9937 2.52053 44.9692 2.49396 44.9391 2.49396H42.53C42.5 2.49396 42.4754 2.52053 42.4754 2.553V3.05192C42.4754 3.0844 42.5 3.11097 42.53 3.11097ZM42.53 2.10722H44.9391C44.9692 2.10722 44.9937 2.08066 44.9937 2.04818V1.54926C44.9937 1.51679 44.9692 1.49022 44.9391 1.49022H42.53C42.5 1.49022 42.4754 1.51679 42.4754 1.54926V2.04818C42.4754 2.08066 42.5 2.10722 42.53 2.10722ZM43.3358 0.955873C43.445 1.34556 43.7592 1.42527 44.0432 1.2629C44.3273 1.10053 44.401 0.690176 44.0978 0.39791C43.8138 0.123356 43.262 0.123356 43.0326 0.135165C42.9916 0.135165 42.9725 0.191256 42.9998 0.223731C43.2074 0.46581 43.2375 0.604562 43.3358 0.955873ZM44.1634 6.56502L44.9473 6.40266C44.9801 6.39675 45.0047 6.36428 45.0047 6.32885V4.51621C45.0047 4.48964 44.991 4.46602 44.9719 4.45126L44.4283 4.09109C44.401 4.07338 44.3628 4.07633 44.3409 4.10585L44.1771 4.3007H43.2183L42.5273 4.20623C42.5027 4.20328 42.4809 4.22394 42.4809 4.25051V6.5355C42.4809 6.55912 42.5 6.57979 42.5218 6.57979H43.2593C43.2975 6.57979 43.3303 6.54731 43.3303 6.50303V6.38199H44.0815V6.49417C44.0815 6.54141 44.1224 6.57683 44.1634 6.56798V6.56502ZM43.3276 5.77974V4.89704H44.0787V5.77974H43.3276ZM45.0566 4.01729C45.0265 4.04091 45.0183 4.08519 45.0402 4.12062L45.4854 4.81438C45.5182 4.86457 45.5755 4.88818 45.6274 4.87047C45.8814 4.79962 46.6189 4.5782 47.2116 4.27118C47.2335 4.714 47.5367 4.90885 47.8098 4.75238C48.0884 4.59297 48.0338 4.06452 47.8207 3.70731C47.6896 3.48885 47.4329 3.34419 47.2553 3.26743C47.1843 3.23496 47.1106 3.30876 47.1324 3.38847C47.1652 3.50656 47.1898 3.64827 47.2034 3.82835C46.9248 3.84901 46.5479 3.87558 46.2993 3.88739C46.2693 3.88739 46.2584 3.84901 46.283 3.8313C46.5261 3.67188 47.198 3.19068 47.8999 2.31978C47.9273 2.28436 47.9191 2.22826 47.8808 2.2076L47.0314 1.72344C47.0013 1.70573 46.9631 1.71754 46.944 1.74706C46.903 1.81496 46.8292 1.9419 46.7227 2.10427H46.0153C45.9907 2.10427 45.9798 2.06885 46.0016 2.05409C46.2666 1.87991 47.1488 1.26585 47.5367 0.672463C47.5667 0.62818 47.5531 0.563232 47.5094 0.536662L46.6135 0.0111732C46.5725 -0.0124443 46.5206 0.00231662 46.4987 0.0465994C46.3458 0.350675 45.7749 1.44003 45.0757 2.08361C45.0484 2.10722 45.0429 2.14856 45.0593 2.18103L45.4226 2.91317C45.4499 2.96631 45.5045 2.99879 45.5619 2.98698C45.6902 2.96336 45.9333 2.91612 46.1983 2.83937C45.8896 3.23201 45.5018 3.66007 45.0593 4.01434L45.0566 4.01729ZM45.7558 5.21292C45.6684 5.43434 45.51 5.76794 45.2805 6.01592C44.9091 6.42037 45.4663 6.96947 45.8623 6.57093C46.1983 6.23143 46.0453 5.57309 45.9279 5.21883C45.9006 5.13321 45.7886 5.13026 45.7558 5.21292ZM46.6981 6.34066C47.0641 6.15762 47.2226 5.59966 46.5561 5.05055C46.4933 5.00037 46.4059 5.05055 46.4059 5.13322C46.4113 5.34577 46.4004 5.67642 46.2966 5.86831C46.1355 6.17238 46.4386 6.4676 46.6954 6.33771L46.6981 6.34066ZM46.7336 9.01239C46.7172 8.99467 46.6927 8.99172 46.6708 9.00058L45.9361 9.33122H41.5904C41.6451 9.16885 41.697 8.99467 41.7379 8.81754H45.9088C45.917 8.87068 45.9607 8.90906 46.0098 8.89725L47.3045 8.66108C47.3482 8.65222 47.3782 8.61384 47.3782 8.56661V7.28831C47.3782 7.25288 47.3591 7.21746 47.3291 7.2027L46.3567 6.6713C46.3349 6.65949 46.3075 6.6654 46.2884 6.68606L45.9962 7.03442H40.6836C40.6399 7.03442 40.6044 7.0728 40.6044 7.12004V7.616C40.6044 7.66324 40.6399 7.70162 40.6836 7.70162H45.9033V8.1533H41.7434L40.6536 7.95846C40.6099 7.9496 40.5689 7.97912 40.5607 8.02636C40.5115 8.28615 40.3395 9.098 39.9953 9.65596C39.9653 9.7032 39.9816 9.76519 40.0308 9.78586L41.1234 10.2759C41.1616 10.2936 41.208 10.2759 41.2272 10.2346C41.2463 10.1933 41.2709 10.1372 41.3036 10.0693C41.3091 10.0693 41.3118 10.0693 41.3146 10.0693H45.8377C45.8295 10.1401 45.8186 10.1992 45.8077 10.2375C45.7394 10.4442 45.7503 10.5682 44.6632 10.4649C44.6414 10.4649 44.6223 10.4855 44.6332 10.5091L45.1412 11.8701C45.1713 11.9469 45.2396 12 45.3188 12H46.0972C46.5561 12 47.0286 11.752 47.2007 11.1941C47.3537 10.701 47.4684 9.98661 47.493 9.82424C47.4957 9.80357 47.4902 9.78291 47.4766 9.76815L46.7336 9.01239ZM40.2247 5.32511C40.2029 5.23949 40.0964 5.23359 40.0636 5.3133C39.9734 5.54652 39.8096 5.89783 39.5774 6.16058C39.195 6.59159 39.6621 7.08756 40.1209 6.73035C40.4514 6.47646 40.3231 5.7266 40.2247 5.32215V5.32511ZM47.228 4.8439C47.1461 4.79962 47.0614 4.89409 47.1024 4.9797C47.1816 5.14798 47.2635 5.37825 47.2553 5.60261C47.2417 6.02182 47.3864 6.15762 47.6678 6.10153C47.9491 6.04544 48.0556 5.62623 47.7115 5.22769C47.5449 5.03875 47.3673 4.91771 47.228 4.84095V4.8439ZM41.0332 6.56502C41.4375 6.35542 41.6095 5.70299 40.853 5.06827C40.7956 5.02103 40.7137 5.06827 40.7137 5.14502C40.7218 5.38415 40.7137 5.7945 40.5962 6.02773C40.4214 6.37609 40.7519 6.71263 41.0332 6.56502ZM38.3128 5.37825C38.859 5.33396 39.2059 4.43945 38.6077 3.68369C38.2199 3.19363 37.4606 3.06964 37.0918 3.03716C37.0153 3.03126 36.9716 3.12573 37.0208 3.18772C37.1765 3.39143 37.4169 3.7634 37.4715 4.19442C37.5398 4.73467 37.5999 5.43729 38.3128 5.3812V5.37825ZM37.5179 0.37134C37.4414 0.365435 37.3977 0.459905 37.4469 0.521901C37.6026 0.725602 37.843 1.09758 37.8976 1.5286C37.9659 2.06885 38.026 2.77147 38.7389 2.71538C39.2851 2.67109 39.632 1.77658 39.0338 1.02082C38.646 0.530758 37.8867 0.406766 37.5179 0.374292V0.37134ZM41.5249 4.8439C41.4511 4.80552 41.3774 4.89409 41.4156 4.97084C41.5003 5.14798 41.5986 5.40482 41.5904 5.6528C41.574 6.09268 41.727 6.23143 42.0193 6.17534C42.3115 6.11629 42.4262 5.67937 42.0657 5.26606C41.8772 5.05055 41.6778 4.92066 41.5276 4.84685L41.5249 4.8439ZM38.9382 8.18282C38.9738 7.69276 39.2087 5.77974 39.3043 5.00627C39.3097 4.95313 39.2414 4.93247 39.2223 4.98265L38.0642 7.8197C37.9986 7.97617 37.8539 8.0795 37.6927 8.0795H37.2885C37.2038 8.0795 37.171 8.19463 37.2366 8.25072C37.9249 8.81164 37.9959 9.53788 37.7829 10.4265C37.6463 10.9963 37.6572 11.8288 38.4821 11.8288C39.307 11.8288 39.449 10.459 39.2305 9.76519C39.012 9.07143 38.8891 8.80869 38.9355 8.18577L38.9382 8.18282ZM39.4135 4.06157L39.8669 4.90885C39.897 4.96494 39.9571 4.98856 40.0144 4.97084C40.2766 4.87933 41.0278 4.60773 41.6232 4.28299C41.6314 4.73172 41.8936 4.82914 42.1859 4.71105C42.4918 4.58706 42.4454 4.09995 42.2323 3.74274C42.093 3.51247 41.8144 3.36486 41.6369 3.2881C41.5768 3.26153 41.5167 3.32648 41.5385 3.39438C41.574 3.51247 41.6014 3.65417 41.615 3.83721C41.2982 3.86673 40.8475 3.90511 40.5935 3.91987C40.5771 3.91987 40.5716 3.89625 40.5853 3.88739C40.7983 3.75159 41.5822 3.2261 42.3525 2.25188L41.4948 1.75296C41.4375 1.72049 41.3665 1.7382 41.3309 1.8002C41.2763 1.89172 41.1862 2.03637 41.0687 2.21646H40.3722C40.3395 2.21646 40.3258 2.17217 40.3504 2.15151C40.6317 1.92419 41.5604 1.15072 41.8745 0.69608C41.9209 0.62818 41.8991 0.53371 41.8308 0.495332L41.0032 0.0259341C40.9431 -0.00949212 40.8693 0.0170776 40.8366 0.0790735C40.6645 0.418575 40.1237 1.42527 39.4654 2.05113C39.419 2.09246 39.408 2.16332 39.4354 2.21941L39.7822 2.91317C39.8068 2.96336 39.8587 2.99288 39.9134 2.98402C40.0527 2.96041 40.3367 2.90136 40.6372 2.8128C40.3121 3.22906 39.897 3.6896 39.4217 4.05862L39.4135 4.06157Z" fill="#231815"/>
<path d="M57.8125 4.10375C58.5186 3.95841 60.0202 3.40671 61.5384 1.3334C61.5915 1.26221 61.5775 1.15543 61.5077 1.10204L60.3774 0.200344C60.2993 0.138055 60.1904 0.16475 60.1458 0.2567C59.8695 0.838058 58.9233 2.73044 57.7065 3.88426C57.6144 3.97028 57.6897 4.13045 57.8098 4.10672L57.8125 4.10375ZM51.6334 5.49783H57.1595C57.232 5.49783 57.2878 5.43554 57.2878 5.36139V4.73553C57.2878 4.65842 57.2292 4.59909 57.1595 4.59909H55.0746V3.88426H55.7473V4.0296C55.7473 4.11265 55.817 4.17494 55.8952 4.16011L57.0757 3.92282C57.1343 3.91095 57.1762 3.85756 57.1762 3.79231V0.660091C57.1762 0.612634 57.1539 0.571108 57.1176 0.547379L56.2971 0.0194105C56.2468 -0.0132167 56.1826 -0.0043184 56.1408 0.0431394L55.8701 0.354582H52.9535C52.9396 0.345683 52.9228 0.336785 52.9061 0.333819L51.8372 0.191445C51.7618 0.182547 51.6976 0.241869 51.6976 0.321954V4.04443C51.6976 4.11858 51.7534 4.1779 51.8232 4.1779H52.8921C52.9619 4.1779 53.0177 4.11858 53.0177 4.04443V3.88129H53.7573V4.59613H51.6418C51.5692 4.59613 51.5134 4.65842 51.5134 4.73257V5.35842C51.5134 5.43554 51.572 5.49486 51.6418 5.49486L51.6334 5.49783ZM53.0093 1.25331H55.7445V1.66857H53.0093V1.25331ZM53.0093 2.97959V2.56434H55.7445V2.97959H53.0093ZM57.6981 7.49106C58.3428 7.38131 59.9309 6.8919 61.5384 4.69994C61.5915 4.62875 61.5775 4.52197 61.5077 4.46562L60.3774 3.56392C60.2993 3.50163 60.1904 3.52833 60.1458 3.62028C59.8639 4.21646 58.8787 6.18003 57.6228 7.32495C57.553 7.38724 57.606 7.50589 57.6953 7.49106H57.6981ZM61.9347 7.86775L60.7486 6.98088C60.6788 6.92749 60.5839 6.94529 60.5337 7.01944C60.1039 7.66902 58.1698 10.4957 56.5566 11.5962C56.4506 11.6673 56.5176 11.8423 56.6404 11.8157C57.6479 11.5991 59.7467 10.8309 61.9627 8.11097C62.0213 8.03682 62.0101 7.92411 61.9347 7.86775ZM56.9836 10.825C57.5 10.5135 57.1706 9.03937 55.577 8.98005C55.51 8.98005 55.4765 9.0631 55.524 9.11352C55.6635 9.25886 55.8589 9.54657 55.9677 10.0627C56.0989 10.6796 56.431 11.1601 56.9836 10.8279V10.825ZM53.5089 9.58513C53.5424 9.53471 53.5229 9.46352 53.4699 9.43386L52.3256 8.82581C52.2698 8.79615 52.2056 8.82581 52.1888 8.89106C52.0856 9.27369 51.7172 10.4809 51.0306 11.175C50.958 11.2491 51.025 11.3796 51.1227 11.347C51.7283 11.1542 52.814 10.6737 53.5089 9.58513ZM55.7445 8.40462C55.7445 8.48174 55.8087 8.5381 55.8784 8.52326L57.0813 8.28004C57.1343 8.26818 57.1734 8.22072 57.1734 8.1614V6.30461C57.1734 6.26308 57.1539 6.22452 57.1176 6.2008L56.2831 5.66393C56.2357 5.63427 56.1771 5.64317 56.1408 5.68469L55.8645 6.00207H52.9535C52.9535 6.00207 52.9256 5.98724 52.9089 5.98427L51.8204 5.83893C51.7534 5.83003 51.692 5.88639 51.692 5.95757V8.41945C51.692 8.4847 51.7423 8.54106 51.8065 8.54106H52.8949C52.9563 8.54106 53.0093 8.48767 53.0093 8.41945V8.24445H53.7294V10.3949C53.7294 10.5402 53.6178 10.6559 53.481 10.6559H52.9061C52.8503 10.6559 52.8168 10.7212 52.8475 10.7716L53.5787 11.9669C53.5927 11.9907 53.6178 12.0025 53.6429 11.9996C53.8829 11.9788 55.0942 11.8127 55.0942 10.7063V8.24445H55.7445V8.40165V8.40462ZM53.0093 7.34868V6.90673H55.7445V7.34868H53.0093Z" fill="#231815"/>
<defs>
<filter id="filter0_d_858_77" x="0.771271" y="14.4865" width="10.9692" height="11.6996" filterUnits="userSpaceOnUse" color-interpolation-filters="sRGB">
<feFlood flood-opacity="0" result="BackgroundImageFix"/>
<feColorMatrix in="SourceAlpha" type="matrix" values="0 0 0 0 0 0 0 0 0 0 0 0 0 0 0 0 0 0 127 0" result="hardAlpha"/>
<feOffset dy="4"/>
<feGaussianBlur stdDeviation="2"/>
<feComposite in2="hardAlpha" operator="out"/>
<feColorMatrix type="matrix" values="0 0 0 0 0 0 0 0 0 0 0 0 0 0 0 0 0 0 0.25 0"/>
<feBlend mode="normal" in2="BackgroundImageFix" result="effect1_dropShadow_858_77"/>
<feBlend mode="normal" in="SourceGraphic" in2="effect1_dropShadow_858_77" result="shape"/>
</filter>
</defs>
</svg>
