<?xml version="1.0" encoding="UTF-8"?><svg id="_層_2" xmlns="http://www.w3.org/2000/svg" viewBox="0 0 1102.16 171.69"><defs><style>.cls-1{fill:#e6725e;}.cls-2{fill:#26b8d6;}</style></defs><g id="logo"><g><g><path d="M191.16,148.34c-12.31,0-22.52-2.71-30.62-8.13-8.11-5.42-13.01-13.13-14.72-23.13h23.77c2.68,8.05,10.36,12.07,23.03,12.07,5.73,0,10.21-.91,13.44-2.74s4.85-4.45,4.85-7.86c0-5.48-4.21-8.53-12.62-9.14l-20.66-1.83c-8.53-.73-15.57-3.38-21.12-7.95-5.55-4.57-8.32-10.88-8.32-18.92,0-9.38,3.72-16.76,11.15-22.12,7.43-5.36,17.19-8.04,29.25-8.04s21.66,2.65,29.53,7.95c7.86,5.3,12.71,12.83,14.54,22.58h-23.95c-1.46-3.66-4.02-6.46-7.68-8.41-3.66-1.95-7.8-2.93-12.43-2.93-11.82,0-17.73,3.29-17.73,9.87,0,5.24,4.08,8.17,12.25,8.77l19.93,1.65c20.35,1.59,30.53,10.48,30.53,26.69,0,10.12-3.93,17.92-11.79,23.4-7.86,5.48-18.07,8.23-30.62,8.23Z"/><path d="M280.38,95.32v51.19h-22.85V3.91h22.85v60.15c6.34-9.02,15.72-13.53,28.15-13.53s21.27,3.96,28.34,11.88c7.07,7.93,10.6,18.89,10.6,32.91v51.19h-22.85v-51.19c0-6.95-1.95-12.43-5.85-16.45-3.9-4.02-9.08-6.03-15.54-6.03s-12.04,2.04-16.36,6.13c-4.33,4.08-6.49,9.54-6.49,16.36Z"/><path d="M417.49,148.34c-14.26,0-26.05-4.57-35.38-13.71-9.32-9.14-13.99-20.84-13.99-35.1s4.66-25.99,13.99-35.19c9.32-9.2,21.12-13.8,35.38-13.8s26.2,4.57,35.47,13.71c9.26,9.14,13.89,20.91,13.89,35.28s-4.63,25.96-13.89,35.1c-9.26,9.14-21.09,13.71-35.47,13.71Zm-18.83-29.71c4.87,5.06,11.15,7.59,18.83,7.59s13.96-2.53,18.83-7.59c4.87-5.06,7.31-11.43,7.31-19.11s-2.44-14.2-7.31-19.2c-4.88-5-11.15-7.5-18.83-7.5s-13.96,2.5-18.83,7.5c-4.88,5-7.31,11.4-7.31,19.2s2.44,14.05,7.31,19.11Z"/><path d="M522.98,123.47l14.08-55.21c2.68-11.58,9.26-17.37,19.75-17.37s17.06,5.79,19.74,17.37l14.08,55.21c.36,.85,.85,1.28,1.46,1.28,.73,0,1.22-.43,1.46-1.28l18.65-71.12h23.58l-23.22,78.61c-3.29,11.34-10.12,17-20.48,17s-16.58-5.67-19.38-17l-14.81-55.58c-.12-.85-.61-1.28-1.46-1.28s-1.34,.43-1.46,1.28l-14.44,55.58c-2.68,11.34-9.02,17-19.01,17-5.37,0-9.75-1.28-13.16-3.84-3.41-2.56-5.97-6.95-7.68-13.16l-22.12-78.61h23.95l17.74,71.12c.12,.85,.61,1.28,1.46,1.28,.73,0,1.16-.43,1.28-1.28Z"/><path d="M734.69,93.67v52.84h-22.85v-52.84c0-6.58-1.68-11.7-5.03-15.36-3.35-3.66-7.77-5.48-13.25-5.48s-9.94,1.86-13.35,5.58c-3.41,3.72-5.12,8.81-5.12,15.26v52.84h-22.85v-52.84c0-13.28,3.78-23.8,11.33-31.54,7.56-7.74,17.19-11.61,28.89-11.61,13.65,0,23.95,5.24,30.9,15.72,6.7-10.48,17-15.72,30.9-15.72,11.7,0,21.3,3.87,28.79,11.61,7.5,7.74,11.25,18.25,11.25,31.54v52.84h-22.85v-52.84c0-6.58-1.68-11.7-5.03-15.36-3.35-3.66-7.77-5.48-13.25-5.48s-9.94,1.86-13.35,5.58c-3.41,3.72-5.12,8.81-5.12,15.26Z"/><path d="M864.49,148.34c-14.26,0-26.05-4.57-35.38-13.71-9.32-9.14-13.99-20.84-13.99-35.1s4.66-25.99,13.99-35.19c9.32-9.2,21.12-13.8,35.38-13.8s26.2,4.57,35.47,13.71c9.26,9.14,13.89,20.91,13.89,35.28s-4.63,25.96-13.89,35.1c-9.26,9.14-21.09,13.71-35.47,13.71Zm-18.83-29.71c4.87,5.06,11.15,7.59,18.83,7.59s13.96-2.53,18.83-7.59c4.87-5.06,7.31-11.43,7.31-19.11s-2.44-14.2-7.31-19.2c-4.88-5-11.15-7.5-18.83-7.5s-13.96,2.5-18.83,7.5c-4.88,5-7.31,11.4-7.31,19.2s2.44,14.05,7.31,19.11Z"/><path d="M982.41,52.36h10.6v22.49h-10.6c-7.68,0-13.89,2.47-18.65,7.4-4.76,4.94-7.13,11.43-7.13,19.47v44.79h-22.85v-44.79c0-16.82,4.26-29.25,12.8-37.3,8.53-8.04,20.48-12.07,35.83-12.07Z"/><path d="M1101.61,117.26c-3.29,10.48-9.14,18.28-17.55,23.4-8.41,5.12-18.34,7.68-29.8,7.68-14.14,0-25.78-4.57-34.92-13.71-9.14-9.14-13.71-20.84-13.71-35.1s4.66-26.14,13.99-35.28c9.32-9.14,21.24-13.71,35.74-13.71s25.02,4.2,33.73,12.61,13.07,19.14,13.07,32.18c0,4.14-.43,8.17-1.28,12.07h-67.83c-2.56,0-3.84,1.16-3.84,3.47,0,4.51,2.53,8.57,7.59,12.16,5.06,3.6,11.18,5.39,18.37,5.39,12.31,0,20.29-3.72,23.95-11.15h22.49Zm-45.89-47.35c-7.19,0-13.19,1.77-18.01,5.3-4.82,3.54-7.83,8.41-9.05,14.63h48.26c1.95,0,2.93-.97,2.93-2.93,0-4.39-2.26-8.32-6.76-11.79-4.51-3.47-10.3-5.21-17.37-5.21Z"/></g><g><path class="cls-2" d="M69.28,1.88L7.1,37.78c-.16,.09-.28,.22-.43,.31-.59,.36-1.15,.76-1.68,1.21-.15,.13-.29,.27-.44,.41-.55,.5-1.05,1.05-1.52,1.64-.08,.11-.15,.21-.23,.32-.31,.42-.65,.81-.91,1.27-3.87,6.71-1.57,15.29,5.13,19.16l41.13,23.75L7.04,109.59c-.33,.19-.61,.45-.92,.66-.27,.18-.53,.36-.79,.57-.5,.4-.95,.82-1.38,1.27-.19,.2-.39,.4-.57,.62-.44,.52-.83,1.07-1.18,1.65-.09,.14-.2,.25-.28,.39-.05,.08-.07,.17-.12,.26-.32,.58-.58,1.19-.81,1.81-.1,.27-.21,.53-.3,.8-.18,.57-.29,1.15-.39,1.74-.06,.32-.13,.64-.16,.96-.06,.56-.05,1.11-.04,1.67,0,.35,0,.69,.03,1.04,.05,.52,.15,1.03,.26,1.55,.08,.39,.15,.77,.26,1.15,.13,.44,.31,.86,.48,1.29,.18,.45,.37,.9,.6,1.34,.07,.13,.11,.28,.18,.41,.13,.23,.31,.4,.45,.62,.29,.45,.59,.88,.94,1.3,.26,.32,.54,.6,.82,.89,.36,.36,.72,.71,1.12,1.04,.33,.27,.68,.51,1.04,.75,.27,.18,.5,.4,.78,.56l62.18,35.9c6.71,3.87,15.29,1.57,19.16-5.13s1.57-15.29-5.13-19.16l-41.17-23.77,41.15-23.76c.22-.13,.39-.29,.6-.43,.43-.28,.85-.57,1.26-.91,.37-.3,.71-.63,1.04-.96,.29-.29,.57-.58,.83-.9,.38-.45,.71-.93,1.02-1.41,.11-.18,.25-.32,.36-.5,.06-.11,.09-.22,.15-.33,.3-.56,.55-1.13,.78-1.73,.1-.27,.22-.54,.3-.82,.19-.61,.32-1.24,.42-1.87,.04-.25,.1-.5,.13-.76,.08-.68,.08-1.37,.05-2.06,0-.2,0-.39-.02-.59-.06-.71-.19-1.41-.35-2.12-.04-.18-.07-.35-.12-.53-.18-.66-.44-1.29-.72-1.93-.1-.22-.18-.44-.29-.65-.11-.22-.18-.46-.3-.67h0c-.22-.37-.5-.68-.74-1.03-.14-.21-.28-.41-.44-.61-.44-.56-.91-1.06-1.42-1.54-.15-.14-.29-.28-.45-.42-.58-.5-1.19-.93-1.84-1.32-.1-.06-.17-.14-.27-.2l-.82-.47h-.02l-40.29-23.27,41.21-23.79c6.71-3.87,9.01-12.45,5.13-19.16-3.87-6.71-12.45-9.01-19.16-5.13Z"/><path class="cls-1" d="M48.17,85.86L7.06,109.6c-.34,.19-.61,.45-.92,.66-.27,.18-.53,.36-.79,.57-.5,.4-.95,.82-1.38,1.27-.19,.2-.39,.4-.57,.62-.44,.52-.83,1.07-1.19,1.65-.09,.14-.2,.25-.28,.39-.05,.08-.07,.17-.12,.26-.32,.58-.58,1.19-.81,1.81-.1,.27-.21,.53-.3,.8-.18,.57-.29,1.15-.39,1.74-.06,.32-.13,.64-.16,.96-.06,.56-.05,1.11-.04,1.68,0,.35,0,.69,.03,1.03,.05,.52,.15,1.04,.26,1.55,.08,.39,.15,.77,.26,1.15,.13,.44,.31,.86,.48,1.29,.18,.46,.37,.9,.6,1.34,.07,.13,.11,.28,.18,.41,.13,.23,.31,.4,.45,.62,.29,.45,.59,.88,.93,1.3,.26,.32,.54,.6,.82,.89,.36,.36,.72,.71,1.12,1.04,.33,.27,.68,.51,1.04,.75,.27,.18,.5,.4,.78,.56l40.69,23.5s-26.54-23.67-5.65-35.66l41.15-23.76c.22-.12,.39-.29,.59-.43,.43-.28,.86-.57,1.26-.91,.37-.3,.71-.63,1.04-.96,.29-.29,.57-.58,.83-.9,.38-.45,.71-.93,1.02-1.42,.11-.17,.25-.32,.36-.5,.06-.11,.09-.22,.15-.33,.3-.56,.55-1.14,.78-1.73,.1-.27,.22-.54,.3-.81,.19-.61,.32-1.24,.42-1.88,.04-.25,.1-.5,.13-.75,.08-.68,.08-1.37,.05-2.06,0-.2,0-.39-.02-.58-.06-.71-.19-1.42-.36-2.12-.04-.17-.07-.35-.12-.52-.18-.66-.44-1.3-.72-1.93-.1-.22-.18-.43-.29-.65-.11-.22-.18-.46-.3-.68-.22-.37-.5-.68-.74-1.03-.14-.21-.28-.41-.44-.61-.44-.56-.92-1.06-1.42-1.54-.15-.14-.29-.28-.45-.42-.58-.5-1.2-.93-1.84-1.33-.1-.06-.17-.14-.27-.19l-.81-.47s-.02-.01-.03-.02l-40.29-23.26c-20.22,11.77,6.05,35.89,6.05,35.89Z"/></g></g></g></svg>