<?xml version="1.0" encoding="utf-8"?>
<!-- Generator: Adobe Illustrator 27.2.0, SVG Export Plug-In . SVG Version: 6.00 Build 0)  -->
<svg version="1.1" id="Layer_1" xmlns="http://www.w3.org/2000/svg" xmlns:xlink="http://www.w3.org/1999/xlink" x="0px" y="0px"
	 viewBox="0 0 113 24" style="enable-background:new 0 0 113 24;" xml:space="preserve">
<style type="text/css">
	.st0{fill:#231F20;}
</style>
<path class="st0" d="M20.8,0H5.1v4.1H0.9V24h15.7v-4.1h4.1V0z M5.1,5v14.3l-3.3,3.3V5H5.1z M15.8,19H5.9V5h9.9V19z M15.8,23.2H2.2
	l3.5-3.3h10.2L15.8,23.2L15.8,23.2z"/>
<path class="st0" d="M29.2,18.5c0.1,0.3,0.3,0.8,0.3,1.1l-0.4,0.1h0.2v1c0,0.8-0.2,1.5-1.4,1.9c-0.1-0.2-0.4-0.6-0.6-0.7
	c0.4-0.1,0.7-0.3,0.9-0.5h-1v-1.5H28v0.8h0.4v0v-0.9h0.5c0-0.1,0-0.1,0-0.2c-1.2,0.2-1.4,0.2-1.6,0.3v0c0-0.1-0.1-0.5-0.2-0.7
	c0.1,0,0.3-0.1,0.5-0.3c0.1,0,0.2-0.1,0.3-0.3c-0.3,0-0.5,0.1-0.5,0.1v0c0-0.2-0.2-0.5-0.3-0.8c0.1,0,0.2-0.1,0.3-0.2
	c0.1-0.1,0.3-0.3,0.5-0.6h-1v5.4h-1.3V14h3.8v3.2h-0.9l0.4,0.2c-0.2,0.2-0.4,0.4-0.6,0.6l0.4,0c0.1-0.1,0.2-0.3,0.3-0.4l0.6,0.5
	c-0.2,0.2-0.4,0.4-0.7,0.6L29.2,18.5z M26.7,14.9v0.3h1.2v-0.3H26.7z M26.7,16.3h1.2V16h-1.2V16.3z M28.6,19l-0.1-0.2
	c-0.1,0.1-0.2,0.2-0.3,0.3L28.6,19z M33.5,21.1c0,0.6-0.1,1-0.4,1.2c-0.4,0.2-0.8,0.3-1.5,0.3c0-0.3-0.1-0.6-0.2-0.9h-0.5v-0.3h-0.4
	v1.1h-0.9v-2.8h0.1c0-0.2-0.1-0.5-0.2-0.6c0.1,0,0.3-0.1,0.5-0.3c0.1,0,0.2-0.1,0.3-0.3c-0.4,0-0.5,0.1-0.6,0.1
	c0-0.2-0.2-0.5-0.3-0.8c0.1,0,0.2-0.1,0.3-0.2c0.1-0.1,0.3-0.3,0.5-0.6h-0.6V14h3.8L33.5,21.1L33.5,21.1z M32,21.2
	c0.1,0,0.2,0,0.2-0.2v-3.9h-1.5l0.4,0.2c-0.2,0.2-0.4,0.4-0.6,0.6l0.3,0c0.1-0.1,0.3-0.3,0.4-0.4l0.6,0.5c-0.2,0.2-0.5,0.5-0.7,0.7
	l0.5-0.1c0.1,0.3,0.3,0.8,0.4,1.1l-0.6,0.2c0-0.1,0-0.2-0.1-0.3c-0.6,0.1-1,0.1-1.2,0.2h0.4v0.9h0.4v-0.8h0.9v1.4L32,21.2L32,21.2z
	 M31,18.8c-0.1,0.1-0.2,0.2-0.3,0.3l0.4,0L31,18.8z M31,14.9v0.3h1.2v-0.3H31z M31,16.3h1.2V16H31V16.3z"/>
<path class="st0" d="M39.9,16.8c0,1.5-0.2,2.6-0.5,3.6c0.6,0.8,1.5,1,2.4,1c0.3,0,1.4,0,1.9,0c-0.1,0.3-0.3,0.8-0.3,1.1h-1.6
	c-1.1,0-2.1-0.2-2.8-1c-0.3,0.5-0.6,0.9-1.1,1.2c-0.1-0.3-0.4-0.7-0.6-0.9l0,0c-0.9,0.2-1.7,0.4-2.4,0.6l-0.2-1.2
	c0.3,0,0.7-0.1,1.2-0.2v-0.4l-0.7,0.3c0-0.4-0.1-1.1-0.2-1.6l0.7-0.3c0.1,0.4,0.2,0.9,0.2,1.3v-1.5H35v-1.1h0.9v-0.5h-0.5v-0.4
	c-0.1,0.1-0.3,0.3-0.4,0.4c0-0.3-0.3-1.1-0.4-1.4c0.6-0.5,1.3-1.3,1.7-2.1l0.8,0.5c0,0.1-0.1,0.2-0.1,0.3c0.3,0.2,0.7,0.5,0.9,0.7
	v-1h1l0.4-0.1l0.7,0.5c-0.2,0.8-0.5,1.7-0.8,2.4l0.1,0L39.9,16.8z M37.3,16c-0.3-0.3-0.6-0.5-0.9-0.7c-0.1,0.3-0.3,0.5-0.5,0.7H37.3
	z M37.9,21.3c0.2-0.2,0.3-0.5,0.4-0.8c-0.2-0.5-0.4-1-0.6-1.7l0.9-0.3c0,0.2,0.1,0.3,0.1,0.5c0.1-0.3,0.1-0.7,0.1-1.1h-0.6
	c-0.1,0.1-0.1,0.1-0.1,0.2c-0.1-0.2-0.4-0.6-0.5-0.8c0.2-0.1,0.5-0.4,0.6-0.7c0.1-0.2,0.3-0.7,0.4-1.3h-0.5l0,0l-0.4,1.1l-0.1-0.1
	v0.8h-0.8v0.5h1v1.1h-1v1.4c0.1-0.4,0.2-0.9,0.2-1.3l0.8,0.2c-0.1,0.5-0.3,1.1-0.4,1.5l-0.6-0.2v0.4l1.1-0.2L37.9,21.3z M40.8,15.2
	h-0.8v-0.9h0.8v-0.6h1v0.6h1.3v1.2h0.5v1h-0.5v1.2h-1.3v0.3h1.4v1h-1.4v0.3h1.5v1h-1.5v0.7h-1v-0.7h-1v-1h1v-0.3H40v-1h0.8v-0.3
	h-0.8v-0.9h0.8v-0.3h-1.2v-1h1.2V15.2z M41.8,15.2v0.3h0.4v-0.3H41.8z M42.2,16.5h-0.4v0.4h0.4V16.5z"/>
<path class="st0" d="M48.1,16.3h-3.6v-1.1h1.4c-0.1-0.4-0.3-0.8-0.5-1.1l1-0.5c0.2,0.4,0.5,0.9,0.6,1.3l-0.5,0.3h1.6V16.3z
	 M44.8,17.6v-1h2.8v1H44.8z M47.7,18.9h-2.8v-1h2.8V18.9z M47.7,22.1h-1.8v0.4h-1.1v-3.3h2.8L47.7,22.1L47.7,22.1z M45.9,20.3V21
	h0.7v-0.8H45.9z M53.4,19.5h-2v3.1H50v-3.1h-1.9v-1.3H50v-2.8h-1.7v-1.3h4.9v1.3h-1.8v2.8h2V19.5z M49.5,15.7
	c0.2,0.7,0.3,1.5,0.4,2.1L48.7,18c0-0.6-0.1-1.5-0.3-2.1L49.5,15.7z M51.5,17.8c0.2-0.6,0.4-1.5,0.5-2.2l1.3,0.3
	c-0.2,0.8-0.5,1.6-0.7,2.2L51.5,17.8z"/>
<path class="st0" d="M61,14.3c-0.1,0.1-0.1,0.2-0.2,0.3c0.5,0.7,1.4,1.2,2.4,1.5c-0.3,0.3-0.7,0.9-0.9,1.2c-0.3-0.1-0.5-0.2-0.7-0.4
	v0.4h-3.1V17c-0.3,0.2-0.5,0.3-0.8,0.5c-0.2-0.4-0.5-0.9-0.7-1.2h-2.9v-1.1h1.3c-0.1-0.4-0.4-0.8-0.5-1.1l1.1-0.5
	c0.3,0.4,0.5,0.9,0.7,1.3L56,15.2h1.3V16c1.1-0.5,2.1-1.5,2.6-2.4L61,14.3z M57.1,22.1h-1.6v0.4h-1.1v-3.3h2.7V22.1z M57,17.6h-2.6
	v-1H57V17.6z M54.5,17.9H57v1h-2.6V17.9z M55.5,20.3V21H56v-0.8H55.5z M62.4,21.3c0,0.5,0,0.8-0.3,1c-0.3,0.2-0.5,0.2-0.9,0.2
	c0-0.3-0.1-0.6-0.2-0.9v0.6h-0.9v-1.6h-0.3v1.6H59v-1.6h-0.2v1.8h-1.1v-4.8h4.7V21.3z M59,19.6v-0.8h-0.3v0.8H59z M60.6,16.3
	c-0.2-0.2-0.4-0.4-0.6-0.7c-0.2,0.2-0.4,0.5-0.7,0.7H60.6z M60.1,19.6v-0.8h-0.3v0.8H60.1z M61.3,18.9H61v0.8h0.3V18.9z M61,21.4
	c0.1,0,0.2,0,0.2,0c0.1,0,0.1,0,0.1-0.1v-0.5H61L61,21.4L61,21.4z"/>
<path class="st0" d="M65.1,20.1c0,0.9-0.2,1.7-0.4,2.3c-0.2-0.1-0.7-0.3-0.9-0.3c0.2-0.5,0.3-1.4,0.3-2.1L65.1,20.1z M72.6,21.3
	c0,0.6-0.1,0.9-0.4,1.1c-0.3,0.2-0.8,0.2-1.4,0.2c0-0.3-0.2-0.8-0.3-1.1c0.3,0,0.6,0,0.8,0c0.1,0,0.2,0,0.2-0.2v-6.1h-2.7v7.4h-1.2
	v-1.3l-0.8,0.3c-0.1-0.5-0.3-1.2-0.5-1.8l0.8-0.3c0.2,0.5,0.4,1.1,0.5,1.5v-1.8l-0.8,0.4c0-0.1,0-0.2-0.1-0.4
	c-1.7,0.3-2.1,0.4-2.3,0.5c0-0.2-0.2-0.8-0.4-1.1c0.3-0.1,0.4-0.3,0.7-0.6c0.1-0.1,0.3-0.4,0.5-0.7c-0.6,0.1-0.8,0.1-0.9,0.2
	c-0.1-0.2-0.2-0.8-0.4-1.1c0.2-0.1,0.3-0.2,0.5-0.5c0.2-0.3,0.7-1.3,1-2.3l1,0.5c-0.3,0.7-0.7,1.5-1.1,2.2l0.5,0
	c0.2-0.4,0.5-0.9,0.6-1.3l1,0.6c-0.5,1-1.1,2-1.8,2.8l0.7-0.1c-0.1-0.2-0.1-0.4-0.2-0.5l0.9-0.3c0.2,0.4,0.4,0.9,0.5,1.4V14h5.2
	V21.3z M66,19.9c0.1,0.6,0.2,1.4,0.3,1.9l-0.9,0.3c0-0.5-0.1-1.4-0.2-2L66,19.9z M70.6,20c0.1,0,0.4,0,0.5-0.1c0,0.3,0,0.6,0.1,0.9
	c-0.1,0.1-0.4,0.1-0.6,0.1h-0.5c-0.9,0-1.1-0.4-1.1-1.2v-0.4h-0.3v-1h0.8c0-0.2-0.1-0.3-0.2-0.5l0.6-0.2h-1.2v-1h0.4
	c0-0.3-0.1-0.8-0.3-1.1l0.8-0.3c0.2,0.4,0.3,0.9,0.3,1.2l-0.5,0.2h0.6c0.1-0.4,0.2-0.9,0.3-1.3l0.9,0.2c-0.1,0.4-0.2,0.8-0.3,1.1
	h0.3v1h-0.8c0.1,0.2,0.2,0.4,0.2,0.5l-0.4,0.1h1v1h-1.1v0.4c0,0.2,0,0.3,0.1,0.3L70.6,20L70.6,20z"/>
<path class="st0" d="M76.3,22c-0.2-0.3-0.4-0.6-0.7-0.9c-0.3,0.5-0.8,1-1.3,1.4c-0.2-0.3-0.6-0.7-0.9-0.8c0.6-0.5,1-1,1.3-1.5
	c-0.4-0.4-0.8-0.9-1.1-1.2c0.1-0.6,0.3-1.3,0.4-2.1l-0.4,0l-0.1-1.2l0.7,0c0.1-0.6,0.1-1.3,0.2-1.9l1.2,0c0,0.6-0.1,1.2-0.2,1.8
	l0.3,0V15h1.1v0.5l0.3,0v1.2l-0.3,0c0,1-0.2,2.1-0.6,3.3c0.4,0.4,0.7,0.8,0.9,1.1L76.3,22z M75.3,19c0.3-0.8,0.4-1.6,0.4-2.3l-0.5,0
	c-0.1,0.6-0.2,1.3-0.3,1.8L75.3,19z M79,20.4c-0.3,0.7-0.8,1.6-1.3,2c-0.2-0.3-0.6-0.7-0.9-0.9c0.5-0.3,1-0.9,1.2-1.4L79,20.4z
	 M80.4,20v2.6h-1.3V20H77v-1.1h2.1v-0.4h-1.4v-2.7h-0.6v-1.1h0.6v-0.9H79v0.9h1.4v-0.9h1.3v0.9h0.7v1.1h-0.7v2.7h-1.2v0.4h1.9V20
	H80.4z M79,15.7V16h1.4v-0.3H79z M79,17.3h1.4V17H79V17.3z M81.5,20.1c0.4,0.6,0.9,1.3,1.1,1.8l-1,0.5c-0.2-0.5-0.6-1.3-1-1.9
	L81.5,20.1z"/>
<path class="st0" d="M86.9,18.2v3.3c0,0.5-0.1,0.7-0.4,0.9c-0.3,0.2-0.6,0.2-1.1,0.2c0-0.3-0.2-0.7-0.3-1c0.2,0,0.5,0,0.6,0
	s0.1,0,0.1-0.1v-0.6c-0.3,0.2-0.5,0.3-0.7,0.5l-0.2-0.5c-0.1,0.7-0.2,1.4-0.6,1.8c-0.2-0.2-0.7-0.5-1-0.6c0.4-0.7,0.5-1.7,0.5-2.4
	v-1.4h-0.5v-1.5h0.4v-2.7H87v2.7h0.4v1h4.9v1h-4.9v-0.4L86.9,18.2L86.9,18.2z M86.3,17.6h-2v0.3h2V17.6z M84.7,16.7H85v-1.5h0.9
	v-0.3h-1.1L84.7,16.7L84.7,16.7z M84.9,19.6c0,0.2,0,0.5,0,0.8c0.3-0.1,0.6-0.2,0.9-0.4v-0.3l-0.4,0.4
	C85.3,19.9,85.1,19.7,84.9,19.6L84.9,19.6z M85.8,18.7h-0.9v0.4l0.3-0.3c0.2,0.1,0.4,0.3,0.6,0.4V18.7z M85.8,16.7v-0.8h-0.2v0.8
	H85.8z M92.3,21.5v1h-5.1v-1h1C88.1,21.3,88,21.1,88,21l0.5-0.2h-0.9v-1.9h4.2v1.9h-1l0.7,0.2c-0.1,0.2-0.3,0.4-0.4,0.5H92.3z
	 M92,17.4h-4.6v-3.1h1.1v-0.6h1v0.6h0.3v-0.6h1.1v0.6h1.2L92,17.4L92,17.4z M88.4,15.5h0.4v-0.3h-0.4V15.5z M88.4,16.6h0.4v-0.3
	h-0.4V16.6z M88.8,20h1.8v-0.3h-1.8V20z M89.1,20.8c0.1,0.3,0.2,0.5,0.3,0.7H90c0.1-0.2,0.2-0.5,0.3-0.7H89.1z M89.8,15.5v-0.3h-0.3
	v0.3H89.8z M89.5,16.3v0.3h0.3v-0.3H89.5z M91,15.2h-0.4v0.3H91V15.2z M91,16.3h-0.4v0.3H91V16.3z"/>
<path class="st0" d="M94.2,16.7c-0.1,0.1-0.2,0.2-0.3,0.3c-0.2-0.3-0.6-0.7-1-0.9c1.1-0.7,1.8-1.7,2.3-2.5l1.4,0.3
	c-0.1,0.2-0.3,0.4-0.4,0.6h1.1c-0.1-0.2-0.1-0.4-0.2-0.6l1.3-0.4c0.1,0.3,0.3,0.6,0.4,0.9h2.6v1h-2.8v0.3h2.3v0.9h-2.3v0.3h2.3v0.9
	h-2.3v0.3h3v1h-6v0.2h-1.4V16.7z M96.7,21.1c-0.7,0.5-1.8,1.1-2.8,1.3c-0.2-0.3-0.6-0.8-0.8-1c1-0.1,2.1-0.4,2.6-0.7L96.7,21.1z
	 M99.4,20.6c0.8,0.3,1.8,0.7,2.4,1l-0.9,0.9c-0.6-0.3-1.8-0.8-2.6-1.1l0.7-0.7h-0.9v2h-1.4v-2h-3.6v-1.1h3.6v-0.4h1.4v0.4h3.6v1.1
	H99.4z M97.3,15.6h-1.7v0.3h1.7V15.6z M97.3,16.7h-1.7v0.3h1.7V16.7z M97.3,17.8h-1.7V18h1.7V17.8z"/>
<path class="st0" d="M111.3,13.9v8.7H110v-0.4h-5.6v0.4h-1.2v-8.7H111.3z M110,21.2v-6.2h-5.6v6.2H110z M109.3,19.2h0.5v0.7h-1.1
	v0.4c0,0.4-0.1,0.5-0.4,0.6c-0.3,0.1-0.7,0.1-1.2,0.1c0-0.2-0.2-0.5-0.2-0.7c0.2,0,0.5,0,0.6,0c0.1,0,0.1,0,0.1-0.1v-0.4h-1.3
	c0.2,0.2,0.4,0.5,0.5,0.7l-0.9,0.4c-0.1-0.2-0.3-0.6-0.5-0.8l0.6-0.3h-1.4v-0.7h3.1V19c-1.1,0-2.1,0.1-2.9,0.1l0-0.7
	c0.5,0,1.2,0,2,0v-0.2h-1.8v-1.9h1.8v-0.2h-2v-0.7h2v-0.3h1.1v0.3h2v0.7h-2v0.2h1.8v1.9h-0.3c0.3,0.2,0.5,0.5,0.6,0.6L109.3,19.2z
	 M105.8,17h0.8v-0.2h-0.8V17z M106.6,17.7v-0.2h-0.8v0.2H106.6z M107.7,16.8V17h0.7v-0.2H107.7z M107.7,17.5v0.2h0.7v-0.2H107.7z
	 M107.7,18.2v0.2l0.5,0l0,0l0.3-0.2H107.7z M108.7,19.2h0.4c-0.1-0.1-0.1-0.1-0.2-0.2l-0.1,0V19.2z"/>
<path class="st0" d="M28,3.1v6.7h-1.4V3.1h-1.9V1.8h5.2v1.4L28,3.1L28,3.1z"/>
<path class="st0" d="M35.4,9.8l-3.1-5.2l-0.1-0.3v5.5h-1.4V1.8h1.3l3.1,5.2l0.1,0.3V1.8h1.4v8H35.4z"/>
<path class="st0" d="M38.2,9.8v-8h1.4v6.7h3v1.4H38.2z"/>
<path class="st0" d="M49.2,9.8l-1.7-5.9l0-0.3v6.3H46v-8h2.1l1.8,6.1l0,0.3l0-0.3l1.8-6.1h2.1v8h-1.4V3.6l0,0.3l-1.7,5.9H49.2z"/>
<path class="st0" d="M55.4,9.8v-8h5.1v1.4h-3.7v2h3v1.4h-3v2h3.7v1.4L55.4,9.8L55.4,9.8z"/>
<path class="st0" d="M61.7,1.8h2.9c1.3,0,2.3,1,2.3,2.3v3.4c0,1.3-1,2.3-2.3,2.3h-2.9V1.8z M64.6,8.4c0.5,0,0.9-0.4,0.9-0.9V4.1
	c0-0.5-0.4-0.9-0.9-0.9h-1.4v5.3H64.6z"/>
<path class="st0" d="M68.5,9.8v-8h1.4v8H68.5z"/>
<path class="st0" d="M70.7,9.8l2.2-8h1.9l2.3,8h-1.6l-0.4-1.6h-2.5l-0.4,1.6H70.7z M73,7h1.9L74,3.5l0-0.3l0,0.3L73,7z"/>
<path class="st0" d="M82.9,5.4h1.2h1.4v4.5H85l-0.4-0.6c-0.4,0.5-0.9,0.8-1.6,0.8h-0.3c-1.3,0-2.3-1-2.3-2.3V4c0-1.3,1-2.3,2.3-2.3
	h0.6c1.3,0,2.3,1,2.3,2.3v0.4l-1.4,0.1V4c0-0.5-0.4-0.9-0.9-0.9h-0.5c-0.5,0-0.9,0.4-0.9,0.9v3.6c0,0.5,0.4,0.9,0.9,0.9h0.5
	c0.5,0,0.9-0.4,0.9-0.9V6.7h-1.2V5.4z"/>
<path class="st0" d="M92.2,4.5c0,1-0.6,1.8-1.5,2.2l1.7,3.1h-1.6l-1.5-3h-0.9v3h-1.4v-8h3c1.3,0,2.3,1,2.3,2.3V4.5z M90.8,4.1
	c0-0.5-0.4-0.9-0.9-0.9h-1.5v2.3h1.5c0.5,0,0.9-0.4,0.9-0.9V4.1z"/>
<path class="st0" d="M98.7,7.6c0,1.3-1,2.3-2.3,2.3h-0.6c-1.3,0-2.3-1-2.3-2.3V4c0-1.3,1-2.3,2.3-2.3h0.6c1.3,0,2.3,1,2.3,2.3V7.6z
	 M94.9,7.6c0,0.5,0.4,0.9,0.9,0.9h0.5c0.5,0,0.9-0.4,0.9-0.9V4c0-0.5-0.4-0.9-0.9-0.9h-0.5c-0.5,0-0.9,0.4-0.9,0.9V7.6z"/>
<path class="st0" d="M105.4,1.8v5.8c0,1.3-1,2.3-2.3,2.3h-0.6c-1.3,0-2.3-1-2.3-2.3V1.8h1.4v5.8c0,0.5,0.4,0.9,0.9,0.9h0.5
	c0.5,0,0.9-0.4,0.9-0.9V1.8H105.4z"/>
<path class="st0" d="M112.2,4.9c0,1.3-1,2.3-2.3,2.3h-1.5v2.6h-1.4V1.8h3c1.3,0,2.3,1,2.3,2.3V4.9z M110.8,4.1
	c0-0.5-0.4-0.9-0.9-0.9h-1.5v2.7h1.5c0.5,0,0.9-0.4,0.9-0.9V4.1z"/>
</svg>
