<svg width="119" height="34" viewBox="0 0 119 34" fill="none" xmlns="http://www.w3.org/2000/svg">
<path d="M39.1573 8.04873H15.0817C14.1201 8.04873 13.3405 8.81815 13.3405 9.76727V24.2698C13.3405 25.2189 14.1201 25.9884 15.0817 25.9884H39.1573C40.1189 25.9884 40.8984 25.2189 40.8984 24.2698V9.76727C40.8984 8.81815 40.1189 8.04873 39.1573 8.04873Z" fill="white"/>
<path d="M14.637 3.4H39.6019C39.9458 3.4 40.2755 3.53482 40.5187 3.7748C40.7618 4.01478 40.8984 4.34026 40.8984 4.67964V16.2891H35.5309L33.0883 21.8527L29.4995 13.3156L26.0297 21.1913H13.3405V4.67964C13.3422 4.34076 13.4793 4.01622 13.7221 3.77659C13.9648 3.53697 14.2937 3.40163 14.637 3.4Z" fill="#2492C7"/>
<path d="M40.8984 17.4698V29.3204C40.8984 29.6597 40.7618 29.9852 40.5187 30.2252C40.2755 30.4652 39.9458 30.6 39.6019 30.6H14.637C14.2931 30.6 13.9634 30.4652 13.7202 30.2252C13.4771 29.9852 13.3405 29.6597 13.3405 29.3204V22.3658H26.9879L29.4306 16.8022L33.0256 25.3455L36.4954 17.476L40.8984 17.4698Z" fill="#2492C7"/>
<path d="M53.1429 9.39019H48.5896V18.2487H47.2681V5.17419H53.1429V9.39019ZM51.8903 6.13855H48.5896V6.8H51.8965L51.8903 6.13855ZM48.5833 8.43201H51.8903V7.67782H48.5896L48.5833 8.43201ZM52.3412 9.61273L51.5583 10.4102C51.331 10.628 51.0927 10.8343 50.8443 11.0284H51.4706H52.0594C52.2049 10.9264 52.345 10.8171 52.479 10.7007L52.7609 10.404L53.7191 10.7007C52.8865 11.5139 51.9368 12.2014 50.9007 12.7407H51.7274L52.4602 12.6975L52.3725 12.4749L52.2661 12.2215L53.0928 12.1164C53.308 12.6179 53.4921 13.132 53.644 13.6556L52.6732 13.8164L52.6293 13.4949L51.0134 13.6L49.2911 13.6433L49.0844 12.7098L49.5353 12.7531L49.8172 12.6233C50.2898 12.4089 50.7462 12.1609 51.1825 11.8815C51.2382 11.8327 51.2968 11.7873 51.3579 11.7455L50.4748 11.7764H49.5165L49.3349 10.8986L49.7545 10.9295L50.0364 10.6822C50.5047 10.2932 50.9251 9.85126 51.289 9.36546L52.3412 9.61273ZM50.3996 18.0756L49.7733 17.0556C51.1825 16.9258 51.9341 16.5487 52.0343 15.9306H49.6042V14.1378H50.7316V15.0095H52.097V14.008H53.2369V15.572C53.2369 16.9114 52.2828 17.7356 50.3746 18.0447M56.3684 9.63128C56.1553 9.90084 55.9252 10.1569 55.6795 10.3978L54.9592 11.0778H56.3684L56.6941 10.7811L56.9822 10.472L57.953 10.812C57.2646 11.5528 56.479 12.1994 55.6169 12.7346L55.3914 12.8706L56.2933 12.8087C56.5304 12.821 56.7679 12.7917 56.9948 12.7222L56.8883 12.5244L56.7693 12.2586L57.5647 12.0855L57.9092 12.852C57.9467 12.9633 58.0219 13.1858 58.1346 13.532C58.1496 13.5888 58.1684 13.6446 58.191 13.6989L57.3079 13.9029L57.1889 13.5196L55.573 13.6495L54.0135 13.7113L53.7567 12.8087H54.12L54.4018 12.648C54.5754 12.5521 54.7408 12.4425 54.8966 12.3204L55.6294 11.7455L54.6273 11.8073H53.7316L53.5187 10.9789H53.8506C54.3953 10.5177 54.8736 9.98528 55.2724 9.39637L56.3684 9.63128ZM55.3037 14.008V15.2444H56.5563V14.1378H57.6837V16.1778H55.3037V18.0324H54.1325V14.008H55.3037ZM57.1138 16.8022L58.3664 16.8764C58.7046 16.8764 58.8737 16.7218 58.8737 16.4189V9.39019H54.1638V5.17419H60.189V16.7713C60.2121 17.1211 60.1126 17.4682 59.9071 17.7542C59.7569 17.8907 59.5779 17.9926 59.3829 18.0525C59.1879 18.1124 58.9819 18.1287 58.7797 18.1004H57.5647L57.1138 16.8022ZM55.4227 6.8H58.8737V6.13855H55.429L55.4227 6.8ZM58.8737 7.67782H55.429V8.43201H58.8737V7.67782Z" fill="#2369A6"/>
<path d="M66.4647 16.9196C65.0407 17.4104 63.5727 17.7664 62.0804 17.9829L61.9364 16.6909L63.1264 16.5116L64.0095 16.3509V11.8382H62.0616V10.7255H64.0095V9.46437H62.7569V8.71019L62.2934 9.19855L61.7861 7.96219C61.9489 7.78909 62.0804 7.65309 62.1932 7.548C62.9812 6.72174 63.6058 5.75728 64.0345 4.70437H65.2308L66.1327 5.97782L67.1223 7.35019L66.2079 8.18473L65.4124 6.94837L64.7235 5.90982C64.3518 6.81181 63.8075 7.63459 63.1201 8.33309H66.4333V9.45819H65.1807V10.744H66.5899V11.8567H65.1807V16.1346L65.8446 15.9429L66.6087 15.7204V16.8022C67.0168 16.372 67.3644 15.8896 67.6421 15.368C67.6421 15.3062 67.7235 15.232 67.7799 15.1331C67.5684 14.6462 67.3885 14.1465 67.2413 13.6371L66.8091 12.1164L67.7486 11.7764L68.0054 12.6295C68.099 13.0078 68.2183 13.3796 68.3624 13.7422C68.5082 13.2003 68.5985 12.6452 68.6317 12.0855L68.757 10.6513H67.1411V9.73019C67.6651 8.80938 68.0632 7.82407 68.3248 6.8C68.3248 6.664 68.3937 6.49709 68.4438 6.29928H66.7966V5.27928H69.5837V6.22509L69.4334 6.84328C69.2271 7.80485 68.9054 8.73871 68.4751 9.62509H69.8969V10.5091C69.9055 12.0874 69.632 13.6548 69.0889 15.1393C69.3963 15.5696 69.8019 15.9225 70.273 16.1695C70.7442 16.4165 71.2675 16.5506 71.8009 16.5611V15.2011H69.9219V14.0945H71.8009V13.0869H70.1474V12.0113H71.7946V11.1273H70.1474V10.0764H71.7946V8.93273H69.7591V7.91273H71.7946V6.8H70.1474V5.75528H71.7946V4.66109H72.9157V5.75528H74.9575V7.91273H75.5838V8.93273H74.9575V11.1273H72.9157V12.0175H75.2268V13.0993H72.9157V14.0945H75.3458V15.1764H72.9157V16.6229H74.0869C74.5947 16.6295 75.1021 16.5902 75.6026 16.5055L75.3583 17.7418H73.1412C72.1809 17.772 71.2217 17.6552 70.2977 17.3956C69.5941 17.1625 68.9741 16.733 68.5127 16.1593C68.0252 16.9317 67.4355 17.6365 66.759 18.2549L66.1327 17.2535L66.4647 16.9196ZM62.6567 15.6833L62.4938 14.2182C62.4061 13.4764 62.3372 12.9818 62.2871 12.7655L63.2454 12.6356L63.4834 14.0265C63.4834 14.2491 63.5648 14.6447 63.6337 15.2196C63.6367 15.3192 63.6472 15.4184 63.665 15.5164L62.6567 15.6833ZM66.734 12.5924L66.6776 13.8287C66.6338 14.2985 66.5774 14.7251 66.5085 15.1145L65.5502 14.9909C65.5502 14.9044 65.5502 14.8302 65.5502 14.7745C65.6337 14.3171 65.6838 13.9709 65.7005 13.736L65.7882 12.5553L66.734 12.5924ZM73.9053 6.8H72.9282V7.91273H73.9053V6.8ZM73.9053 8.92655H72.9157V10.064H73.9053V8.92655Z" fill="#2369A6"/>
<path d="M81.9597 7.58509H76.7738V6.34873H78.8281L78.5713 5.59455C78.4523 5.31018 78.3271 5.04437 78.2018 4.80946L79.5421 4.64255L79.6611 4.88364C79.8781 5.36272 80.0602 5.85645 80.206 6.36109H81.9409L81.9597 7.58509ZM77.1183 8.56182H81.6904V9.71782H77.1183V8.56182ZM77.1183 10.7378H81.6904V11.8753H77.1183V10.7378ZM77.1621 13.0436H81.7217V18.1065H80.4691V17.4389H78.4649V18.2487H77.2122L77.1621 13.0436ZM80.444 14.1687H78.4398V16.3138H80.444V14.1687ZM87.1018 12.4687H90.5778V13.7545H87.1018V18.2549H85.7364V13.7545H82.2729V12.4687H85.7364V6.44764H82.4858V5.16182H90.3836V6.44764H87.1018V12.4687ZM83.5756 11.3869C83.5192 11.1335 83.4691 10.9233 83.4253 10.7687C83.2161 9.71654 82.9208 8.68285 82.5422 7.67782L83.7948 7.33782C84.0829 8.06727 84.2833 8.64837 84.4211 9.06873L84.9723 11.0345L83.5756 11.3869ZM90.3085 7.60364C89.9969 8.93072 89.578 10.231 89.0559 11.492L87.8032 10.8738C88.2453 9.90626 88.6158 8.90838 88.9118 7.888C88.9494 7.73346 89.012 7.52327 89.0934 7.26982L90.3085 7.60364Z" fill="#433C3A"/>
<path d="M91.7615 7.56037V6.324H93.5904L93.3211 5.68109C93.2212 5.38253 93.0911 5.09466 92.9328 4.82182L94.223 4.64255C94.3997 4.93106 94.5386 5.24057 94.6363 5.56364L94.9056 6.34873H96.4526V7.58509L91.7615 7.56037ZM92.2125 8.51855H96.1833V9.70546H92.2125V8.51855ZM92.2125 10.6945H96.1082V11.8629H92.2125V10.6945ZM96.0894 18.1127H94.8931V17.408H93.4526V18.2549H92.2563V13.0189H96.0894V18.1127ZM94.8931 14.144H93.4526V16.2767H94.8931V14.144ZM98.2627 8.27746L98.0873 8.40727C97.9653 8.49739 97.8377 8.57997 97.7053 8.65455L97.0289 9.05637L96.2835 7.82C97.0209 7.49617 97.7134 7.08069 98.3441 6.58364C99.0564 6.05584 99.6853 5.4267 100.211 4.71673H101.632C102.743 5.91729 104.068 6.9063 105.54 7.63455L105.002 8.92037C104.936 8.88061 104.866 8.84549 104.795 8.81527C104.614 8.72873 104.463 8.64837 104.344 8.58037L103.718 8.22182V9.14291H98.2189L98.2627 8.27746ZM102.647 17.6244H101.451V14.5335H100.48V17.6244H99.2711V14.5335H98.3316V18.2425H97.079V10.1753H104.945V16.6105C104.972 17.0065 104.876 17.401 104.67 17.7418C104.523 17.887 104.345 17.9967 104.148 18.0621C103.951 18.1276 103.742 18.147 103.536 18.1189H102.716L102.647 17.6244ZM99.2711 11.3313H98.3316V13.3713H99.2961L99.2711 11.3313ZM103.267 7.90037C102.432 7.31167 101.663 6.63603 100.975 5.88509C100.334 6.64873 99.5951 7.32625 98.7763 7.90037H103.267ZM101.426 11.3313H100.455V13.3713H101.426V11.3313ZM103.687 11.3622H102.622V13.3836H103.687V11.3622ZM103.342 16.9258C103.574 16.9258 103.687 16.8022 103.687 16.5549V14.5396H102.622V16.8764L103.342 16.9258Z" fill="#433C3A"/>
<path d="M48.3954 22.5884L49.0217 22.9036C48.5417 24.0778 47.7911 25.1255 46.8296 25.9636L46.3223 25.3455C46.8205 24.9321 47.2663 24.4609 47.6501 23.9422C47.9401 23.5297 48.1897 23.0908 48.3954 22.6316M52.0844 25.2465C52.0218 27.2185 51.8965 28.3745 51.7212 28.696C51.6414 28.8503 51.5142 28.9758 51.3579 29.0545C50.9816 29.1602 50.5894 29.1999 50.1992 29.172H49.8234L49.598 28.4364H50.7441C50.9654 28.4364 51.1095 28.288 51.1763 27.9913C51.2845 27.2872 51.3452 26.5768 51.3579 25.8647H49.623C49.5303 26.4114 49.3484 26.9396 49.0844 27.4287C48.8075 27.9167 48.4374 28.3471 47.9946 28.696C47.7461 28.9389 47.4555 29.1357 47.1365 29.2771L46.6543 28.6589C47.2649 28.3673 47.802 27.945 48.2263 27.4225C48.5553 26.9563 48.7697 26.4208 48.8526 25.8585H47.6689V25.2033L52.0844 25.2465ZM51.2765 22.6996C51.5286 23.1874 51.8197 23.6546 52.1471 24.0967C52.4818 24.4996 52.8461 24.8777 53.2369 25.228L52.6419 25.7905C51.933 25.0593 51.3416 24.2255 50.8882 23.3178H49.479V22.6564L51.2765 22.6996Z" fill="#5C5858"/>
<path d="M58.0344 27.3731H60.7088V28.0284H57.8402V28.4364C57.8687 28.6564 57.8079 28.8786 57.6711 29.0546C57.473 29.1877 57.2325 29.2449 56.9947 29.2153H55.9237L55.7734 28.5476H56.8381C57.001 28.5476 57.0824 28.4735 57.0824 28.3189V28.0036H53.8068V27.3731H57.0761V27.1011L57.7024 26.9404L58.5605 26.6869H54.3767V26.0687H59.9133V26.6375C59.3949 26.905 58.8543 27.1283 58.2974 27.3051L58.0344 27.3916M53.8944 23.6826V23.0644H56.7567L56.6502 22.8666L56.4999 22.6193L57.3204 22.5266L57.4832 22.8047L57.6085 23.0644H60.6273V23.6826H53.8944ZM54.6272 24.0473H59.9259V25.704H54.6272V24.0473ZM59.168 24.6098H55.4101V25.1353H59.168V24.6098Z" fill="#5C5858"/>
<path d="M64.9301 28.9865H62.3873V29.2895H61.8048V26.8167L61.6858 26.9775L61.5167 27.1691L61.3163 26.4829C61.6582 26.1634 61.9273 25.7756 62.1054 25.3455L62.6879 25.4196L62.5313 25.7596H63.3769L63.2829 25.5495L63.1639 25.3393L63.3831 25.2465V23.9298H63.7527V23.4909H63.333V22.9902H63.7527V22.4647H64.3163V22.9902H65.0992V23.4909H64.3163V23.9051H64.9427V25.3455H63.7589L63.8654 25.5618L63.9531 25.7844H64.9928V26.2727H63.9656V26.656H64.9176V27.1011H63.9656V27.5462H64.9176V27.9789H63.9656V28.4982H65.0115V28.6095C65.251 28.4185 65.4432 28.1762 65.5735 27.9009C65.7037 27.6256 65.7686 27.3245 65.7631 27.0207H65.3498V22.6935H67.9114V27.0207H67.1974V28.3622C67.1861 28.4471 67.2014 28.5334 67.2412 28.6095C67.2412 28.6465 67.3414 28.6651 67.4479 28.6651C67.5544 28.6651 67.6483 28.5353 67.6483 28.2756V27.5585L68.187 27.7378V28.5044C68.187 28.9618 67.9302 29.1905 67.4229 29.1905C67.2021 29.2148 66.9798 29.1599 66.7965 29.036C66.7359 28.9609 66.6908 28.8748 66.6639 28.7825C66.6371 28.6902 66.6289 28.5936 66.64 28.4982V27.0207H66.3519C66.3538 27.454 66.2582 27.8824 66.0719 28.2748C65.8856 28.6671 65.6133 29.0137 65.2746 29.2895L64.9301 28.9865ZM63.0512 23.9298V25.3455H61.5292V23.9298H62.1555V23.4909H61.3413V22.9902H62.1555V22.4647H62.7192V22.9902H63.1764V23.4909H62.7192V23.9051L63.0512 23.9298ZM62.5376 24.3502H62.0115V24.9127H62.5376V24.3502ZM63.3769 26.2604H62.3873V26.6436H63.4082L63.3769 26.2604ZM63.3769 27.0887H62.3873V27.5338H63.4082L63.3769 27.0887ZM63.3769 27.9665H62.3873V28.4858H63.4082L63.3769 27.9665ZM64.4165 24.3502H63.8842V24.9127H64.4291L64.4165 24.3502ZM67.2412 23.2498H65.9009V23.868H67.2412V23.2498ZM65.9009 25.1415H67.2412V24.4244H65.9009V25.1415ZM65.9009 26.452H67.2412V25.6731H65.9009V26.452Z" fill="#5C5858"/>
<path d="M70.5482 26.4211H69.139V25.8647H70.5482V25.432H69.0701V22.6749H72.6151V25.432H71.1119V25.8647H72.5462V26.4211H71.1119V26.8724L71.9574 26.8167C72.185 26.8179 72.412 26.793 72.6338 26.7425V27.2865L70.8551 27.4287C70.227 27.4185 69.599 27.4536 68.9762 27.5338L68.8446 26.9156H69.5837L70.5733 26.8847L70.5482 26.4211ZM69.7904 27.8182C69.7904 27.9171 69.7591 28.0098 69.7465 28.0778C69.6765 28.5044 69.5502 28.92 69.3707 29.3142L68.8196 29.0793C69.0394 28.6672 69.1896 28.2224 69.2643 27.7625L69.7904 27.8182ZM69.6025 24.9127H70.5482V23.2127H69.6025V24.9127ZM69.7465 23.6269L70.091 23.528L70.2413 23.9855C70.2413 24.1029 70.3165 24.2513 70.3541 24.4429C70.3541 24.4429 70.3541 24.5047 70.3541 24.548L69.9657 24.6655L69.8718 24.1524C69.8362 23.9741 69.7881 23.7985 69.7277 23.6269M70.0409 29.1905C70.0827 28.7237 70.0827 28.2541 70.0409 27.7873L70.5545 27.7502C70.5965 27.9641 70.6174 28.1814 70.6171 28.3993C70.6171 28.7949 70.6171 29.0175 70.6171 29.1287L70.0409 29.1905ZM71.1244 29.0669C71.1029 28.6265 71.0357 28.1894 70.924 27.7625L71.4125 27.6884C71.537 28.0917 71.623 28.5056 71.6693 28.9247L71.1244 29.0669ZM71.1244 24.888H72.0952V23.2127H71.1244V24.888ZM71.4752 23.9669L71.5754 23.4785L71.9324 23.5713L71.8447 24.1338C71.8178 24.3101 71.7759 24.4838 71.7194 24.6531L71.3123 24.5295L71.3687 24.3564C71.4138 24.2293 71.4494 24.0991 71.4752 23.9669ZM72.1892 28.8629L72.1516 28.6775C72.1203 28.5415 72.0827 28.4055 72.0388 28.2756L71.8322 27.6575L72.2768 27.5524C72.441 27.9158 72.5669 28.2949 72.6526 28.6836L72.1892 28.8629ZM73.7048 25.7164V22.4895H74.3687V23.7258H75.7091V24.344H74.3687V25.7411H75.4335V29.3018H74.8072V28.7949H73.5232V29.3018H72.8969V25.7287L73.7048 25.7164ZM74.7946 26.3345H73.5107V28.1891H74.7946V26.3345Z" fill="#5C5858"/>
<path d="M76.3103 26.2727C76.5762 26.0728 76.8087 25.8329 76.9993 25.5618C77.2574 25.2246 77.4799 24.8621 77.6631 24.48L78.2895 24.8386L78.0703 25.2218L77.8323 25.6175V29.2895H77.1621V26.4644L76.8928 26.7673C76.7802 26.9009 76.6543 27.0231 76.517 27.132L76.3103 26.2727ZM78.4836 23.0211C77.9589 23.6251 77.3827 24.1835 76.7613 24.6902L76.3855 24.0349C76.9448 23.6316 77.4462 23.1554 77.8761 22.6193L78.4836 23.0211ZM81.1455 25.0982V26.044H82.7488V26.7116H81.1455V28.3375C81.4299 28.3754 81.7165 28.396 82.0035 28.3993H82.0787H83.181L83.062 29.0546H82.3605C81.6424 29.106 80.921 29.0178 80.2373 28.7949C79.8353 28.5643 79.4891 28.25 79.2227 27.8738L78.9721 28.492C78.8636 28.7443 78.7358 28.9881 78.5901 29.2215L78.0577 28.6589C78.6581 27.6161 78.9934 26.4452 79.0348 25.2466H79.7175C79.7012 25.8568 79.6214 26.4637 79.4795 27.0578C79.6831 27.5057 80.028 27.8765 80.4628 28.1149V25.024L81.1455 25.0982ZM81.6215 22.6255C81.6367 22.5872 81.6493 22.548 81.659 22.508L82.3417 22.6626L82.3041 22.8109C82.2246 23.0911 82.1263 23.3658 82.0098 23.6331L82.6361 24.0411L83.1685 24.4058L82.7363 25.0549C82.417 24.7594 82.0803 24.4828 81.7279 24.2265C81.5593 24.5128 81.3598 24.7802 81.1329 25.024L80.7008 24.4058L80.3438 24.9375L79.8928 24.4429C79.8249 24.3657 79.7493 24.2953 79.6674 24.2327L79.5421 24.1091C79.5255 24.1326 79.5109 24.1574 79.4983 24.1833C79.3247 24.4382 79.132 24.6799 78.922 24.9066L78.8469 24.9869L78.2895 24.48C78.5697 24.2643 78.8129 24.0055 79.0097 23.7135C79.2266 23.3249 79.3889 22.9089 79.492 22.4771L80.1496 22.5822L80.0306 23.0582C79.9895 23.2081 79.9372 23.3548 79.874 23.4971L80.3438 23.8804L80.7759 24.2575C81.2063 23.7888 81.5063 23.218 81.6465 22.6007" fill="#5C5858"/>
<path d="M83.9952 26.1058C84.3715 25.6791 84.705 25.2174 84.9911 24.7273H83.8386V24.1091H85.7176V24.6345C85.4775 25.0817 85.2054 25.5114 84.9034 25.9204L84.8094 26.0378H85.7051V26.4644C85.6785 26.6401 85.6387 26.8137 85.5861 26.9836L85.4044 27.5338C85.598 27.8898 85.9199 28.1611 86.3063 28.2942C87.0521 28.4429 87.8135 28.501 88.5736 28.4673C89.1999 28.4673 89.7448 28.4673 90.296 28.424H90.653L90.534 29.1102H88.7364C87.8359 29.1547 86.9334 29.0883 86.0495 28.9124C85.6529 28.7661 85.3131 28.5 85.0787 28.152C84.8494 28.5631 84.5673 28.9433 84.2395 29.2833L83.7635 28.764C84.369 28.1855 84.8022 27.4543 85.0161 26.6498H83.9639L83.9952 26.1058ZM85.0224 23.9731C84.6965 23.6161 84.3403 23.2873 83.9576 22.9902L84.3961 22.5636C84.7542 22.8032 85.0896 23.0742 85.3982 23.3735L85.4859 23.4662L85.0224 23.9731ZM88.2229 22.4895V22.5389C88.3122 22.7001 88.3896 22.8674 88.4546 23.0396C88.4507 23.0746 88.4507 23.1098 88.4546 23.1447H90.5465V23.7629H85.8429V23.1447H87.7218L87.6842 22.8727C87.6417 22.7648 87.5848 22.663 87.5151 22.5698L88.2229 22.4895ZM86.3439 24.1462H90.2709V24.7273H86.3439V24.1462ZM86.3439 25.1353H90.2709V25.7535H86.3439V25.1353ZM86.4379 26.1553H90.1895V27.9295H86.4316L86.4379 26.1553ZM89.5694 26.7425H87.0579V27.3607H89.5632L89.5694 26.7425Z" fill="#5C5858"/>
<path d="M94.4296 25.2033H92.1623V29.2895H91.4734V22.7244H94.4296V25.2033ZM93.7594 23.2745H92.1623V23.7135H93.7594V23.2745ZM92.1623 24.6469H93.7594V24.1771H92.1623V24.6469ZM95.7824 26.928H96.8472V27.5091H95.7824V29.0855H95.1561V27.5091H94.2855C94.2579 27.8642 94.1324 28.2051 93.9227 28.495C93.713 28.7848 93.4269 29.0125 93.0955 29.1535L92.582 28.6836L92.7511 28.5971C92.978 28.503 93.1773 28.354 93.3306 28.1639C93.4838 27.9737 93.5861 27.7485 93.6279 27.5091H92.5507V26.928H93.678V26.18H92.7761V25.6113H96.6217V26.18H95.7824V26.928ZM95.1561 26.18H94.3043V26.928H95.1561V26.18ZM97.0351 28.56C97.2042 28.56 97.2919 28.4858 97.2919 28.3313V25.2033H94.9995V22.7305H97.9808V28.5167C97.991 28.6096 97.9798 28.7035 97.948 28.7914C97.9161 28.8794 97.8645 28.9591 97.797 29.0245C97.7295 29.0899 97.6479 29.1394 97.5582 29.1693C97.4685 29.1991 97.3732 29.2085 97.2793 29.1967H96.4526L96.2835 28.5353L97.0351 28.56ZM95.6572 23.7135H97.2919V23.2745H95.6572V23.7135ZM97.2919 24.1771H95.6572V24.6469H97.2919V24.1771Z" fill="#5C5858"/>
<path d="M99.7032 23.8371L99.7846 23.188L99.8535 22.5018H100.517L100.442 23.2251L100.367 23.8433H101.57V24.344C101.505 25.3415 101.294 26.3244 100.943 27.2618C101.232 27.4859 101.5 27.7341 101.745 28.0036L101.3 28.56L100.943 28.1767L100.611 27.8553C100.286 28.3596 99.8873 28.8137 99.4276 29.2029L98.8577 28.7269C99.357 28.3815 99.7827 27.9425 100.11 27.4349L99.5842 27.0269L98.9579 26.5818C99.227 25.8874 99.4365 25.1719 99.5842 24.4429H98.7574V23.8247L99.7032 23.8371ZM100.054 26.6065C100.168 26.6794 100.275 26.7622 100.373 26.8538C100.631 26.1536 100.802 25.4249 100.881 24.684C100.881 24.6284 100.881 24.5542 100.881 24.4615H100.254L100.041 25.3887C99.937 25.7802 99.8305 26.1141 99.722 26.3902L100.054 26.6065ZM104.438 23.4415L104.639 23.732C105.017 24.2935 105.352 24.8825 105.641 25.4938L105.014 25.8524L104.889 25.5556L104.745 25.2836C104.24 25.3983 103.723 25.4584 103.204 25.4629C102.671 25.4615 102.137 25.4925 101.607 25.5556L101.526 24.8571H101.745H101.945C102.345 24.1052 102.662 23.3136 102.891 22.4956L103.63 22.6007C103.574 22.7553 103.53 22.8789 103.499 22.9778C103.288 23.6157 103.027 24.2359 102.716 24.8324L103.586 24.7705C104.025 24.7273 104.313 24.6902 104.444 24.6655L104.175 24.1895C104.05 23.9669 103.937 23.7876 103.843 23.6516L104.438 23.4415ZM101.839 26.1305H105.221V29.2956H104.557V28.9H102.528V29.2895H101.858L101.839 26.1305ZM104.538 26.7487H102.528V28.2633H104.557L104.538 26.7487Z" fill="#5C5858"/>
</svg>
