<svg width="101" height="47" viewBox="0 0 101 47" fill="none" xmlns="http://www.w3.org/2000/svg">
<g clip-path="url(#clip0_6_151)">
<path d="M101 0H0V47H101V0Z" fill="#009B75"/>
<path fill-rule="evenodd" clip-rule="evenodd" d="M48.2412 19.5046C47.4488 18.8167 46.518 18.2722 45.499 17.9005C43.3056 17.1205 40.8666 17.1205 38.6732 17.9005C37.6513 18.2686 36.7162 18.8089 35.9179 19.4927C35.1196 20.1838 34.4849 21.014 34.052 21.933C33.6191 22.8521 33.397 23.8409 33.3993 24.8397C33.3889 25.8277 33.6131 26.8062 34.0569 27.7093C34.4968 28.5865 35.1223 29.3777 35.8981 30.0382C36.6953 30.7117 37.6255 31.2437 38.6403 31.6066C40.821 32.3711 43.2394 32.3711 45.4201 31.6066C46.4374 31.2466 47.3717 30.7188 48.1754 30.0501C48.9545 29.3931 49.5824 28.6037 50.0233 27.7271C50.4673 26.8262 50.6916 25.8496 50.6809 24.8635C50.6899 23.843 50.4661 22.8318 50.0233 21.8929C49.6039 21.0011 48.999 20.1903 48.2412 19.5046ZM47.2943 27.4063C47.0587 28.0895 46.6716 28.7222 46.1566 29.2658C45.6727 29.7764 45.0682 30.1824 44.3877 30.4541C43.6478 30.7369 42.8498 30.8746 42.0466 30.8581C41.2407 30.8678 40.4412 30.7262 39.699 30.4422C39.0177 30.1746 38.4144 29.7679 37.9367 29.254C37.4293 28.7026 37.0512 28.0639 36.8253 27.3766C36.5517 26.5744 36.4185 25.7385 36.4308 24.8991C36.4146 24.0167 36.5476 23.1372 36.8253 22.291C37.0595 21.5761 37.4435 20.9085 37.9564 20.3245C38.4332 19.7953 39.0385 19.3725 39.7253 19.0887C40.4674 18.8024 41.266 18.6548 42.0729 18.6548C42.8799 18.6548 43.6785 18.8024 44.4206 19.0887C45.1061 19.3771 45.7091 19.8039 46.1829 20.3364C46.6916 20.9211 47.0711 21.5887 47.3008 22.3029C47.5752 23.1517 47.7081 24.0327 47.6954 24.917C47.7066 25.7606 47.5712 26.6006 47.2943 27.4063Z" fill="white"/>
<path fill-rule="evenodd" clip-rule="evenodd" d="M39.3702 15.9459H44.7559C44.9248 15.9461 45.0872 15.8876 45.2096 15.7825C45.3321 15.6774 45.4051 15.5339 45.4135 15.3815C45.4146 15.3046 45.3981 15.2283 45.365 15.1574C45.3319 15.0865 45.2829 15.0225 45.2212 14.9695C45.1594 14.9165 45.0862 14.8756 45.0062 14.8494C44.9261 14.8232 44.8409 14.8122 44.7559 14.8171H39.3702C39.2362 14.8547 39.119 14.93 39.0358 15.0321C38.9525 15.1342 38.9077 15.2577 38.9077 15.3845C38.9077 15.5113 38.9525 15.6347 39.0358 15.7368C39.119 15.8389 39.2362 15.9142 39.3702 15.9518V15.9459Z" fill="white"/>
<path fill-rule="evenodd" clip-rule="evenodd" d="M83.0214 21.8395C82.589 20.9474 81.968 20.1401 81.1932 19.463C80.3976 18.7775 79.4647 18.2351 78.4445 17.8649C76.2549 17.0886 73.8214 17.0886 71.6318 17.8649C70.6116 18.2351 69.6787 18.7775 68.8831 19.463C68.1062 20.1398 67.4829 20.947 67.0484 21.8395C66.6049 22.7781 66.381 23.7895 66.3908 24.81C66.3805 25.7961 66.6047 26.7726 67.0484 27.6736C67.489 28.5488 68.1145 29.3378 68.8896 29.9966C69.7017 30.673 70.6476 31.2051 71.6778 31.565C73.8571 32.3257 76.2718 32.3257 78.4511 31.565C79.4647 31.2028 80.3947 30.6729 81.1932 30.0025C81.9704 29.344 82.598 28.555 83.0411 27.6796C83.4847 26.7786 83.709 25.802 83.6987 24.816C83.7063 23.7919 83.4755 22.7778 83.0214 21.8395ZM80.2726 27.329C80.0369 28.0109 79.6523 28.6432 79.1415 29.1886C78.6553 29.6969 78.0515 30.1026 77.3726 30.3768C76.6347 30.6594 75.8395 30.799 75.0382 30.7868C74.2326 30.7984 73.4332 30.6588 72.6905 30.3768C72.0106 30.1072 71.4078 29.7008 70.9282 29.1886C70.4198 28.6427 70.0375 28.0105 69.8037 27.329C69.5281 26.5271 69.3928 25.6912 69.4026 24.8516C69.3919 23.969 69.5271 23.09 69.8037 22.2435C70.0389 21.5301 70.4203 20.863 70.9282 20.277C71.4037 19.7466 72.0093 19.3235 72.6971 19.0412C73.4365 18.7535 74.2331 18.6051 75.0382 18.6051C75.8432 18.6051 76.6398 18.7535 77.3792 19.0412C78.066 19.325 78.6713 19.7478 79.1481 20.277C79.656 20.863 80.0374 21.5301 80.2726 22.2435C80.5469 23.0903 80.6799 23.9693 80.6672 24.8516C80.679 25.6909 80.5459 26.5268 80.2726 27.329Z" fill="white"/>
<path fill-rule="evenodd" clip-rule="evenodd" d="M72.3355 15.9934H77.7146C77.8803 15.9934 78.0392 15.934 78.1563 15.8281C78.2735 15.7223 78.3393 15.5787 78.3393 15.429C78.3393 15.2793 78.2735 15.1358 78.1563 15.0299C78.0392 14.9241 77.8803 14.8646 77.7146 14.8646H72.3355C72.1698 14.8646 72.0109 14.9241 71.8937 15.0299C71.7766 15.1358 71.7108 15.2793 71.7108 15.429C71.7108 15.5787 71.7766 15.7223 71.8937 15.8281C72.0109 15.934 72.1698 15.9934 72.3355 15.9934Z" fill="white"/>
<path fill-rule="evenodd" clip-rule="evenodd" d="M67.2325 17.2648H62.2217C62.1188 17.2737 62.0233 17.317 61.9539 17.3863C61.8846 17.4556 61.8464 17.5457 61.8468 17.6391V17.6866C61.8566 17.7912 61.9092 17.8887 61.9944 17.9601C62.0795 18.0315 62.191 18.0717 62.3071 18.0728H62.4321C62.682 18.0728 63.0305 18.1857 63.0305 18.5362C63.0055 18.8115 62.8912 19.074 62.7017 19.2907L58.572 23.901L54.4423 19.2907C54.2505 19.0747 54.1338 18.8121 54.1069 18.5362C54.1069 18.1619 54.5278 18.0788 54.7645 18.0669H54.9092C55.0092 18.0566 55.1014 18.0133 55.1682 17.9453C55.2349 17.8773 55.2715 17.7894 55.2709 17.6985V17.651C55.271 17.5682 55.2407 17.4877 55.1848 17.4222C55.1288 17.3566 55.0504 17.3096 54.9618 17.2886H49.8918C49.7848 17.2946 49.6843 17.3374 49.611 17.408C49.5377 17.4787 49.497 17.572 49.4972 17.6688V17.8055C49.4972 18.0015 49.655 18.1203 49.8852 18.1738C50.3051 18.3203 50.6765 18.5617 50.9636 18.8749L57.0069 25.5289V29.8005C57.0185 30.0948 56.9268 30.3849 56.7449 30.6292C56.563 30.8736 56.3003 31.0597 55.9942 31.1611C55.9646 31.1656 55.9371 31.178 55.9153 31.1967C55.8088 31.2557 55.7263 31.3443 55.6801 31.4492C55.6339 31.5541 55.6265 31.6697 55.6591 31.7787C55.6917 31.8877 55.7624 31.9842 55.8607 32.0539C55.9591 32.1235 56.0797 32.1625 56.2047 32.1651H60.9854C61.1153 32.1671 61.2422 32.1291 61.345 32.0573C61.4478 31.9855 61.5206 31.8842 61.5512 31.7701C61.5818 31.656 61.5685 31.5358 61.5135 31.4294C61.4584 31.3231 61.365 31.2368 61.2484 31.1848C61.2073 31.1648 61.1629 31.1508 61.1169 31.1432C60.835 31.0263 60.597 30.8375 60.4322 30.6C60.2675 30.3625 60.1832 30.0867 60.1897 29.8065V25.5348L66.233 18.8808C66.5202 18.5676 66.8915 18.3262 67.3114 18.1798C67.409 18.1644 67.4974 18.1184 67.5612 18.05C67.6249 17.9815 67.6599 17.8949 67.66 17.8055V17.6688C67.6636 17.6164 67.6552 17.5639 67.6353 17.5146C67.6153 17.4653 67.5843 17.4202 67.5442 17.3823C67.504 17.3443 67.4556 17.3143 67.402 17.2941C67.3483 17.2739 67.2906 17.2639 67.2325 17.2648Z" fill="white"/>
<path fill-rule="evenodd" clip-rule="evenodd" d="M33.8201 19.8433L33.6886 17.6272C33.6802 17.5385 33.6348 17.4559 33.5615 17.3963C33.4882 17.3367 33.3926 17.3046 33.294 17.3064H17.834C17.7361 17.3047 17.6412 17.337 17.569 17.3967C17.4967 17.4565 17.4527 17.539 17.446 17.6272L17.3145 19.8433V19.8848C17.3296 20.0699 17.4253 20.2419 17.5806 20.3633C17.7359 20.4847 17.9382 20.5455 18.143 20.5324H18.2154C18.6559 20.5324 18.873 20.2473 19.0374 19.8848V19.8492C19.1303 19.6165 19.2917 19.4111 19.5042 19.2551C19.7428 19.0993 20.0169 18.9938 20.3065 18.9462C21.0511 18.8716 21.7998 18.8359 22.5489 18.8392C23.0026 18.8392 23.3643 18.8392 23.6339 18.8392C23.7707 18.8453 23.9069 18.8592 24.0416 18.8808V29.7292C24.0466 30.0261 23.9511 30.3172 23.7677 30.5636C23.5843 30.8099 23.322 30.9998 23.0158 31.1076L22.8711 31.1551C22.7735 31.1981 22.6911 31.2647 22.633 31.3476C22.575 31.4305 22.5436 31.5264 22.5423 31.6244C22.5475 31.7684 22.6153 31.9047 22.7311 32.0037C22.8468 32.1027 23.0011 32.1564 23.1605 32.1532H27.9806C28.0626 32.1589 28.1449 32.1495 28.2228 32.1258C28.3006 32.102 28.3724 32.0644 28.4337 32.015C28.4951 31.9657 28.5449 31.9056 28.58 31.8385C28.6151 31.7714 28.6349 31.6986 28.6382 31.6244C28.6357 31.5259 28.603 31.4299 28.5438 31.3471C28.4846 31.2642 28.4012 31.1978 28.3029 31.1551L28.1582 31.1076C27.8591 30.9967 27.6038 30.8071 27.4255 30.5634C27.2472 30.3197 27.1543 30.0332 27.1586 29.7411V18.8927C27.2956 18.8708 27.434 18.8569 27.5729 18.8511C27.836 18.8511 28.2305 18.8511 28.6514 18.8511C29.4005 18.8478 30.1492 18.8835 30.8938 18.958C31.184 19.0039 31.4585 19.1096 31.6961 19.267C31.9086 19.423 32.07 19.6284 32.1629 19.8611V19.8967C32.301 20.2591 32.5443 20.5443 32.9849 20.5443H33.0507C33.2555 20.5574 33.4578 20.4966 33.6131 20.3752C33.7684 20.2538 33.8641 20.0818 33.8793 19.8967L33.8201 19.8433Z" fill="white"/>
</g>
<defs>
<clipPath id="clip0_6_151">
<rect width="101" height="47" fill="white"/>
</clipPath>
</defs>
</svg>
